<svg viewBox="0 0 36 36" xmlns="http://www.w3.org/2000/svg"><circle cx="17.658" cy="18.34" r="17.415" fill="#fff"/><path d="M16.666 20.988a.373.373 0 0 1-.231-.077.38.38 0 0 1-.077-.233l-.334-11.283c0-.087.026-.156.077-.207a.318.318 0 0 1 .231-.104h3.003c.085 0 .154.034.205.104.069.051.103.12.103.207l-.385 11.283a.323.323 0 0 1-.103.233.276.276 0 0 1-.205.077h-2.284Zm1 6.186c-.581 0-1.069-.19-1.462-.57-.377-.396-.565-.888-.565-1.475 0-.604.188-1.095.565-1.475.376-.38.864-.57 1.463-.57.598 0 1.077.19 1.437.57.376.38.564.871.564 1.475 0 .587-.188 1.078-.564 1.475-.377.38-.856.57-1.437.57Z" fill="#129FC2"/></svg>