<svg xmlns="http://www.w3.org/2000/svg" viewBox="0 0 320 120.18" fill-rule="evenodd"><path fill="#015a75" d="M15.78 120.18A15.88 15.88 0 0 1 0 104.4V15.78A15.88 15.88 0 0 1 15.78 0h288.44A15.88 15.88 0 0 1 320 15.78v88.62a15.88 15.88 0 0 1-15.78 15.78Z"/><path fill="#fff" d="M15.78 2.46A13.41 13.41 0 0 0 2.46 15.78v88.62a13.4 13.4 0 0 0 13.32 13.31h92.7V2.46ZM234 82.67l2-2.77a7.54 7.54 0 0 0 5.44 2.31c2 0 3-.94 3-1.9 0-1.26-1.59-1.62-3.47-2.08-2.8-.64-6.39-1.4-6.39-5.31 0-2.85 2.47-5.21 6.5-5.21a9.53 9.53 0 0 1 6.67 2.38l-2 2.68a7.36 7.36 0 0 0-5-1.87c-1.56 0-2.44.7-2.44 1.72s1.57 1.46 3.42 1.9c2.8.67 6.42 1.52 6.42 5.39 0 3.13-2.24 5.5-6.86 5.5a9.91 9.91 0 0 1-7.29-2.74Zm-15.6 0 2-2.77a7.55 7.55 0 0 0 5.45 2.31c2 0 3-.94 3-1.9 0-1.26-1.59-1.62-3.47-2.08-2.8-.64-6.39-1.4-6.39-5.31 0-2.85 2.47-5.21 6.5-5.21a9.53 9.53 0 0 1 6.67 2.38l-2 2.68a7.34 7.34 0 0 0-5-1.87c-1.56 0-2.43.7-2.43 1.72s1.56 1.46 3.41 1.9c2.8.67 6.42 1.52 6.42 5.39 0 3.13-2.23 5.5-6.86 5.5a10 10 0 0 1-7.25-2.74Zm-56.83 0 2-2.77a7.55 7.55 0 0 0 5.43 2.31c2 0 3-.94 3-1.9 0-1.26-1.59-1.62-3.46-2.08-2.8-.64-6.39-1.4-6.39-5.31 0-2.85 2.46-5.21 6.49-5.21a9.57 9.57 0 0 1 6.68 2.38l-2 2.68a7.38 7.38 0 0 0-5-1.87c-1.57 0-2.44.7-2.44 1.72s1.56 1.46 3.41 1.9c2.8.67 6.42 1.52 6.42 5.39 0 3.13-2.23 5.5-6.85 5.5a9.91 9.91 0 0 1-7.28-2.74Zm-17.86-4.42V68h3.73v10.13a4 4 0 1 0 8 0V68h3.74v10.23c0 4.26-2.52 7.16-7.73 7.16s-7.77-2.93-7.77-7.14Zm53.62 6.83-8.16-11.16v11.16h-3.65V68h3.74l7.94 10.7V68h3.65v17.08Zm-19 0V68H182v17.08Zm26.11 0V68h12.14v3.21h-8.5v3.62h8.3V78h-8.3v3.88h8.47v3.2Zm-77.9 0V68h9c3.27 0 4.93 2.08 4.93 4.36a3.8 3.8 0 0 1-2.95 3.93 4.13 4.13 0 0 1 3.27 4.2c0 2.57-1.72 4.62-5 4.62ZM137.08 80a2 2 0 0 0-2.21-2h-4.69v4h4.69a1.94 1.94 0 0 0 2.21-2Zm-.33-7a1.88 1.88 0 0 0-1.87-1.87h-4.7v3.73h4.57a1.82 1.82 0 0 0 2-1.85Zm6.7-25.83c0-5.26 4-8.87 9.11-8.87a7.84 7.84 0 0 1 7.16 4.2l-3.13 1.5a4.65 4.65 0 0 0-4-2.5 5.33 5.33 0 0 0-5.37 5.6 5.32 5.32 0 0 0 5.37 5.6 4.58 4.58 0 0 0 4-2.48l3.12 1.55a7.89 7.89 0 0 1-7.16 4.2c-5.12 0-9.12-3.57-9.12-8.84Zm17.82 0c0-5.26 4-8.87 9.11-8.87a7.84 7.84 0 0 1 7.16 4.2l-3.13 1.5a4.63 4.63 0 0 0-4-2.5 5.33 5.33 0 0 0-5.36 5.6 5.32 5.32 0 0 0 5.36 5.6 4.59 4.59 0 0 0 4-2.48l3.13 1.51a7.88 7.88 0 0 1-7.16 4.2c-5.13.07-9.11-3.54-9.11-8.81Zm28.32 8.55-3.36-6.07h-2.67v6.07h-3.65V38.55h8c3.57 0 5.75 2.33 5.75 5.52a4.9 4.9 0 0 1-3.73 5.08l3.85 6.54Zm-51.25 0-1.05-2.9h-7.35l-1.07 2.9h-4.16l6.62-17.12h4.57l6.6 17.12Zm129.51 0V38.55h6.75c5.36 0 9.09 3.41 9.09 8.57s-3.74 8.55-9.09 8.55Zm-15.15 0V38.55h12.14v3.21h-8.5v3.61h8.29v3.21h-8.29v3.88h8.48v3.2Zm-22.33 0V38.55H234v17.12Zm-18.62 0V38.55h6.75c5.36 0 9.09 3.41 9.09 8.57s-3.74 8.55-9.09 8.55Zm-15.15 0V38.55h12.14v3.21h-8.5v3.61h8.3v3.21h-8.3v3.88h8.48v3.2Zm44.93 0V41.76h-5v-3.21h13.66v3.21h-5v13.91Zm38.47-8.6a5 5 0 0 0-5.37-5.36h-3.1v10.7h3.1a5.12 5.12 0 0 0 5.37-5.34Zm-56.1 0a5 5 0 0 0-5.37-5.36h-3.1v10.7h3.1a5.12 5.12 0 0 0 5.35-5.34Zm-90.27-4.93L131 49.56h5.34Zm56.31 1.88a2.32 2.32 0 0 0-2.57-2.31h-3.82v4.62h3.82a2.32 2.32 0 0 0 2.56-2.31Z"/><path fill="#015a75" d="M38.35 99c2.43 1.08 3.63 1.8 4.09 4.82.79 5.27-4.07 7.28-8.65 7.28H23.05v-23h10.83c3.88 0 7.43 1.76 7.43 6.1a5.4 5.4 0 0 1-2.96 4.8Zm21.51 0c2.42 1.08 3.62 1.8 4.09 4.82.78 5.27-4.08 7.28-8.66 7.28H44.55v-23h10.83c3.88 0 7.44 1.76 7.44 6.1a5.42 5.42 0 0 1-2.96 4.8Zm25.58 4.82c-.46-3-1.66-3.73-4.09-4.82a5.41 5.41 0 0 0 3-4.83c0-4.34-3.55-6.1-7.43-6.1H66.06v23h10.73c4.58 0 9.44-2 8.66-7.28Zm3 1.76a5.31 5.31 0 0 1 10.62 0 5.31 5.31 0 0 1-10.62 0Zm10.14 0a4.83 4.83 0 0 0-9.65 0 4.83 4.83 0 0 0 9.65 0Zm-6.91-2.89h2.43a2.29 2.29 0 0 1 1.62.57 1.5 1.5 0 0 1 .44 1.06 1.62 1.62 0 0 1-1.41 1.6l1.69 2.18h-1l-1.57-2h-1.39v2h-.81Zm-57.43 4.06h-6.3v-5.25h6.29c4.61 0 4.33 5.25 0 5.25Zm21.51 0h-6.29v-5.25h6.27c4.61 0 4.33 5.25 0 5.25ZM71 101.5v5.25h6.27c4.33 0 4.62-5.25 0-5.25Zm23 3.86c.76 0 1.29-.35 1.29-1 0-.57-.47-.94-1.25-.94h-1.57v1.94ZM38.35 99Zm21.51 0Zm-31.92-6.52h5.64c3.51 0 3.64 4.91.22 4.91h-5.86Zm43 0h5.6c3.52 0 3.65 4.91.22 4.91H71Zm-21.52 0h5.63c3.51 0 3.64 4.91.22 4.91h-5.81Zm-16-14.7h10.49l1.87 6.35h17.11l1.87-6.35h10.47l-1.37-4.68h-39Zm12.7-37.65-5.07 7c-2.55 3.51-1.76 9.72 1.72 12.23l9.41 6.79c1.61 1.17 1.74 2.33 1 3.55l1.37 1 4.77-6.6c2.91-4.1 2.68-9.61-1.71-12.79l-9.5-6.92a2.39 2.39 0 0 1-.63-3.27l-1.36-1Zm8.14-30.9-7.9 10.93C42.65 25.28 44 34 49.07 37.75l13 9.54c2.63 1.94 3 6.86 1.06 9.38l1.1.83 9-12.61c4-5.66 3.8-14-2.52-18.61l-13.9-10.1c-1.95-1.4-2.92-3.82-1.3-6.11Z"/></svg>