<svg xmlns="http://www.w3.org/2000/svg" viewBox="0 0 1000 193.54"><path fill="#1877f2" d="M63.35 190.56H25.67V96.63H0V66h25.67V44.28C25.67 18.5 37 0 74.6 0 82.55 0 95 1.6 95 1.6V30H81.92c-13.35 0-18.57 4.06-18.57 15.29V66h31.18l-2.78 30.63h-28.4Zm86.46-127h-1.67c-34.94 0-50.93 26.29-50.93 63.59 0 47 20.74 65.81 51.2 65.81 17.43 0 28.88-7.33 35.84-21v18.56h35.84V66.06h-35.84v19.15c-5.68-12.32-17.45-21.46-34.44-21.61ZM158.92 93c14.68 0 23.49 10.24 23.49 27.65v17.78c0 11.74-7.27 25.47-23.52 25.47-25 0-24.3-27-24.3-35.94 0-30.21 13.3-35 24.3-35Zm75.64 35.3c0-15.13-.72-64.64 63.78-64.64 25.9 0 36.71 8.24 36.71 8.24l-8.69 27a56.7 56.7 0 0 0-24.87-6c-18 0-29.52 10.45-29.52 28.83v13.18c0 17.66 11.1 29.45 29.54 29.45 12.82 0 24.63-6 24.63-6l8.67 26.39s-9.89 8.28-36.31 8.28c-61.41 0-64-44.42-64-64.73Zm310.63-64.67c34.94 0 51.18 26.29 51.18 63.59 0 47-20.74 65.81-51.2 65.81-17.43 0-30.31-7.33-37.27-21v18.56h-35.39V3.79L510.08.51v83c5.43-14.52 23.25-19.89 35.11-19.89ZM534.66 93c-14.68 0-24.58 10.24-24.58 27.65v17.78c0 11.74 6.85 25.47 24.61 25.47 25 0 24.3-27 24.3-35.94C559 97.77 545.66 93 534.66 93ZM400.24 63.74c-39.63 0-60.55 21.61-60.55 60v7.14c0 49.83 29.38 62.66 64.41 62.66 34 0 49.46-9.52 49.46-9.52l-7-25.36s-18.13 7.72-37.92 7.72c-20.52 0-29.35-5.23-31.61-24.95h79.56v-20.35c0-41.65-23.48-57.34-56.32-57.34Zm1 25.39c13.72 0 22.6 8.41 22.12 27.92h-46.29c.8-20.53 10.38-27.92 24.13-27.92Zm270.05-25.56c-40.7 0-62.12 22.93-62.12 64 0 56.39 36.93 65.47 62.19 65.47 37 0 61.58-19.91 61.58-65 0-46.82-27.66-64.47-61.65-64.47Zm-.51 29.56c17.89 0 25 13.39 25 28.63v13.11c0 18.47-9.93 29.15-25.06 29.15-14.15 0-24.1-10-24.1-29.15v-13.11c-.01-20.43 11.83-28.63 24.16-28.63Zm137-29.56c-40.7 0-62.12 22.93-62.12 64 0 56.39 36.93 65.47 62.19 65.47 37 0 61.57-19.91 61.57-65 .01-46.82-27.65-64.47-61.63-64.47Zm-.51 29.56c17.89 0 25 13.39 25 28.63v13.11c0 18.47-9.92 29.15-25 29.15-14.15 0-24.1-10-24.1-29.15v-13.11c-.06-20.43 11.83-28.63 24.11-28.63Zm76.35 97.43V3.79l37.7-3.28V125.7l37.38-59.65h39.8l-39 61.78 40.5 62.73h-39.91l-38.77-60.91v60.91Z"/></svg>