<svg xmlns="http://www.w3.org/2000/svg" viewBox="0 0 601.19 340.87"><path fill="#0ea0c2" d="m12.61 117.88-8.48-31a.66.66 0 0 1 0-.28c0-.42.24-.66.74-.66h6.53a1.09 1.09 0 0 1 .63.22.84.84 0 0 1 .3.55l3.92 16.44a.21.21 0 0 0 .21.19c.09 0 .13 0 .15-.19l3.79-16.43a.83.83 0 0 1 .81-.62h5.55a.89.89 0 0 1 .93.77l4.11 16.35a.21.21 0 0 0 .21.19c.09 0 .13 0 .15-.19l3.64-16.44a.8.8 0 0 1 .3-.55 1 1 0 0 1 .64-.21h6.35a.87.87 0 0 1 .64.23.78.78 0 0 1 0 .7L36 117.88a.87.87 0 0 1-.93.74H29a1 1 0 0 1-.63-.19.78.78 0 0 1-.3-.55l-3.96-17.48a.21.21 0 0 0-.19-.23c-.09 0-.15 0-.19.23l-3.54 17.48a.81.81 0 0 1-.86.75h-5.81a.84.84 0 0 1-.91-.75ZM50.87 118.41a.74.74 0 0 1-.24-.59V86.87a.81.81 0 0 1 .77-.87h6.12a.81.81 0 0 1 .61.23.89.89 0 0 1 .24.62v31a.81.81 0 0 1-.24.59.75.75 0 0 1-.61.24h-6.06a.73.73 0 0 1-.59-.27ZM67.22 118.41a.81.81 0 0 1-.23-.59V86.87a.93.93 0 0 1 .23-.62.85.85 0 0 1 .6-.15h5.74a1 1 0 0 1 1 .58L84.79 104c0 .13.14.17.23.15s.15-.12.15-.27V86.93a.8.8 0 0 1 .76-.85h6a.8.8 0 0 1 .82.78v31a.8.8 0 0 1-.78.83h-5.74a1.13 1.13 0 0 1-1-.55L75 100.59c0-.17-.09-.23-.26-.19s-.17.13-.17.28v17.2a.79.79 0 0 1-.78.83h-6a.77.77 0 0 1-.57-.3ZM101.56 118.41a.81.81 0 0 1-.23-.59V86.87a.81.81 0 0 1 .76-.85h11.7a15.4 15.4 0 0 1 6.35 1.27 9.91 9.91 0 0 1 4.24 3.58 9.61 9.61 0 0 1 1.53 5.36v12.22a9.59 9.59 0 0 1-1.53 5.36 10 10 0 0 1-4.24 3.58 15.22 15.22 0 0 1-6.35 1.25h-11.61a.8.8 0 0 1-.62-.23Zm7.84-6.35h4.71a3.87 3.87 0 0 0 3-1.34 5.28 5.28 0 0 0 1.2-3.56v-9.62a5.12 5.12 0 0 0-1.15-3.54 4 4 0 0 0-3.1-1.31h-4.66a.27.27 0 0 0-.32.22v18.85a.27.27 0 0 0 .23.31.14.14 0 0 0 .09 0ZM139.85 117.65a11 11 0 0 1-4.45-4.24 12.59 12.59 0 0 1-1.59-6.35v-9.33a12.17 12.17 0 0 1 1.59-6.35 11.14 11.14 0 0 1 4.45-4.24 15.49 15.49 0 0 1 13.3 0 11.11 11.11 0 0 1 4.49 4.24 12.47 12.47 0 0 1 1.57 6.35v9.33a12.7 12.7 0 0 1-1.57 6.35 11 11 0 0 1-4.49 4.24 15.28 15.28 0 0 1-13.3 0Zm10.25-6.55a5.31 5.31 0 0 0 1.38-3.88v-9.63a5.3 5.3 0 0 0-1.38-3.84 5.07 5.07 0 0 0-7.16 0 5.3 5.3 0 0 0-1.38 3.84v9.7a5.34 5.34 0 0 0 1.38 3.88 4.75 4.75 0 0 0 3.56 1.44 4.8 4.8 0 0 0 3.56-1.51ZM172.41 117.88l-8.48-31a.66.66 0 0 1 0-.28c0-.42.26-.66.77-.66h6.52a1.09 1.09 0 0 1 .62.22.9.9 0 0 1 .31.55l3.9 16.44c0 .12.15.19.21.19s.15 0 .17-.19l3.77-16.44a.86.86 0 0 1 .93-.77h5.56a.9.9 0 0 1 .93.77l4.11 16.44a.21.21 0 0 0 .21.19c.09 0 .13 0 .15-.19l3.64-16.44a.78.78 0 0 1 .3-.55 1.05 1.05 0 0 1 .64-.22H203a.88.88 0 0 1 .64.24.82.82 0 0 1 .1.7l-7.86 31a.86.86 0 0 1-.93.74h-6.21a1 1 0 0 1-.61-.19.91.91 0 0 1-.32-.55l-3.9-17.48a.21.21 0 0 0-.19-.23c-.08 0-.15 0-.19.23l-3.45 17.48a.81.81 0 0 1-.86.75h-5.81a.85.85 0 0 1-1-.7ZM214.29 117.88a9.85 9.85 0 0 1-4.36-3.56 9.46 9.46 0 0 1-1.53-5.32v-.61a.82.82 0 0 1 .76-.85h6a1.1 1.1 0 0 1 .59.17.52.52 0 0 1 .24.4v.56a3.31 3.31 0 0 0 1.52 2.66 6.33 6.33 0 0 0 3.88 1.17 4.35 4.35 0 0 0 3-.89 2.71 2.71 0 0 0 1-2.12 2.2 2.2 0 0 0-1.14-2 21.28 21.28 0 0 0-4.09-1.63l-1-.32a36.94 36.94 0 0 1-5.23-2.12 11.37 11.37 0 0 1-3.81-3.18 7.82 7.82 0 0 1-1.59-5 8.48 8.48 0 0 1 1.53-5.06 9.43 9.43 0 0 1 4.23-3.33 16.42 16.42 0 0 1 12.44.13 10.81 10.81 0 0 1 4.51 3.69 9.49 9.49 0 0 1 1.63 5.46v.36a.84.84 0 0 1-.23.62.93.93 0 0 1-.62.23h-5.91a1.18 1.18 0 0 1-.61-.13.35.35 0 0 1-.23-.33v-.43a3.81 3.81 0 0 0-1.44-2.88 5.7 5.7 0 0 0-3.83-1.28 4.76 4.76 0 0 0-2.84.74 2.49 2.49 0 0 0-1 2.12 2.38 2.38 0 0 0 .66 1.72 6.13 6.13 0 0 0 2.12 1.25c.93.38 2.33.88 4.24 1.52s3.87 1.4 5.08 2a10.12 10.12 0 0 1 3.43 2.73 7.44 7.44 0 0 1 1.61 5 8.74 8.74 0 0 1-1.54 5.15 9.81 9.81 0 0 1-4.24 3.43 18 18 0 0 1-13 0ZM273 101.82c0 .11 0 .17.19.24a7.67 7.67 0 0 1 4.24 7.37 8 8 0 0 1-3.22 6.95 14.36 14.36 0 0 1-8.48 2.26h-12.1a.73.73 0 0 1-.59-.23.78.78 0 0 1-.23-.59V86.87a.89.89 0 0 1 .23-.62.81.81 0 0 1 .59-.23h11.76a14.3 14.3 0 0 1 8.6 2.12 8 8 0 0 1 2.91 6.92 6.74 6.74 0 0 1-3.63 6.49c-.17.1-.27.19-.27.27ZM260.6 93v5.7c0 .21.11.31.34.31h4.52a4.73 4.73 0 0 0 2.94-.8 2.82 2.82 0 0 0 1-2.31 2.94 2.94 0 0 0-1-2.39 4.61 4.61 0 0 0-2.94-.83h-4.52c-.34-.03-.34.08-.34.32Zm8.12 18.15a3.06 3.06 0 0 0 1-2.5 3 3 0 0 0-1-2.43 4.21 4.21 0 0 0-2.9-.87h-4.9a.29.29 0 0 0-.34.25v6.08a.3.3 0 0 0 .25.34.14.14 0 0 0 .09 0h4.9a4.33 4.33 0 0 0 2.77-.87ZM290.52 118.33a.89.89 0 0 1-.24-.62v-10.59a1.48 1.48 0 0 0 0-.42l-9.36-19.62v-.38c0-.41.25-.62.74-.62h6.48a1 1 0 0 1 1 .66L294 98.16a.27.27 0 0 0 .26.19c.11 0 .17-.07.19-.19l5-11.42a1 1 0 0 1 1-.66H307a1 1 0 0 1 .55.17.53.53 0 0 1 .19.4.79.79 0 0 1 0 .43l-9.51 19.62a1.48 1.48 0 0 0 0 .42v10.59a.81.81 0 0 1-.76.85h-6.38a.86.86 0 0 1-.57-.23Z"/><path fill="#145066" d="M184.34 263.26h-6.8a.12.12 0 0 0-.13.12v4a.1.1 0 0 0 .08.13h4.28a.3.3 0 0 1 .32.28v2.5a.29.29 0 0 1-.3.29h-4.25a.13.13 0 0 0-.13.13v4.09a.1.1 0 0 0 .08.13h6.85a.28.28 0 0 1 .31.27v2.5a.29.29 0 0 1-.27.32h-10.26a.29.29 0 0 1-.29-.3v-17.2a.3.3 0 0 1 .29-.3h10.22a.3.3 0 0 1 .31.28v2.5a.3.3 0 0 1-.29.3ZM190.54 277.66v-17.18a.31.31 0 0 1 .3-.3h3a.44.44 0 0 1 .36.24l4.87 10.12c0 .11.15 0 .15 0v-10a.29.29 0 0 1 .3-.29h2.94a.29.29 0 0 1 .32.27v17.2a.3.3 0 0 1-.28.32h-3a.38.38 0 0 1-.36-.23l-4.87-10.21h-.17v10.08a.29.29 0 0 1-.27.32h-3a.3.3 0 0 1-.29-.34ZM220.61 260.48V263a.31.31 0 0 1-.3.3h-3.88a.11.11 0 0 0-.1.12v14.26a.3.3 0 0 1-.28.32h-3a.31.31 0 0 1-.32-.27V263.4a.12.12 0 0 0-.12-.12h-3.73a.3.3 0 0 1-.3-.3v-2.5a.3.3 0 0 1 .3-.3h11.48a.31.31 0 0 1 .25.3ZM237 263.26h-6.82a.13.13 0 0 0-.11.12v4s0 .13.11.13h4.24a.29.29 0 0 1 .29.3v2.48a.29.29 0 0 1-.29.29h-4.24a.14.14 0 0 0-.11.13v4.09s0 .13.11.13H237a.3.3 0 0 1 .3.29v2.48a.3.3 0 0 1-.28.32h-10.31a.29.29 0 0 1-.32-.27v-17.27a.3.3 0 0 1 .29-.3h10.24a.3.3 0 0 1 .29.3V263a.29.29 0 0 1-.21.26ZM251.24 277.73l-2.56-7H247a.12.12 0 0 0-.13.08v7a.3.3 0 0 1-.27.32h-2.9a.27.27 0 0 1-.3-.25.08.08 0 0 1 0-.07v-17.35a.29.29 0 0 1 .25-.3h6.25A5 5 0 0 1 255 265a4.51 4.51 0 0 1 0 .52 4.76 4.76 0 0 1-2.76 4.62.14.14 0 0 0 0 .17l2.89 7.31c0 .23 0 .36-.26.36h-3.09a.35.35 0 0 1-.48-.17.41.41 0 0 1-.06-.08Zm-4.41-14.35v4.24a.12.12 0 0 0 .08.13h2.17a2.29 2.29 0 1 0 0-4.58H247a.13.13 0 0 0-.16.08.14.14 0 0 0-.01.13ZM272.43 265.63a5 5 0 0 1-4.61 5.29h-3.32a.12.12 0 0 0-.13.12v6.61a.29.29 0 0 1-.27.32h-3a.31.31 0 0 1-.32-.27v-17.24a.31.31 0 0 1 .3-.3h6.16a5.07 5.07 0 0 1 5.21 4.92c-.01.18-.01.37-.02.55Zm-3.59 0a2.11 2.11 0 0 0-1.77-2.41h-2.46a.13.13 0 0 0-.13.13v4.58a.1.1 0 0 0 .08.12h2.17a2.12 2.12 0 0 0 2.13-2.11 1.8 1.8 0 0 0 0-.22ZM286.17 277.73l-2.56-7h-1.82a.13.13 0 0 0-.13.13v6.93a.31.31 0 0 1-.27.32h-3a.3.3 0 0 1-.32-.28v-17.37a.3.3 0 0 1 .3-.3h6.21a5 5 0 0 1 5.12 4.84 4.51 4.51 0 0 1 0 .52 4.78 4.78 0 0 1-2.73 4.62.14.14 0 0 0 0 .17l2.9 7.31c0 .23 0 .36-.25.36h-3.1a.35.35 0 0 1-.35-.25Zm-4.38-14.35v4.24a.13.13 0 0 0 .13.13h2.22a2.29 2.29 0 1 0 0-4.58h-2.35a.13.13 0 0 0 0 .18ZM295.79 277.66v-17.18a.31.31 0 0 1 .3-.3h3a.3.3 0 0 1 .29.3v17.18a.29.29 0 0 1-.27.32h-3a.3.3 0 0 1-.3-.3ZM305.43 273.19v-.65a.3.3 0 0 1 .28-.32h2.94a.29.29 0 0 1 .3.29v.49a2.12 2.12 0 0 0 2.1 2.14h.29a1.78 1.78 0 0 0 2.09-1.4 1.8 1.8 0 0 0 0-.4c0-1.21-1-1.74-3.09-2.8s-4.83-2.45-4.83-5.63a4.93 4.93 0 0 1 4.94-4.93 3.9 3.9 0 0 1 .59 0 5.24 5.24 0 0 1 5.79 4.65 4.41 4.41 0 0 1 0 .52v.5a.29.29 0 0 1-.29.3h-3a.29.29 0 0 1-.32-.27v-.49a2.11 2.11 0 0 0-2.11-2.13h-.22a1.72 1.72 0 0 0-1.94 1.46v.32c0 1.18.85 1.71 3.14 2.86s4.8 2.46 4.8 5.44-2.28 5-5.74 5-5.72-1.98-5.72-4.95ZM333.38 263.26h-6.8a.12.12 0 0 0-.13.12v4a.1.1 0 0 0 .08.13h4.28a.3.3 0 0 1 .32.28v2.5a.29.29 0 0 1-.3.29h-4.25a.13.13 0 0 0-.13.13v4.09a.1.1 0 0 0 .08.13h6.85a.28.28 0 0 1 .31.27v2.5a.29.29 0 0 1-.27.32h-10.26a.29.29 0 0 1-.29-.3v-17.2a.3.3 0 0 1 .29-.3h10.22a.3.3 0 0 1 .31.28v2.5a.3.3 0 0 1-.29.3ZM339.24 273.19v-.65a.3.3 0 0 1 .28-.32h2.94a.29.29 0 0 1 .3.29v.49a2.12 2.12 0 0 0 2.1 2.14h.29a1.78 1.78 0 0 0 2.09-1.4 1.35 1.35 0 0 0 0-.4c0-1.21-1-1.74-3.09-2.8s-4.83-2.45-4.83-5.63a4.94 4.94 0 0 1 4.94-4.93 3.9 3.9 0 0 1 .59 0 5.24 5.24 0 0 1 5.79 4.65v1.02a.3.3 0 0 1-.3.3h-3a.29.29 0 0 1-.31-.27v-.49a2.12 2.12 0 0 0-2.11-2.13h-.22a1.69 1.69 0 0 0-1.95 1.78c0 1.18.84 1.71 3.13 2.86s4.81 2.46 4.81 5.44-2.29 5-5.74 5-5.71-1.98-5.71-4.95ZM208 195.19a98.37 98.37 0 0 1-2.12 22.5 33.56 33.56 0 0 1-7.56 15.12 31.14 31.14 0 0 1-14 8.48 73.84 73.84 0 0 1-21.78 2.71 51.22 51.22 0 0 1-14.73-1.82 27.86 27.86 0 0 1-9.89-5.15v37.71l-25.21 5.42v-95.33a79.93 79.93 0 0 1 2.73-22.67 33.15 33.15 0 0 1 8.47-14.83 33.49 33.49 0 0 1 15.09-8.05 87.44 87.44 0 0 1 21.88-2.28 86.19 86.19 0 0 1 21.53 2.33 31.32 31.32 0 0 1 14.64 8.05 33.55 33.55 0 0 1 8.32 15.1A88.66 88.66 0 0 1 208 186Zm-47.88 28.62a53.33 53.33 0 0 0 11.34-1 11.36 11.36 0 0 0 6.77-4.06 18.47 18.47 0 0 0 3.31-8.65 99.21 99.21 0 0 0 .87-14.62v-9.83a90.88 90.88 0 0 0-1-14.83 18.58 18.58 0 0 0-3.39-8.62 11.47 11.47 0 0 0-6.78-4 52 52 0 0 0-11.14-1 50.69 50.69 0 0 0-11.06 1 12.24 12.24 0 0 0-6.78 3.86 17.09 17.09 0 0 0-3.49 8.47 85 85 0 0 0-1 14.43v13.77a60.28 60.28 0 0 0 1.08 12.5 16.39 16.39 0 0 0 3.58 7.75 13 13 0 0 0 6.78 3.88 45.63 45.63 0 0 0 10.91.95ZM49.34 135.91a92.82 92.82 0 0 1 22.59 2.37 33.8 33.8 0 0 1 15.25 8 32.49 32.49 0 0 1 8.62 15.15 89.38 89.38 0 0 1 2.67 23.77v10.7a89.38 89.38 0 0 1-2.67 23.8 32.49 32.49 0 0 1-8.62 15.15 33.89 33.89 0 0 1-15.25 8 92.82 92.82 0 0 1-22.59 2.37 93.24 93.24 0 0 1-22.77-2.37 33.88 33.88 0 0 1-15.26-8 32.71 32.71 0 0 1-8.62-15.15A89.38 89.38 0 0 1 0 195.93v-10.7a89.38 89.38 0 0 1 2.67-23.77 32.71 32.71 0 0 1 8.62-15.15 33.78 33.78 0 0 1 15.26-8 93.24 93.24 0 0 1 22.79-2.4Zm23 48.92a88.58 88.58 0 0 0-1-14.83 18.41 18.41 0 0 0-3.45-8.63 12.18 12.18 0 0 0-6.95-4 55 55 0 0 0-11.59-1 57.09 57.09 0 0 0-11.67 1 12.19 12.19 0 0 0-7 4 18.17 18.17 0 0 0-3.52 8.63 88.57 88.57 0 0 0-1 14.83v11.69a86.64 86.64 0 0 0 1 14.66 18 18 0 0 0 3.48 8.48 12.05 12.05 0 0 0 7 4 56.39 56.39 0 0 0 11.67 1 55 55 0 0 0 11.59-1 12.07 12.07 0 0 0 6.95-4 18.29 18.29 0 0 0 3.45-8.48 86.64 86.64 0 0 0 1-14.66ZM308.38 222.73q0 10.25-4.66 14.23t-16.08 4H256q-20.74 0-29.37-7.76T218 210.91v-4.24q0-16.08 9.49-23.3t29.66-7.27a71.69 71.69 0 0 1 16.85 1.65 34.34 34.34 0 0 1 9.94 3.69v-3.5a31 31 0 0 0-1.06-8.73 11.18 11.18 0 0 0-3.58-5.53 15 15 0 0 0-6.91-2.79 62.71 62.71 0 0 0-10.95-.79h-17.19l-9 .22h-8.13l4.06-20.32c3.62-.13 8.13-.22 13.58-.3s11.35 0 17.81 0q23.69 0 34.71 8.35t11.05 26.16Zm-24.43 0V207a22.63 22.63 0 0 0-.68-5.91 7.25 7.25 0 0 0-2.82-4 14.13 14.13 0 0 0-6-2.12 60 60 0 0 0-10.28-.7h-2.92q-11 0-14.83 2.73c-2.61 1.8-3.9 5.11-3.9 9.87v3.69a11.39 11.39 0 0 0 3.6 9.22q3.59 3 13.29 3ZM325.28 95.06l25.19-5.46V241h-25.19ZM599.49 17.88v-.76l-3-1.57A181.06 181.06 0 0 0 479.24 5.38a158.05 158.05 0 0 1 22.87-2.27 162.72 162.72 0 0 1 72.81 15.17l1.39.66.79.4V313.6l-40.59-7.34L400 281.6l199.7 58.85 1.49.42Z"/><path fill="#0e9cbe" d="M443.62 37.15c-2.52 1.06-5 2.18-7.4 3.36-2.37 1.19-4.64 2.37-6.86 3.61l-.45.25-3 1.75-1 .64-2.16 1.24h-.24a3.94 3.94 0 0 0-.61.39l-1.24.79-.67.45L418 51l-2.64 1.82c-1 .7-1.94 1.36-2.85 2.06h-.15l-.64.46-.55.42-.42.31a174 174 0 0 0-23.54 21.53l-.31.43-.48.7v78.87l10.59-.76 54.6-3.88V34.11h-.39c-2.68 1.03-5.17 2-7.6 3.04ZM386.2 260.48l10.58 1.52 20.22 3 34.55 4.92V172l-65.31 2.43ZM555.41 39l-2.49-1-.84-.34c-.67-.27-1.37-.54-2.1-.79l-.94-.36c-2.06-.73-4.34-1.52-6.79-2.28l-.73-.24-3.79-1.12h-.61c-1.21-.37-2.49-.7-3.76-1l-.67-.18-4.31-1-.94-.18-4.7-1A136.91 136.91 0 0 0 494.1 27c-2.45 0-4.91 0-7.43.25-2.52.18-5.07.39-7.61.69h-.91c-2.25.31-4.49.64-6.77 1l-1.49.27-3.61.76c-1.24.27-2.48.54-3.73.88V31c-1.42.36-2.85.73-4.27 1.15l-1.28.4-3 .91v-.31l-2 .88h1.76l.34.15h.6l.37.19.33.18.4.24.36.21.43.28.39.24.49.33.42.28.67.48.27.24.64.46.42.33.49.43.63.51.52.43.7.6.51.46.76.67 1.37 1.27v110.41l10.58-.72 79.87-5.7V39Zm-90.52 132.47-13.35.52a56.65 56.65 0 0 1 9.89 8.46h.67v.67l2.79 2.79v87.74l10.59 1.51 24 3.4 36.41 5.22 19.41 2.76V168.11l-90.52 3.36Z"/><path fill="#508a9a" d="M443.62 37.15c-2.52 1.06-5 2.18-7.4 3.36-2.37 1.19-4.64 2.37-6.86 3.61l-.45.25-3 1.75-1 .64-2.16 1.24h-.24a3.94 3.94 0 0 0-.61.39l-1.24.79-.67.45L418 51l-2.64 1.82c-1 .7-1.94 1.36-2.85 2.06h-.15l-.64.46-.55.42-.42.31a174 174 0 0 0-23.54 21.53l-.31.43-.48.7v78.87l10.59-.76V87.32a173.47 173.47 0 0 1 24.22-22.42l.37-.45.54-.4.64-.48c1.79-1.34 3.7-2.67 5.67-4l2.67-1.82 1.25-.78.42-.28.43-.24c2-1.3 4.18-2.55 6.37-3.79h.27c2.19-1.22 4.49-2.43 6.83-3.58h.15l4.73-2.16V34.11h-.39c-2.64 1.03-5.13 2-7.56 3.04ZM386.2 260.48l10.58 1.52v-79.24l54.61-2V172l-65.32 2.43ZM555.41 39l-2.49-1-.84-.34c-.67-.27-1.37-.54-2.1-.79l-.94-.36c-2.06-.73-4.34-1.52-6.79-2.28l-.73-.24-3.79-1.12h-.61c-1.21-.37-2.49-.7-3.76-1l-.67-.18-4.31-1-.94-.18-4.7-1A136.91 136.91 0 0 0 494.1 27c-2.45 0-4.91 0-7.43.25-2.52.18-5.07.39-7.61.69h-.91c-2.25.31-4.49.64-6.77 1l-1.49.27-3.61.76c-1.24.27-2.48.54-3.73.88V31c-1.42.36-2.85.73-4.27 1.15l-1.28.4-3 .91v-.31l-2 .88h1.76l.34.15h.6l.37.19.33.18.4.24.36.21.43.28.39.24.49.33.42.28.67.48.27.24.64.46.42.33.49.43.63.51.52.43.7.6.51.46.76.67 1.37 1.27v110.41l10.58-.72v-113l4.86-1 1.49-.27c2.27-.43 4.55-.76 6.79-1h1a142.52 142.52 0 0 1 15.17-1 134.66 134.66 0 0 1 28.61 2.54 163.19 163.19 0 0 1 22.08 5.65v-4.68Zm-90.52 132.47-13.35.52a56.65 56.65 0 0 1 9.89 8.46h.67v.67l2.79 2.79v87.74l10.59 1.51v-93.22l79.93-3v-8.79l-90.52 3.36Z"/></svg>