<svg xmlns="http://www.w3.org/2000/svg" viewBox="0 0 270.37 267.6"><path d="M146.86 201.05a328.67 328.67 0 01-44.37-37.29 331.5 331.5 0 01-33.71-39.34 23 23 0 012.39-29.87l28.16-28.16a10.84 10.84 0 000-15.33l-48-48A10.89 10.89 0 0043.69 0h-.43a10.85 10.85 0 00-7.68 3.16L20.39 18.35A68.26 68.26 0 003.33 88.06 239 239 0 0033 147.2a307.78 307.78 0 0038.83 47.28 304.87 304.87 0 0052 41.81 226.87 226.87 0 0065.88 29.44 68.24 68.24 0 0064.42-18.43l13.06-13.06a10.84 10.84 0 000-15.33l-48-48a10.83 10.83 0 00-15.32 0l-27.48 27.57a23.13 23.13 0 01-29.53 2.57z"></path></svg>