<svg xmlns="http://www.w3.org/2000/svg"><symbol viewBox="0 0 36 36" id="attention" xmlns="http://www.w3.org/2000/svg"><circle cx="17.658" cy="18.34" r="17.415" fill="#fff"/><path d="M16.666 20.988a.373.373 0 01-.231-.077.38.38 0 01-.077-.233l-.334-11.283a.28.28 0 01.077-.207.318.318 0 01.231-.104h3.003c.085 0 .154.034.205.104.069.051.103.12.103.207l-.385 11.283a.323.323 0 01-.103.233.276.276 0 01-.205.077h-2.284zm1 6.186c-.581 0-1.069-.19-1.462-.57-.377-.396-.565-.888-.565-1.475 0-.604.188-1.095.565-1.475.376-.38.864-.57 1.463-.57.598 0 1.077.19 1.437.57.376.38.564.871.564 1.475 0 .587-.188 1.078-.564 1.475-.377.38-.856.57-1.437.57z" fill="#129FC2"/></symbol><symbol viewBox="0 0 320 120.18" fill-rule="evenodd" id="bbb" xmlns="http://www.w3.org/2000/svg"><path fill="#015a75" d="M15.78 120.18A15.88 15.88 0 010 104.4V15.78A15.88 15.88 0 0115.78 0h288.44A15.88 15.88 0 01320 15.78v88.62a15.88 15.88 0 01-15.78 15.78z"/><path fill="#fff" d="M15.78 2.46A13.41 13.41 0 002.46 15.78v88.62a13.4 13.4 0 0013.32 13.31h92.7V2.46zM234 82.67l2-2.77a7.54 7.54 0 005.44 2.31c2 0 3-.94 3-1.9 0-1.26-1.59-1.62-3.47-2.08-2.8-.64-6.39-1.4-6.39-5.31 0-2.85 2.47-5.21 6.5-5.21a9.53 9.53 0 016.67 2.38l-2 2.68a7.36 7.36 0 00-5-1.87c-1.56 0-2.44.7-2.44 1.72s1.57 1.46 3.42 1.9c2.8.67 6.42 1.52 6.42 5.39 0 3.13-2.24 5.5-6.86 5.5a9.91 9.91 0 01-7.29-2.74zm-15.6 0l2-2.77a7.55 7.55 0 005.45 2.31c2 0 3-.94 3-1.9 0-1.26-1.59-1.62-3.47-2.08-2.8-.64-6.39-1.4-6.39-5.31 0-2.85 2.47-5.21 6.5-5.21a9.53 9.53 0 016.67 2.38l-2 2.68a7.34 7.34 0 00-5-1.87c-1.56 0-2.43.7-2.43 1.72s1.56 1.46 3.41 1.9c2.8.67 6.42 1.52 6.42 5.39 0 3.13-2.23 5.5-6.86 5.5a10 10 0 01-7.25-2.74zm-56.83 0l2-2.77a7.55 7.55 0 005.43 2.31c2 0 3-.94 3-1.9 0-1.26-1.59-1.62-3.46-2.08-2.8-.64-6.39-1.4-6.39-5.31 0-2.85 2.46-5.21 6.49-5.21a9.57 9.57 0 016.68 2.38l-2 2.68a7.38 7.38 0 00-5-1.87c-1.57 0-2.44.7-2.44 1.72s1.56 1.46 3.41 1.9c2.8.67 6.42 1.52 6.42 5.39 0 3.13-2.23 5.5-6.85 5.5a9.91 9.91 0 01-7.28-2.74zm-17.86-4.42V68h3.73v10.13a4 4 0 108 0V68h3.74v10.23c0 4.26-2.52 7.16-7.73 7.16s-7.77-2.93-7.77-7.14zm53.62 6.83l-8.16-11.16v11.16h-3.65V68h3.74l7.94 10.7V68h3.65v17.08zm-19 0V68H182v17.08zm26.11 0V68h12.14v3.21h-8.5v3.62h8.3V78h-8.3v3.88h8.47v3.2zm-77.9 0V68h9c3.27 0 4.93 2.08 4.93 4.36a3.8 3.8 0 01-2.95 3.93 4.13 4.13 0 013.27 4.2c0 2.57-1.72 4.62-5 4.62zM137.08 80a2 2 0 00-2.21-2h-4.69v4h4.69a1.94 1.94 0 002.21-2zm-.33-7a1.88 1.88 0 00-1.87-1.87h-4.7v3.73h4.57a1.82 1.82 0 002-1.85zm6.7-25.83c0-5.26 4-8.87 9.11-8.87a7.84 7.84 0 017.16 4.2l-3.13 1.5a4.65 4.65 0 00-4-2.5 5.33 5.33 0 00-5.37 5.6 5.32 5.32 0 005.37 5.6 4.58 4.58 0 004-2.48l3.12 1.55a7.89 7.89 0 01-7.16 4.2c-5.12 0-9.12-3.57-9.12-8.84zm17.82 0c0-5.26 4-8.87 9.11-8.87a7.84 7.84 0 017.16 4.2l-3.13 1.5a4.63 4.63 0 00-4-2.5 5.33 5.33 0 00-5.36 5.6 5.32 5.32 0 005.36 5.6 4.59 4.59 0 004-2.48l3.13 1.51a7.88 7.88 0 01-7.16 4.2c-5.13.07-9.11-3.54-9.11-8.81zm28.32 8.55l-3.36-6.07h-2.67v6.07h-3.65V38.55h8c3.57 0 5.75 2.33 5.75 5.52a4.9 4.9 0 01-3.73 5.08l3.85 6.54zm-51.25 0l-1.05-2.9h-7.35l-1.07 2.9h-4.16l6.62-17.12h4.57l6.6 17.12zm129.51 0V38.55h6.75c5.36 0 9.09 3.41 9.09 8.57s-3.74 8.55-9.09 8.55zm-15.15 0V38.55h12.14v3.21h-8.5v3.61h8.29v3.21h-8.29v3.88h8.48v3.2zm-22.33 0V38.55H234v17.12zm-18.62 0V38.55h6.75c5.36 0 9.09 3.41 9.09 8.57s-3.74 8.55-9.09 8.55zm-15.15 0V38.55h12.14v3.21h-8.5v3.61h8.3v3.21h-8.3v3.88h8.48v3.2zm44.93 0V41.76h-5v-3.21h13.66v3.21h-5v13.91zm38.47-8.6a5 5 0 00-5.37-5.36h-3.1v10.7h3.1a5.12 5.12 0 005.37-5.34zm-56.1 0a5 5 0 00-5.37-5.36h-3.1v10.7h3.1a5.12 5.12 0 005.35-5.34zm-90.27-4.93L131 49.56h5.34zm56.31 1.88a2.32 2.32 0 00-2.57-2.31h-3.82v4.62h3.82a2.32 2.32 0 002.56-2.31z"/><path fill="#015a75" d="M38.35 99c2.43 1.08 3.63 1.8 4.09 4.82.79 5.27-4.07 7.28-8.65 7.28H23.05v-23h10.83c3.88 0 7.43 1.76 7.43 6.1a5.4 5.4 0 01-2.96 4.8zm21.51 0c2.42 1.08 3.62 1.8 4.09 4.82.78 5.27-4.08 7.28-8.66 7.28H44.55v-23h10.83c3.88 0 7.44 1.76 7.44 6.1a5.42 5.42 0 01-2.96 4.8zm25.58 4.82c-.46-3-1.66-3.73-4.09-4.82a5.41 5.41 0 003-4.83c0-4.34-3.55-6.1-7.43-6.1H66.06v23h10.73c4.58 0 9.44-2 8.66-7.28zm3 1.76a5.31 5.31 0 0110.62 0 5.31 5.31 0 01-10.62 0zm10.14 0a4.83 4.83 0 00-9.65 0 4.83 4.83 0 009.65 0zm-6.91-2.89h2.43a2.29 2.29 0 011.62.57 1.5 1.5 0 01.44 1.06 1.62 1.62 0 01-1.41 1.6l1.69 2.18h-1l-1.57-2h-1.39v2h-.81zm-57.43 4.06h-6.3v-5.25h6.29c4.61 0 4.33 5.25 0 5.25zm21.51 0h-6.29v-5.25h6.27c4.61 0 4.33 5.25 0 5.25zM71 101.5v5.25h6.27c4.33 0 4.62-5.25 0-5.25zm23 3.86c.76 0 1.29-.35 1.29-1 0-.57-.47-.94-1.25-.94h-1.57v1.94zM38.35 99zm21.51 0zm-31.92-6.52h5.64c3.51 0 3.64 4.91.22 4.91h-5.86zm43 0h5.6c3.52 0 3.65 4.91.22 4.91H71zm-21.52 0h5.63c3.51 0 3.64 4.91.22 4.91h-5.81zm-16-14.7h10.49l1.87 6.35h17.11l1.87-6.35h10.47l-1.37-4.68h-39zm12.7-37.65l-5.07 7c-2.55 3.51-1.76 9.72 1.72 12.23l9.41 6.79c1.61 1.17 1.74 2.33 1 3.55l1.37 1 4.77-6.6c2.91-4.1 2.68-9.61-1.71-12.79l-9.5-6.92a2.39 2.39 0 01-.63-3.27l-1.36-1zm8.14-30.9l-7.9 10.93C42.65 25.28 44 34 49.07 37.75l13 9.54c2.63 1.94 3 6.86 1.06 9.38l1.1.83 9-12.61c4-5.66 3.8-14-2.52-18.61l-13.9-10.1c-1.95-1.4-2.92-3.82-1.3-6.11z"/></symbol><symbol viewBox="0 0 166.95 167.05" id="close" xmlns="http://www.w3.org/2000/svg"><path d="M149.07 135L92.14 78.05l56.52-56.53a10 10 0 00-14.14-14.14L78 63.9 21.48 7.38A10 10 0 007.34 21.52l56.52 56.53L6.93 135a10 10 0 1014.14 14.14L78 92.19l56.93 56.93A10 10 0 10149.07 135z"/></symbol><symbol viewBox="0 0 1000 193.54" id="facebook" xmlns="http://www.w3.org/2000/svg"><path fill="#1877f2" d="M63.35 190.56H25.67V96.63H0V66h25.67V44.28C25.67 18.5 37 0 74.6 0 82.55 0 95 1.6 95 1.6V30H81.92c-13.35 0-18.57 4.06-18.57 15.29V66h31.18l-2.78 30.63h-28.4zm86.46-127h-1.67c-34.94 0-50.93 26.29-50.93 63.59 0 47 20.74 65.81 51.2 65.81 17.43 0 28.88-7.33 35.84-21v18.56h35.84V66.06h-35.84v19.15c-5.68-12.32-17.45-21.46-34.44-21.61zM158.92 93c14.68 0 23.49 10.24 23.49 27.65v17.78c0 11.74-7.27 25.47-23.52 25.47-25 0-24.3-27-24.3-35.94 0-30.21 13.3-35 24.3-35zm75.64 35.3c0-15.13-.72-64.64 63.78-64.64 25.9 0 36.71 8.24 36.71 8.24l-8.69 27a56.7 56.7 0 00-24.87-6c-18 0-29.52 10.45-29.52 28.83v13.18c0 17.66 11.1 29.45 29.54 29.45 12.82 0 24.63-6 24.63-6l8.67 26.39s-9.89 8.28-36.31 8.28c-61.41 0-64-44.42-64-64.73zm310.63-64.67c34.94 0 51.18 26.29 51.18 63.59 0 47-20.74 65.81-51.2 65.81-17.43 0-30.31-7.33-37.27-21v18.56h-35.39V3.79L510.08.51v83c5.43-14.52 23.25-19.89 35.11-19.89zM534.66 93c-14.68 0-24.58 10.24-24.58 27.65v17.78c0 11.74 6.85 25.47 24.61 25.47 25 0 24.3-27 24.3-35.94C559 97.77 545.66 93 534.66 93zM400.24 63.74c-39.63 0-60.55 21.61-60.55 60v7.14c0 49.83 29.38 62.66 64.41 62.66 34 0 49.46-9.52 49.46-9.52l-7-25.36s-18.13 7.72-37.92 7.72c-20.52 0-29.35-5.23-31.61-24.95h79.56v-20.35c0-41.65-23.48-57.34-56.32-57.34zm1 25.39c13.72 0 22.6 8.41 22.12 27.92h-46.29c.8-20.53 10.38-27.92 24.13-27.92zm270.05-25.56c-40.7 0-62.12 22.93-62.12 64 0 56.39 36.93 65.47 62.19 65.47 37 0 61.58-19.91 61.58-65 0-46.82-27.66-64.47-61.65-64.47zm-.51 29.56c17.89 0 25 13.39 25 28.63v13.11c0 18.47-9.93 29.15-25.06 29.15-14.15 0-24.1-10-24.1-29.15v-13.11c-.01-20.43 11.83-28.63 24.16-28.63zm137-29.56c-40.7 0-62.12 22.93-62.12 64 0 56.39 36.93 65.47 62.19 65.47 37 0 61.57-19.91 61.57-65 .01-46.82-27.65-64.47-61.63-64.47zm-.51 29.56c17.89 0 25 13.39 25 28.63v13.11c0 18.47-9.92 29.15-25 29.15-14.15 0-24.1-10-24.1-29.15v-13.11c-.06-20.43 11.83-28.63 24.11-28.63zm76.35 97.43V3.79l37.7-3.28V125.7l37.38-59.65h39.8l-39 61.78 40.5 62.73h-39.91l-38.77-60.91v60.91z"/></symbol><symbol viewBox="0 0 269.64 88.76" id="google" xmlns="http://www.w3.org/2000/svg"><path fill="#ea4335" d="M115.39 46.71a22.25 22.25 0 01-44.5 0 22.25 22.25 0 0144.5 0zm-9.74 0c0-8-5.79-13.44-12.51-13.44s-12.51 5.46-12.51 13.44 5.79 13.44 12.51 13.44 12.51-5.55 12.51-13.44z"/><path fill="#fbbc05" d="M163.39 46.71a22.25 22.25 0 01-44.5 0 22.25 22.25 0 0144.5 0zm-9.74 0c0-8-5.79-13.44-12.51-13.44s-12.51 5.46-12.51 13.44 5.79 13.44 12.51 13.44 12.51-5.55 12.51-13.44z"/><path fill="#4285f4" d="M209.39 25.87v39.82c0 16.38-9.66 23.07-21.08 23.07a21.12 21.12 0 01-19.66-13.07l8.48-3.53c1.51 3.61 5.21 7.87 11.17 7.87 7.31 0 11.84-4.51 11.84-13v-3.19h-.34a15.1 15.1 0 01-11.68 5c-11.09 0-21.25-9.66-21.25-22.09S177 24.53 188.12 24.53a15.37 15.37 0 0111.68 5h.34v-3.65h9.25zm-8.56 20.92c0-7.81-5.21-13.52-11.84-13.52S176.64 39 176.64 46.79s5.63 13.36 12.36 13.36 11.83-5.63 11.83-13.36z"/><path fill="#34a853" d="M224.64 2.53v65h-9.5v-65z"/><path fill="#ea4335" d="M261.66 54l7.56 5a22.08 22.08 0 01-18.48 9.83c-12.6 0-22-9.74-22-22.18 0-13.19 9.49-22.18 20.92-22.18s17.14 9.16 19 14.11l1 2.52L240 53.43c2.27 4.45 5.8 6.72 10.75 6.72s8.4-2.44 10.92-6.14zm-23.27-8l19.82-8.23c-1.09-2.77-4.37-4.7-8.23-4.7A12.17 12.17 0 00238.39 46z"/><path fill="#4285f4" d="M34.93 40.94v-9.41h31.71a31.18 31.18 0 01.47 5.68c0 7.06-1.93 15.79-8.15 22-6.05 6.3-13.78 9.66-24 9.66C16 68.88 0 53.42 0 34.44S16 0 34.94 0a32.82 32.82 0 0123.6 9.49l-6.64 6.64a24 24 0 00-17-6.72 24.7 24.7 0 00-24.7 25 24.7 24.7 0 0024.7 25c9 0 14.11-3.61 17.39-6.89 2.66-2.66 4.41-6.46 5.1-11.65z"/></symbol><symbol viewBox="0 0 557.46 127.55" id="houzz" xmlns="http://www.w3.org/2000/svg"><path fill="#4dbc15" d="M70.28 125.84h42.22V54.36L28 30.13V0H0v125.84h42.22V86.22h28.06z"/><path d="M312.93 64.24A37.67 37.67 0 00251.68 76a36.28 36.28 0 00-2.91 14.46 36.7 36.7 0 0010.87 26.29 37.86 37.86 0 0011.9 7.89 38.85 38.85 0 0029.47 0 37.86 37.86 0 0011.9-7.89 36.7 36.7 0 0010.89-26.29A36.28 36.28 0 00320.89 76a37.85 37.85 0 00-8-11.76zm-7.16 35.28a20.22 20.22 0 01-4.15 7 19.17 19.17 0 01-6.56 4.55 23.86 23.86 0 01-17.55 0 19.17 19.17 0 01-6.56-4.55 20.25 20.25 0 01-4.16-7 28.17 28.17 0 010-18.14 20.25 20.25 0 014.16-7 19.17 19.17 0 016.56-4.55 23.76 23.76 0 0117.55 0 19.17 19.17 0 016.56 4.55 20.38 20.38 0 014.15 7 28.17 28.17 0 010 18.14zm175.65-31v-13.4H425.6v13.95h35.67l-37 43.28v13.5h59.12V111.9h-39.2l37.23-43.42zm36.8 43.42l37.23-43.42v-13.4h-55.82v13.95h35.67l-37 43.28v13.5h59.12V111.9zM215.81 55.76c-10.44-4.32-23.25-2.54-31.54 4.14V30.13h-15.66v95.71h15.67V88.21c0-7.16 2.06-19.17 15.83-19.17 12.64 0 17.13 10.33 17.13 19.17v37.62h15.65V83.06c0-12.86-6.23-22.81-17.08-27.3zm175 38a25.43 25.43 0 01-.91 6.55 18 18 0 01-2.94 6 15.28 15.28 0 01-5.27 4.41 20.32 20.32 0 01-16.25 0 15.28 15.28 0 01-5.27-4.41 17.76 17.76 0 01-2.94-6 25.44 25.44 0 01-.92-6.55V55h-15.59v40.3c0 15 6.62 25 19.95 30a37.8 37.8 0 0025.86-.06c16.36-6.18 19.79-19.72 19.79-30V55.17h-15.56z"/></symbol><symbol viewBox="0 0 601.19 340.87" id="logo" xmlns="http://www.w3.org/2000/svg"><path fill="#0ea0c2" d="M12.61 117.88l-8.48-31a.66.66 0 010-.28c0-.42.24-.66.74-.66h6.53a1.09 1.09 0 01.63.22.84.84 0 01.3.55l3.92 16.44a.21.21 0 00.21.19c.09 0 .13 0 .15-.19l3.79-16.43a.83.83 0 01.81-.62h5.55a.89.89 0 01.93.77l4.11 16.35a.21.21 0 00.21.19c.09 0 .13 0 .15-.19l3.64-16.44a.8.8 0 01.3-.55 1 1 0 01.64-.21h6.35a.87.87 0 01.64.23.78.78 0 010 .7L36 117.88a.87.87 0 01-.93.74H29a1 1 0 01-.63-.19.78.78 0 01-.3-.55l-3.96-17.48a.21.21 0 00-.19-.23c-.09 0-.15 0-.19.23l-3.54 17.48a.81.81 0 01-.86.75h-5.81a.84.84 0 01-.91-.75zm38.26.53a.74.74 0 01-.24-.59V86.87a.81.81 0 01.77-.87h6.12a.81.81 0 01.61.23.89.89 0 01.24.62v31a.81.81 0 01-.24.59.75.75 0 01-.61.24h-6.06a.73.73 0 01-.59-.27zm16.35 0a.81.81 0 01-.23-.59V86.87a.93.93 0 01.23-.62.85.85 0 01.6-.15h5.74a1 1 0 011 .58L84.79 104c0 .13.14.17.23.15s.15-.12.15-.27V86.93a.8.8 0 01.76-.85h6a.8.8 0 01.82.78v31a.8.8 0 01-.78.83h-5.74a1.13 1.13 0 01-1-.55L75 100.59c0-.17-.09-.23-.26-.19s-.17.13-.17.28v17.2a.79.79 0 01-.78.83h-6a.77.77 0 01-.57-.3zm34.34 0a.81.81 0 01-.23-.59V86.87a.81.81 0 01.76-.85h11.7a15.4 15.4 0 016.35 1.27 9.91 9.91 0 014.24 3.58 9.61 9.61 0 011.53 5.36v12.22a9.59 9.59 0 01-1.53 5.36 10 10 0 01-4.24 3.58 15.22 15.22 0 01-6.35 1.25h-11.61a.8.8 0 01-.62-.23zm7.84-6.35h4.71a3.87 3.87 0 003-1.34 5.28 5.28 0 001.2-3.56v-9.62a5.12 5.12 0 00-1.15-3.54 4 4 0 00-3.1-1.31h-4.66a.27.27 0 00-.32.22v18.85a.27.27 0 00.23.31.14.14 0 00.09 0zm30.45 5.59a11 11 0 01-4.45-4.24 12.59 12.59 0 01-1.59-6.35v-9.33a12.17 12.17 0 011.59-6.35 11.14 11.14 0 014.45-4.24 15.49 15.49 0 0113.3 0 11.11 11.11 0 014.49 4.24 12.47 12.47 0 011.57 6.35v9.33a12.7 12.7 0 01-1.57 6.35 11 11 0 01-4.49 4.24 15.28 15.28 0 01-13.3 0zm10.25-6.55a5.31 5.31 0 001.38-3.88v-9.63a5.3 5.3 0 00-1.38-3.84 5.07 5.07 0 00-7.16 0 5.3 5.3 0 00-1.38 3.84v9.7a5.34 5.34 0 001.38 3.88 4.75 4.75 0 003.56 1.44 4.8 4.8 0 003.56-1.51zm22.31 6.78l-8.48-31a.66.66 0 010-.28c0-.42.26-.66.77-.66h6.52a1.09 1.09 0 01.62.22.9.9 0 01.31.55l3.9 16.44c0 .12.15.19.21.19s.15 0 .17-.19l3.77-16.44a.86.86 0 01.93-.77h5.56a.9.9 0 01.93.77l4.11 16.44a.21.21 0 00.21.19c.09 0 .13 0 .15-.19l3.64-16.44a.78.78 0 01.3-.55 1.05 1.05 0 01.64-.22H203a.88.88 0 01.64.24.82.82 0 01.1.7l-7.86 31a.86.86 0 01-.93.74h-6.21a1 1 0 01-.61-.19.91.91 0 01-.32-.55l-3.9-17.48a.21.21 0 00-.19-.23c-.08 0-.15 0-.19.23l-3.45 17.48a.81.81 0 01-.86.75h-5.81a.85.85 0 01-1-.7zm41.88 0a9.85 9.85 0 01-4.36-3.56 9.46 9.46 0 01-1.53-5.32v-.61a.82.82 0 01.76-.85h6a1.1 1.1 0 01.59.17.52.52 0 01.24.4v.56a3.31 3.31 0 001.52 2.66 6.33 6.33 0 003.88 1.17 4.35 4.35 0 003-.89 2.71 2.71 0 001-2.12 2.2 2.2 0 00-1.14-2 21.28 21.28 0 00-4.09-1.63l-1-.32a36.94 36.94 0 01-5.23-2.12 11.37 11.37 0 01-3.81-3.18 7.82 7.82 0 01-1.59-5 8.48 8.48 0 011.53-5.06 9.43 9.43 0 014.23-3.33 16.42 16.42 0 0112.44.13 10.81 10.81 0 014.51 3.69 9.49 9.49 0 011.63 5.46v.36a.84.84 0 01-.23.62.93.93 0 01-.62.23h-5.91a1.18 1.18 0 01-.61-.13.35.35 0 01-.23-.33v-.43a3.81 3.81 0 00-1.44-2.88 5.7 5.7 0 00-3.83-1.28 4.76 4.76 0 00-2.84.74 2.49 2.49 0 00-1 2.12 2.38 2.38 0 00.66 1.72 6.13 6.13 0 002.12 1.25c.93.38 2.33.88 4.24 1.52s3.87 1.4 5.08 2a10.12 10.12 0 013.43 2.73 7.44 7.44 0 011.61 5 8.74 8.74 0 01-1.54 5.15 9.81 9.81 0 01-4.24 3.43 18 18 0 01-13 0zM273 101.82c0 .11 0 .17.19.24a7.67 7.67 0 014.24 7.37 8 8 0 01-3.22 6.95 14.36 14.36 0 01-8.48 2.26h-12.1a.73.73 0 01-.59-.23.78.78 0 01-.23-.59V86.87a.89.89 0 01.23-.62.81.81 0 01.59-.23h11.76a14.3 14.3 0 018.6 2.12 8 8 0 012.91 6.92 6.74 6.74 0 01-3.63 6.49c-.17.1-.27.19-.27.27zM260.6 93v5.7c0 .21.11.31.34.31h4.52a4.73 4.73 0 002.94-.8 2.82 2.82 0 001-2.31 2.94 2.94 0 00-1-2.39 4.61 4.61 0 00-2.94-.83h-4.52c-.34-.03-.34.08-.34.32zm8.12 18.15a3.06 3.06 0 001-2.5 3 3 0 00-1-2.43 4.21 4.21 0 00-2.9-.87h-4.9a.29.29 0 00-.34.25v6.08a.3.3 0 00.25.34.14.14 0 00.09 0h4.9a4.33 4.33 0 002.77-.87zm21.8 7.18a.89.89 0 01-.24-.62v-10.59a1.48 1.48 0 000-.42l-9.36-19.62v-.38c0-.41.25-.62.74-.62h6.48a1 1 0 011 .66L294 98.16a.27.27 0 00.26.19c.11 0 .17-.07.19-.19l5-11.42a1 1 0 011-.66H307a1 1 0 01.55.17.53.53 0 01.19.4.79.79 0 010 .43l-9.51 19.62a1.48 1.48 0 000 .42v10.59a.81.81 0 01-.76.85h-6.38a.86.86 0 01-.57-.23z"/><path fill="#145066" d="M184.34 263.26h-6.8a.12.12 0 00-.13.12v4a.1.1 0 00.08.13h4.28a.3.3 0 01.32.28v2.5a.29.29 0 01-.3.29h-4.25a.13.13 0 00-.13.13v4.09a.1.1 0 00.08.13h6.85a.28.28 0 01.31.27v2.5a.29.29 0 01-.27.32h-10.26a.29.29 0 01-.29-.3v-17.2a.3.3 0 01.29-.3h10.22a.3.3 0 01.31.28v2.5a.3.3 0 01-.29.3zm6.2 14.4v-17.18a.31.31 0 01.3-.3h3a.44.44 0 01.36.24l4.87 10.12c0 .11.15 0 .15 0v-10a.29.29 0 01.3-.29h2.94a.29.29 0 01.32.27v17.2a.3.3 0 01-.28.32h-3a.38.38 0 01-.36-.23l-4.87-10.21h-.17v10.08a.29.29 0 01-.27.32h-3a.3.3 0 01-.29-.34zm30.07-17.18V263a.31.31 0 01-.3.3h-3.88a.11.11 0 00-.1.12v14.26a.3.3 0 01-.28.32h-3a.31.31 0 01-.32-.27V263.4a.12.12 0 00-.12-.12h-3.73a.3.3 0 01-.3-.3v-2.5a.3.3 0 01.3-.3h11.48a.31.31 0 01.25.3zm16.39 2.78h-6.82a.13.13 0 00-.11.12v4s0 .13.11.13h4.24a.29.29 0 01.29.3v2.48a.29.29 0 01-.29.29h-4.24a.14.14 0 00-.11.13v4.09s0 .13.11.13H237a.3.3 0 01.3.29v2.48a.3.3 0 01-.28.32h-10.31a.29.29 0 01-.32-.27v-17.27a.3.3 0 01.29-.3h10.24a.3.3 0 01.29.3V263a.29.29 0 01-.21.26zm14.24 14.47l-2.56-7H247a.12.12 0 00-.13.08v7a.3.3 0 01-.27.32h-2.9a.27.27 0 01-.3-.25.08.08 0 010-.07v-17.35a.29.29 0 01.25-.3h6.25A5 5 0 01255 265a4.51 4.51 0 010 .52 4.76 4.76 0 01-2.76 4.62.14.14 0 000 .17l2.89 7.31c0 .23 0 .36-.26.36h-3.09a.35.35 0 01-.48-.17.41.41 0 01-.06-.08zm-4.41-14.35v4.24a.12.12 0 00.08.13h2.17a2.29 2.29 0 100-4.58H247a.13.13 0 00-.16.08.14.14 0 00-.01.13zm25.6 2.25a5 5 0 01-4.61 5.29h-3.32a.12.12 0 00-.13.12v6.61a.29.29 0 01-.27.32h-3a.31.31 0 01-.32-.27v-17.24a.31.31 0 01.3-.3h6.16a5.07 5.07 0 015.21 4.92c-.01.18-.01.37-.02.55zm-3.59 0a2.11 2.11 0 00-1.77-2.41h-2.46a.13.13 0 00-.13.13v4.58a.1.1 0 00.08.12h2.17a2.12 2.12 0 002.13-2.11 1.8 1.8 0 000-.22zm17.33 12.1l-2.56-7h-1.82a.13.13 0 00-.13.13v6.93a.31.31 0 01-.27.32h-3a.3.3 0 01-.32-.28v-17.37a.3.3 0 01.3-.3h6.21a5 5 0 015.12 4.84 4.51 4.51 0 010 .52 4.78 4.78 0 01-2.73 4.62.14.14 0 000 .17l2.9 7.31c0 .23 0 .36-.25.36h-3.1a.35.35 0 01-.35-.25zm-4.38-14.35v4.24a.13.13 0 00.13.13h2.22a2.29 2.29 0 100-4.58h-2.35a.13.13 0 000 .18zm14 14.28v-17.18a.31.31 0 01.3-.3h3a.3.3 0 01.29.3v17.18a.29.29 0 01-.27.32h-3a.3.3 0 01-.3-.3zm9.64-4.47v-.65a.3.3 0 01.28-.32h2.94a.29.29 0 01.3.29v.49a2.12 2.12 0 002.1 2.14h.29a1.78 1.78 0 002.09-1.4 1.8 1.8 0 000-.4c0-1.21-1-1.74-3.09-2.8s-4.83-2.45-4.83-5.63a4.93 4.93 0 014.94-4.93 3.9 3.9 0 01.59 0 5.24 5.24 0 015.79 4.65 4.41 4.41 0 010 .52v.5a.29.29 0 01-.29.3h-3a.29.29 0 01-.32-.27v-.49a2.11 2.11 0 00-2.11-2.13h-.22a1.72 1.72 0 00-1.94 1.46v.32c0 1.18.85 1.71 3.14 2.86s4.8 2.46 4.8 5.44-2.28 5-5.74 5-5.72-1.98-5.72-4.95zm27.95-9.93h-6.8a.12.12 0 00-.13.12v4a.1.1 0 00.08.13h4.28a.3.3 0 01.32.28v2.5a.29.29 0 01-.3.29h-4.25a.13.13 0 00-.13.13v4.09a.1.1 0 00.08.13h6.85a.28.28 0 01.31.27v2.5a.29.29 0 01-.27.32h-10.26a.29.29 0 01-.29-.3v-17.2a.3.3 0 01.29-.3h10.22a.3.3 0 01.31.28v2.5a.3.3 0 01-.29.3zm5.86 9.93v-.65a.3.3 0 01.28-.32h2.94a.29.29 0 01.3.29v.49a2.12 2.12 0 002.1 2.14h.29a1.78 1.78 0 002.09-1.4 1.35 1.35 0 000-.4c0-1.21-1-1.74-3.09-2.8s-4.83-2.45-4.83-5.63a4.94 4.94 0 014.94-4.93 3.9 3.9 0 01.59 0 5.24 5.24 0 015.79 4.65v1.02a.3.3 0 01-.3.3h-3a.29.29 0 01-.31-.27v-.49a2.12 2.12 0 00-2.11-2.13h-.22a1.69 1.69 0 00-1.95 1.78c0 1.18.84 1.71 3.13 2.86s4.81 2.46 4.81 5.44-2.29 5-5.74 5-5.71-1.98-5.71-4.95zm-131.24-78a98.37 98.37 0 01-2.12 22.5 33.56 33.56 0 01-7.56 15.12 31.14 31.14 0 01-14 8.48 73.84 73.84 0 01-21.78 2.71 51.22 51.22 0 01-14.73-1.82 27.86 27.86 0 01-9.89-5.15v37.71l-25.21 5.42v-95.33a79.93 79.93 0 012.73-22.67 33.15 33.15 0 018.47-14.83 33.49 33.49 0 0115.09-8.05 87.44 87.44 0 0121.88-2.28 86.19 86.19 0 0121.53 2.33 31.32 31.32 0 0114.64 8.05 33.55 33.55 0 018.32 15.1A88.66 88.66 0 01208 186zm-47.88 28.62a53.33 53.33 0 0011.34-1 11.36 11.36 0 006.77-4.06 18.47 18.47 0 003.31-8.65 99.21 99.21 0 00.87-14.62v-9.83a90.88 90.88 0 00-1-14.83 18.58 18.58 0 00-3.39-8.62 11.47 11.47 0 00-6.78-4 52 52 0 00-11.14-1 50.69 50.69 0 00-11.06 1 12.24 12.24 0 00-6.78 3.86 17.09 17.09 0 00-3.49 8.47 85 85 0 00-1 14.43v13.77a60.28 60.28 0 001.08 12.5 16.39 16.39 0 003.58 7.75 13 13 0 006.78 3.88 45.63 45.63 0 0010.91.95zm-110.78-87.9a92.82 92.82 0 0122.59 2.37 33.8 33.8 0 0115.25 8 32.49 32.49 0 018.62 15.15 89.38 89.38 0 012.67 23.77v10.7a89.38 89.38 0 01-2.67 23.8 32.49 32.49 0 01-8.62 15.15 33.89 33.89 0 01-15.25 8 92.82 92.82 0 01-22.59 2.37 93.24 93.24 0 01-22.77-2.37 33.88 33.88 0 01-15.26-8 32.71 32.71 0 01-8.62-15.15A89.38 89.38 0 010 195.93v-10.7a89.38 89.38 0 012.67-23.77 32.71 32.71 0 018.62-15.15 33.78 33.78 0 0115.26-8 93.24 93.24 0 0122.79-2.4zm23 48.92a88.58 88.58 0 00-1-14.83 18.41 18.41 0 00-3.45-8.63 12.18 12.18 0 00-6.95-4 55 55 0 00-11.59-1 57.09 57.09 0 00-11.67 1 12.19 12.19 0 00-7 4 18.17 18.17 0 00-3.52 8.63 88.57 88.57 0 00-1 14.83v11.69a86.64 86.64 0 001 14.66 18 18 0 003.48 8.48 12.05 12.05 0 007 4 56.39 56.39 0 0011.67 1 55 55 0 0011.59-1 12.07 12.07 0 006.95-4 18.29 18.29 0 003.45-8.48 86.64 86.64 0 001-14.66zm236.04 37.9q0 10.25-4.66 14.23t-16.08 4H256q-20.74 0-29.37-7.76T218 210.91v-4.24q0-16.08 9.49-23.3t29.66-7.27a71.69 71.69 0 0116.85 1.65 34.34 34.34 0 019.94 3.69v-3.5a31 31 0 00-1.06-8.73 11.18 11.18 0 00-3.58-5.53 15 15 0 00-6.91-2.79 62.71 62.71 0 00-10.95-.79h-17.19l-9 .22h-8.13l4.06-20.32c3.62-.13 8.13-.22 13.58-.3s11.35 0 17.81 0q23.69 0 34.71 8.35t11.05 26.16zm-24.43 0V207a22.63 22.63 0 00-.68-5.91 7.25 7.25 0 00-2.82-4 14.13 14.13 0 00-6-2.12 60 60 0 00-10.28-.7h-2.92q-11 0-14.83 2.73c-2.61 1.8-3.9 5.11-3.9 9.87v3.69a11.39 11.39 0 003.6 9.22q3.59 3 13.29 3zm41.33-127.67l25.19-5.46V241h-25.19zm274.21-77.18v-.76l-3-1.57A181.06 181.06 0 00479.24 5.38a158.05 158.05 0 0122.87-2.27 162.72 162.72 0 0172.81 15.17l1.39.66.79.4V313.6l-40.59-7.34L400 281.6l199.7 58.85 1.49.42z"/><path fill="#0e9cbe" d="M443.62 37.15c-2.52 1.06-5 2.18-7.4 3.36-2.37 1.19-4.64 2.37-6.86 3.61l-.45.25-3 1.75-1 .64-2.16 1.24h-.24a3.94 3.94 0 00-.61.39l-1.24.79-.67.45L418 51l-2.64 1.82c-1 .7-1.94 1.36-2.85 2.06h-.15l-.64.46-.55.42-.42.31a174 174 0 00-23.54 21.53l-.31.43-.48.7v78.87l10.59-.76 54.6-3.88V34.11h-.39c-2.68 1.03-5.17 2-7.6 3.04zM386.2 260.48l10.58 1.52 20.22 3 34.55 4.92V172l-65.31 2.43zM555.41 39l-2.49-1-.84-.34c-.67-.27-1.37-.54-2.1-.79l-.94-.36c-2.06-.73-4.34-1.52-6.79-2.28l-.73-.24-3.79-1.12h-.61c-1.21-.37-2.49-.7-3.76-1l-.67-.18-4.31-1-.94-.18-4.7-1A136.91 136.91 0 00494.1 27c-2.45 0-4.91 0-7.43.25-2.52.18-5.07.39-7.61.69h-.91c-2.25.31-4.49.64-6.77 1l-1.49.27-3.61.76c-1.24.27-2.48.54-3.73.88V31c-1.42.36-2.85.73-4.27 1.15l-1.28.4-3 .91v-.31l-2 .88h1.76l.34.15h.6l.37.19.33.18.4.24.36.21.43.28.39.24.49.33.42.28.67.48.27.24.64.46.42.33.49.43.63.51.52.43.7.6.51.46.76.67 1.37 1.27v110.41l10.58-.72 79.87-5.7V39zm-90.52 132.47l-13.35.52a56.65 56.65 0 019.89 8.46h.67v.67l2.79 2.79v87.74l10.59 1.51 24 3.4 36.41 5.22 19.41 2.76V168.11l-90.52 3.36z"/><path fill="#508a9a" d="M443.62 37.15c-2.52 1.06-5 2.18-7.4 3.36-2.37 1.19-4.64 2.37-6.86 3.61l-.45.25-3 1.75-1 .64-2.16 1.24h-.24a3.94 3.94 0 00-.61.39l-1.24.79-.67.45L418 51l-2.64 1.82c-1 .7-1.94 1.36-2.85 2.06h-.15l-.64.46-.55.42-.42.31a174 174 0 00-23.54 21.53l-.31.43-.48.7v78.87l10.59-.76V87.32a173.47 173.47 0 0124.22-22.42l.37-.45.54-.4.64-.48c1.79-1.34 3.7-2.67 5.67-4l2.67-1.82 1.25-.78.42-.28.43-.24c2-1.3 4.18-2.55 6.37-3.79h.27c2.19-1.22 4.49-2.43 6.83-3.58h.15l4.73-2.16V34.11h-.39c-2.64 1.03-5.13 2-7.56 3.04zM386.2 260.48l10.58 1.52v-79.24l54.61-2V172l-65.32 2.43zM555.41 39l-2.49-1-.84-.34c-.67-.27-1.37-.54-2.1-.79l-.94-.36c-2.06-.73-4.34-1.52-6.79-2.28l-.73-.24-3.79-1.12h-.61c-1.21-.37-2.49-.7-3.76-1l-.67-.18-4.31-1-.94-.18-4.7-1A136.91 136.91 0 00494.1 27c-2.45 0-4.91 0-7.43.25-2.52.18-5.07.39-7.61.69h-.91c-2.25.31-4.49.64-6.77 1l-1.49.27-3.61.76c-1.24.27-2.48.54-3.73.88V31c-1.42.36-2.85.73-4.27 1.15l-1.28.4-3 .91v-.31l-2 .88h1.76l.34.15h.6l.37.19.33.18.4.24.36.21.43.28.39.24.49.33.42.28.67.48.27.24.64.46.42.33.49.43.63.51.52.43.7.6.51.46.76.67 1.37 1.27v110.41l10.58-.72v-113l4.86-1 1.49-.27c2.27-.43 4.55-.76 6.79-1h1a142.52 142.52 0 0115.17-1 134.66 134.66 0 0128.61 2.54 163.19 163.19 0 0122.08 5.65v-4.68zm-90.52 132.47l-13.35.52a56.65 56.65 0 019.89 8.46h.67v.67l2.79 2.79v87.74l10.59 1.51v-93.22l79.93-3v-8.79l-90.52 3.36z"/></symbol><symbol viewBox="0 0 601.19 340.87" id="logo_white" xmlns="http://www.w3.org/2000/svg"><path fill="#fff" d="M12.61 117.88l-8.48-31a.66.66 0 010-.28c0-.42.24-.66.74-.66h6.53a1.09 1.09 0 01.63.22.84.84 0 01.3.55l3.92 16.44a.21.21 0 00.21.19c.09 0 .13 0 .15-.19l3.79-16.43a.83.83 0 01.81-.62h5.55a.89.89 0 01.93.77l4.11 16.35a.21.21 0 00.21.19c.09 0 .13 0 .15-.19l3.64-16.44a.8.8 0 01.3-.55 1 1 0 01.64-.21h6.35a.87.87 0 01.64.23.78.78 0 010 .7L36 117.88a.87.87 0 01-.93.74H29a1 1 0 01-.63-.19.78.78 0 01-.3-.55l-3.96-17.48a.21.21 0 00-.19-.23c-.09 0-.15 0-.19.23l-3.54 17.48a.81.81 0 01-.86.75h-5.81a.84.84 0 01-.91-.75zm38.26.53a.74.74 0 01-.24-.59V86.87a.81.81 0 01.77-.87h6.12a.81.81 0 01.61.23.89.89 0 01.24.62v31a.81.81 0 01-.24.59.75.75 0 01-.61.24h-6.06a.73.73 0 01-.59-.27zm16.35 0a.81.81 0 01-.23-.59V86.87a.93.93 0 01.23-.62.85.85 0 01.6-.15h5.74a1 1 0 011 .58L84.79 104c0 .13.14.17.23.15s.15-.12.15-.27V86.93a.8.8 0 01.76-.85h6a.8.8 0 01.82.78v31a.8.8 0 01-.78.83h-5.74a1.13 1.13 0 01-1-.55L75 100.59c0-.17-.09-.23-.26-.19s-.17.13-.17.28v17.2a.79.79 0 01-.78.83h-6a.77.77 0 01-.57-.3zm34.34 0a.81.81 0 01-.23-.59V86.87a.81.81 0 01.76-.85h11.7a15.4 15.4 0 016.35 1.27 9.91 9.91 0 014.24 3.58 9.61 9.61 0 011.53 5.36v12.22a9.59 9.59 0 01-1.53 5.36 10 10 0 01-4.24 3.58 15.22 15.22 0 01-6.35 1.25h-11.61a.8.8 0 01-.62-.23zm7.84-6.35h4.71a3.87 3.87 0 003-1.34 5.28 5.28 0 001.2-3.56v-9.62a5.12 5.12 0 00-1.15-3.54 4 4 0 00-3.1-1.31h-4.66a.27.27 0 00-.32.22v18.85a.27.27 0 00.23.31.14.14 0 00.09 0zm30.45 5.59a11 11 0 01-4.45-4.24 12.59 12.59 0 01-1.59-6.35v-9.33a12.17 12.17 0 011.59-6.35 11.14 11.14 0 014.45-4.24 15.49 15.49 0 0113.3 0 11.11 11.11 0 014.49 4.24 12.47 12.47 0 011.57 6.35v9.33a12.7 12.7 0 01-1.57 6.35 11 11 0 01-4.49 4.24 15.28 15.28 0 01-13.3 0zm10.25-6.55a5.31 5.31 0 001.38-3.88v-9.63a5.3 5.3 0 00-1.38-3.84 5.07 5.07 0 00-7.16 0 5.3 5.3 0 00-1.38 3.84v9.7a5.34 5.34 0 001.38 3.88 4.75 4.75 0 003.56 1.44 4.8 4.8 0 003.56-1.51zm22.31 6.78l-8.48-31a.66.66 0 010-.28c0-.42.26-.66.77-.66h6.52a1.09 1.09 0 01.62.22.9.9 0 01.31.55l3.9 16.44c0 .12.15.19.21.19s.15 0 .17-.19l3.77-16.44a.86.86 0 01.93-.77h5.56a.9.9 0 01.93.77l4.11 16.44a.21.21 0 00.21.19c.09 0 .13 0 .15-.19l3.64-16.44a.78.78 0 01.3-.55 1.05 1.05 0 01.64-.22H203a.88.88 0 01.64.24.82.82 0 01.1.7l-7.86 31a.86.86 0 01-.93.74h-6.21a1 1 0 01-.61-.19.91.91 0 01-.32-.55l-3.9-17.48a.21.21 0 00-.19-.23c-.08 0-.15 0-.19.23l-3.45 17.48a.81.81 0 01-.86.75h-5.81a.85.85 0 01-1-.7zm41.88 0a9.85 9.85 0 01-4.36-3.56 9.46 9.46 0 01-1.53-5.32v-.61a.82.82 0 01.76-.85h6a1.1 1.1 0 01.59.17.52.52 0 01.24.4v.56a3.31 3.31 0 001.52 2.66 6.33 6.33 0 003.88 1.17 4.35 4.35 0 003-.89 2.71 2.71 0 001-2.12 2.2 2.2 0 00-1.14-2 21.28 21.28 0 00-4.09-1.63l-1-.32a36.94 36.94 0 01-5.23-2.12 11.37 11.37 0 01-3.81-3.18 7.82 7.82 0 01-1.59-5 8.48 8.48 0 011.53-5.06 9.43 9.43 0 014.23-3.33 16.42 16.42 0 0112.44.13 10.81 10.81 0 014.51 3.69 9.49 9.49 0 011.63 5.46v.36a.84.84 0 01-.23.62.93.93 0 01-.62.23h-5.91a1.18 1.18 0 01-.61-.13.35.35 0 01-.23-.33v-.43a3.81 3.81 0 00-1.44-2.88 5.7 5.7 0 00-3.83-1.28 4.76 4.76 0 00-2.84.74 2.49 2.49 0 00-1 2.12 2.38 2.38 0 00.66 1.72 6.13 6.13 0 002.12 1.25c.93.38 2.33.88 4.24 1.52s3.87 1.4 5.08 2a10.12 10.12 0 013.43 2.73 7.44 7.44 0 011.61 5 8.74 8.74 0 01-1.54 5.15 9.81 9.81 0 01-4.24 3.43 18 18 0 01-13 0zM273 101.82c0 .11 0 .17.19.24a7.67 7.67 0 014.24 7.37 8 8 0 01-3.22 6.95 14.36 14.36 0 01-8.48 2.26h-12.1a.73.73 0 01-.59-.23.78.78 0 01-.23-.59V86.87a.89.89 0 01.23-.62.81.81 0 01.59-.23h11.76a14.3 14.3 0 018.6 2.12 8 8 0 012.91 6.92 6.74 6.74 0 01-3.63 6.49c-.17.1-.27.19-.27.27zM260.6 93v5.7c0 .21.11.31.34.31h4.52a4.73 4.73 0 002.94-.8 2.82 2.82 0 001-2.31 2.94 2.94 0 00-1-2.39 4.61 4.61 0 00-2.94-.83h-4.52c-.34-.03-.34.08-.34.32zm8.12 18.15a3.06 3.06 0 001-2.5 3 3 0 00-1-2.43 4.21 4.21 0 00-2.9-.87h-4.9a.29.29 0 00-.34.25v6.08a.3.3 0 00.25.34.14.14 0 00.09 0h4.9a4.33 4.33 0 002.77-.87zm21.8 7.18a.89.89 0 01-.24-.62v-10.59a1.48 1.48 0 000-.42l-9.36-19.62v-.38c0-.41.25-.62.74-.62h6.48a1 1 0 011 .66L294 98.16a.27.27 0 00.26.19c.11 0 .17-.07.19-.19l5-11.42a1 1 0 011-.66H307a1 1 0 01.55.17.53.53 0 01.19.4.79.79 0 010 .43l-9.51 19.62a1.48 1.48 0 000 .42v10.59a.81.81 0 01-.76.85h-6.38a.86.86 0 01-.57-.23zM184.34 263.26h-6.8a.12.12 0 00-.13.12v4a.1.1 0 00.08.13h4.28a.3.3 0 01.32.28v2.5a.29.29 0 01-.3.29h-4.25a.13.13 0 00-.13.13v4.09a.1.1 0 00.08.13h6.85a.28.28 0 01.31.27v2.5a.29.29 0 01-.27.32h-10.26a.29.29 0 01-.29-.3v-17.2a.3.3 0 01.29-.3h10.22a.3.3 0 01.31.28v2.5a.3.3 0 01-.29.3zm6.2 14.4v-17.18a.31.31 0 01.3-.3h3a.44.44 0 01.36.24l4.87 10.12c0 .11.15 0 .15 0v-10a.29.29 0 01.3-.29h2.94a.29.29 0 01.32.27v17.2a.3.3 0 01-.28.32h-3a.38.38 0 01-.36-.23l-4.87-10.21h-.17v10.08a.29.29 0 01-.27.32h-3a.3.3 0 01-.29-.34zm30.07-17.18V263a.31.31 0 01-.3.3h-3.88a.11.11 0 00-.1.12v14.26a.3.3 0 01-.28.32h-3a.31.31 0 01-.32-.27V263.4a.12.12 0 00-.12-.12h-3.73a.3.3 0 01-.3-.3v-2.5a.3.3 0 01.3-.3h11.48a.31.31 0 01.25.3zm16.39 2.78h-6.82a.13.13 0 00-.11.12v4s0 .13.11.13h4.24a.29.29 0 01.29.3v2.48a.29.29 0 01-.29.29h-4.24a.14.14 0 00-.11.13v4.09s0 .13.11.13H237a.3.3 0 01.3.29v2.48a.3.3 0 01-.28.32h-10.31a.29.29 0 01-.32-.27v-17.27a.3.3 0 01.29-.3h10.24a.3.3 0 01.29.3V263a.29.29 0 01-.21.26zm14.24 14.47l-2.56-7H247a.12.12 0 00-.13.08v7a.3.3 0 01-.27.32h-2.9a.27.27 0 01-.3-.25.08.08 0 010-.07v-17.35a.29.29 0 01.25-.3h6.25A5 5 0 01255 265a4.51 4.51 0 010 .52 4.76 4.76 0 01-2.76 4.62.14.14 0 000 .17l2.89 7.31c0 .23 0 .36-.26.36h-3.09a.35.35 0 01-.48-.17.41.41 0 01-.06-.08zm-4.41-14.35v4.24a.12.12 0 00.08.13h2.17a2.29 2.29 0 100-4.58H247a.13.13 0 00-.16.08.14.14 0 00-.01.13zm25.6 2.25a5 5 0 01-4.61 5.29h-3.32a.12.12 0 00-.13.12v6.61a.29.29 0 01-.27.32h-3a.31.31 0 01-.32-.27v-17.24a.31.31 0 01.3-.3h6.16a5.07 5.07 0 015.21 4.92c-.01.18-.01.37-.02.55zm-3.59 0a2.11 2.11 0 00-1.77-2.41h-2.46a.13.13 0 00-.13.13v4.58a.1.1 0 00.08.12h2.17a2.12 2.12 0 002.13-2.11 1.8 1.8 0 000-.22zm17.33 12.1l-2.56-7h-1.82a.13.13 0 00-.13.13v6.93a.31.31 0 01-.27.32h-3a.3.3 0 01-.32-.28v-17.37a.3.3 0 01.3-.3h6.21a5 5 0 015.12 4.84 4.51 4.51 0 010 .52 4.78 4.78 0 01-2.73 4.62.14.14 0 000 .17l2.9 7.31c0 .23 0 .36-.25.36h-3.1a.35.35 0 01-.35-.25zm-4.38-14.35v4.24a.13.13 0 00.13.13h2.22a2.29 2.29 0 100-4.58h-2.35a.13.13 0 000 .18zm14 14.28v-17.18a.31.31 0 01.3-.3h3a.3.3 0 01.29.3v17.18a.29.29 0 01-.27.32h-3a.3.3 0 01-.3-.3zm9.64-4.47v-.65a.3.3 0 01.28-.32h2.94a.29.29 0 01.3.29v.49a2.12 2.12 0 002.1 2.14h.29a1.78 1.78 0 002.09-1.4 1.8 1.8 0 000-.4c0-1.21-1-1.74-3.09-2.8s-4.83-2.45-4.83-5.63a4.93 4.93 0 014.94-4.93 3.9 3.9 0 01.59 0 5.24 5.24 0 015.79 4.65 4.41 4.41 0 010 .52v.5a.29.29 0 01-.29.3h-3a.29.29 0 01-.32-.27v-.49a2.11 2.11 0 00-2.11-2.13h-.22a1.72 1.72 0 00-1.94 1.46v.32c0 1.18.85 1.71 3.14 2.86s4.8 2.46 4.8 5.44-2.28 5-5.74 5-5.72-1.98-5.72-4.95zm27.95-9.93h-6.8a.12.12 0 00-.13.12v4a.1.1 0 00.08.13h4.28a.3.3 0 01.32.28v2.5a.29.29 0 01-.3.29h-4.25a.13.13 0 00-.13.13v4.09a.1.1 0 00.08.13h6.85a.28.28 0 01.31.27v2.5a.29.29 0 01-.27.32h-10.26a.29.29 0 01-.29-.3v-17.2a.3.3 0 01.29-.3h10.22a.3.3 0 01.31.28v2.5a.3.3 0 01-.29.3zm5.86 9.93v-.65a.3.3 0 01.28-.32h2.94a.29.29 0 01.3.29v.49a2.12 2.12 0 002.1 2.14h.29a1.78 1.78 0 002.09-1.4 1.35 1.35 0 000-.4c0-1.21-1-1.74-3.09-2.8s-4.83-2.45-4.83-5.63a4.94 4.94 0 014.94-4.93 3.9 3.9 0 01.59 0 5.24 5.24 0 015.79 4.65v1.02a.3.3 0 01-.3.3h-3a.29.29 0 01-.31-.27v-.49a2.12 2.12 0 00-2.11-2.13h-.22a1.69 1.69 0 00-1.95 1.78c0 1.18.84 1.71 3.13 2.86s4.81 2.46 4.81 5.44-2.29 5-5.74 5-5.71-1.98-5.71-4.95zm-131.24-78a98.37 98.37 0 01-2.12 22.5 33.56 33.56 0 01-7.56 15.12 31.14 31.14 0 01-14 8.48 73.84 73.84 0 01-21.78 2.71 51.22 51.22 0 01-14.73-1.82 27.86 27.86 0 01-9.89-5.15v37.71l-25.21 5.42v-95.33a79.93 79.93 0 012.73-22.67 33.15 33.15 0 018.47-14.83 33.49 33.49 0 0115.09-8.05 87.44 87.44 0 0121.88-2.28 86.19 86.19 0 0121.53 2.33 31.32 31.32 0 0114.64 8.05 33.55 33.55 0 018.32 15.1A88.66 88.66 0 01208 186zm-47.88 28.62a53.33 53.33 0 0011.34-1 11.36 11.36 0 006.77-4.06 18.47 18.47 0 003.31-8.65 99.21 99.21 0 00.87-14.62v-9.83a90.88 90.88 0 00-1-14.83 18.58 18.58 0 00-3.39-8.62 11.47 11.47 0 00-6.78-4 52 52 0 00-11.14-1 50.69 50.69 0 00-11.06 1 12.24 12.24 0 00-6.78 3.86 17.09 17.09 0 00-3.49 8.47 85 85 0 00-1 14.43v13.77a60.28 60.28 0 001.08 12.5 16.39 16.39 0 003.58 7.75 13 13 0 006.78 3.88 45.63 45.63 0 0010.91.95zm-110.78-87.9a92.82 92.82 0 0122.59 2.37 33.8 33.8 0 0115.25 8 32.49 32.49 0 018.62 15.15 89.38 89.38 0 012.67 23.77v10.7a89.38 89.38 0 01-2.67 23.8 32.49 32.49 0 01-8.62 15.15 33.89 33.89 0 01-15.25 8 92.82 92.82 0 01-22.59 2.37 93.24 93.24 0 01-22.77-2.37 33.88 33.88 0 01-15.26-8 32.71 32.71 0 01-8.62-15.15A89.38 89.38 0 010 195.93v-10.7a89.38 89.38 0 012.67-23.77 32.71 32.71 0 018.62-15.15 33.78 33.78 0 0115.26-8 93.24 93.24 0 0122.79-2.4zm23 48.92a88.58 88.58 0 00-1-14.83 18.41 18.41 0 00-3.45-8.63 12.18 12.18 0 00-6.95-4 55 55 0 00-11.59-1 57.09 57.09 0 00-11.67 1 12.19 12.19 0 00-7 4 18.17 18.17 0 00-3.52 8.63 88.57 88.57 0 00-1 14.83v11.69a86.64 86.64 0 001 14.66 18 18 0 003.48 8.48 12.05 12.05 0 007 4 56.39 56.39 0 0011.67 1 55 55 0 0011.59-1 12.07 12.07 0 006.95-4 18.29 18.29 0 003.45-8.48 86.64 86.64 0 001-14.66zm236.04 37.9q0 10.25-4.66 14.23t-16.08 4H256q-20.74 0-29.37-7.76T218 210.91v-4.24q0-16.08 9.49-23.3t29.66-7.27a71.69 71.69 0 0116.85 1.65 34.34 34.34 0 019.94 3.69v-3.5a31 31 0 00-1.06-8.73 11.18 11.18 0 00-3.58-5.53 15 15 0 00-6.91-2.79 62.71 62.71 0 00-10.95-.79h-17.19l-9 .22h-8.13l4.06-20.32c3.62-.13 8.13-.22 13.58-.3s11.35 0 17.81 0q23.69 0 34.71 8.35t11.05 26.16zm-24.43 0V207a22.63 22.63 0 00-.68-5.91 7.25 7.25 0 00-2.82-4 14.13 14.13 0 00-6-2.12 60 60 0 00-10.28-.7h-2.92q-11 0-14.83 2.73c-2.61 1.8-3.9 5.11-3.9 9.87v3.69a11.39 11.39 0 003.6 9.22q3.59 3 13.29 3zm41.33-127.67l25.19-5.46V241h-25.19zm274.21-77.18v-.76l-3-1.57A181.06 181.06 0 00479.24 5.38a158.05 158.05 0 0122.87-2.27 162.72 162.72 0 0172.81 15.17l1.39.66.79.4V313.6l-40.59-7.34L400 281.6l199.7 58.85 1.49.42z"/><path fill="#f0f0f0" d="M443.62 37.15c-2.52 1.06-5 2.18-7.4 3.36-2.37 1.19-4.64 2.37-6.86 3.61l-.45.25-3 1.75-1 .64-2.16 1.24h-.24a3.94 3.94 0 00-.61.39l-1.24.79-.67.45L418 51l-2.64 1.82c-1 .7-1.94 1.36-2.85 2.06h-.15l-.64.46-.55.42-.42.31a174 174 0 00-23.54 21.53l-.31.43-.48.7v78.87l10.59-.76 54.6-3.88V34.11h-.39c-2.68 1.03-5.17 2-7.6 3.04zM386.2 260.48l10.58 1.52 20.22 3 34.55 4.92V172l-65.31 2.43zM555.41 39l-2.49-1-.84-.34c-.67-.27-1.37-.54-2.1-.79l-.94-.36c-2.06-.73-4.34-1.52-6.79-2.28l-.73-.24-3.79-1.12h-.61c-1.21-.37-2.49-.7-3.76-1l-.67-.18-4.31-1-.94-.18-4.7-1A136.91 136.91 0 00494.1 27c-2.45 0-4.91 0-7.43.25-2.52.18-5.07.39-7.61.69h-.91c-2.25.31-4.49.64-6.77 1l-1.49.27-3.61.76c-1.24.27-2.48.54-3.73.88V31c-1.42.36-2.85.73-4.27 1.15l-1.28.4-3 .91v-.31l-2 .88h1.76l.34.15h.6l.37.19.33.18.4.24.36.21.43.28.39.24.49.33.42.28.67.48.27.24.64.46.42.33.49.43.63.51.52.43.7.6.51.46.76.67 1.37 1.27v110.41l10.58-.72 79.87-5.7V39zm-90.52 132.47l-13.35.52a56.65 56.65 0 019.89 8.46h.67v.67l2.79 2.79v87.74l10.59 1.51 24 3.4 36.41 5.22 19.41 2.76V168.11l-90.52 3.36z"/><path fill="#fff" d="M443.62 37.15c-2.52 1.06-5 2.18-7.4 3.36-2.37 1.19-4.64 2.37-6.86 3.61l-.45.25-3 1.75-1 .64-2.16 1.24h-.24a3.94 3.94 0 00-.61.39l-1.24.79-.67.45L418 51l-2.64 1.82c-1 .7-1.94 1.36-2.85 2.06h-.15l-.64.46-.55.42-.42.31a174 174 0 00-23.54 21.53l-.31.43-.48.7v78.87l10.59-.76V87.32a173.47 173.47 0 0124.22-22.42l.37-.45.54-.4.64-.48c1.79-1.34 3.7-2.67 5.67-4l2.67-1.82 1.25-.78.42-.28.43-.24c2-1.3 4.18-2.55 6.37-3.79h.27c2.19-1.22 4.49-2.43 6.83-3.58h.15l4.73-2.16V34.11h-.39c-2.64 1.03-5.13 2-7.56 3.04zM386.2 260.48l10.58 1.52v-79.24l54.61-2V172l-65.32 2.43zM555.41 39l-2.49-1-.84-.34c-.67-.27-1.37-.54-2.1-.79l-.94-.36c-2.06-.73-4.34-1.52-6.79-2.28l-.73-.24-3.79-1.12h-.61c-1.21-.37-2.49-.7-3.76-1l-.67-.18-4.31-1-.94-.18-4.7-1A136.91 136.91 0 00494.1 27c-2.45 0-4.91 0-7.43.25-2.52.18-5.07.39-7.61.69h-.91c-2.25.31-4.49.64-6.77 1l-1.49.27-3.61.76c-1.24.27-2.48.54-3.73.88V31c-1.42.36-2.85.73-4.27 1.15l-1.28.4-3 .91v-.31l-2 .88h1.76l.34.15h.6l.37.19.33.18.4.24.36.21.43.28.39.24.49.33.42.28.67.48.27.24.64.46.42.33.49.43.63.51.52.43.7.6.51.46.76.67 1.37 1.27v110.41l10.58-.72v-113l4.86-1 1.49-.27c2.27-.43 4.55-.76 6.79-1h1a142.52 142.52 0 0115.17-1 134.66 134.66 0 0128.61 2.54 163.19 163.19 0 0122.08 5.65v-4.68zm-90.52 132.47l-13.35.52a56.65 56.65 0 019.89 8.46h.67v.67l2.79 2.79v87.74l10.59 1.51v-93.22l79.93-3v-8.79l-90.52 3.36z"/></symbol><symbol viewBox="0 0 28 18" id="mark" xmlns="http://www.w3.org/2000/svg"><path d="M7.337 13.68L1.834 8.26 0 10.067l7.337 7.227L23.059 1.807 21.225 0 7.337 13.68z"/><path d="M12.278 13.68L6.775 8.26l-1.834 1.807 7.337 7.227L28 1.807 26.166 0 12.278 13.68z"/></symbol><symbol viewBox="0 0 270.37 267.6" id="phone" xmlns="http://www.w3.org/2000/svg"><path d="M146.86 201.05a328.67 328.67 0 01-44.37-37.29 331.5 331.5 0 01-33.71-39.34 23 23 0 012.39-29.87l28.16-28.16a10.84 10.84 0 000-15.33l-48-48A10.89 10.89 0 0043.69 0h-.43a10.85 10.85 0 00-7.68 3.16L20.39 18.35A68.26 68.26 0 003.33 88.06 239 239 0 0033 147.2a307.78 307.78 0 0038.83 47.28 304.87 304.87 0 0052 41.81 226.87 226.87 0 0065.88 29.44 68.24 68.24 0 0064.42-18.43l13.06-13.06a10.84 10.84 0 000-15.33l-48-48a10.83 10.83 0 00-15.32 0l-27.48 27.57a23.13 23.13 0 01-29.53 2.57z"/></symbol><symbol viewBox="0 0 18 18" id="search" xmlns="http://www.w3.org/2000/svg"><path d="M12.5 11h-.79l-.28-.27A6.471 6.471 0 0013 6.5 6.5 6.5 0 106.5 13c1.61 0 3.09-.59 4.23-1.57l.27.28v.79l5 4.99L17.49 16l-4.99-5zm-6 0C4.01 11 2 8.99 2 6.5S4.01 2 6.5 2 11 4.01 11 6.5 8.99 11 6.5 11z"/></symbol><symbol viewBox="0 0 19 9" fill="none" stroke="#3D5867" stroke-linecap="round" stroke-linejoin="round" id="width_height" xmlns="http://www.w3.org/2000/svg"><path d="M14.03 7.941l3.619-3.428-3.62-3.442m-9.047 6.87L1.363 4.513l3.62-3.442M17.643 4.5H1.357"/></symbol></svg>