<svg xmlns="http://www.w3.org/2000/svg"><symbol viewBox="0 0 21 21" id="airplane" xmlns="http://www.w3.org/2000/svg"><path d="M.946 7.315c-.522-.174-.527-.455.01-.634L20.043.319c.529-.176.832.12.684.638l-5.454 19.086c-.15.529-.455.547-.68.045L11 12l6-8-8 6L.946 7.315z"/></symbol><symbol viewBox="0 0 44 44" id="arrow_spoiler" xmlns="http://www.w3.org/2000/svg"><path d="M22 0a22 22 0 1022 22A22 22 0 0022 0zm9.41 26.4a2 2 0 01-2.82 0L22 19.81l-6.59 6.59a2 2 0 01-2.82-2.83L22 14.16l9.41 9.41a2 2 0 010 2.83z"/></symbol><symbol viewBox="0 0 27 24" id="arrow_swiper" xmlns="http://www.w3.org/2000/svg"><path d="M26.06 13.06a1.5 1.5 0 000-2.12l-9.545-9.547a1.5 1.5 0 10-2.122 2.122L22.88 12l-8.486 8.485a1.5 1.5 0 102.122 2.122l9.546-9.546zM0 13.5h25v-3H0v3z"/></symbol><symbol viewBox="0 0 93 102" id="benefits_evening" xmlns="http://www.w3.org/2000/svg"><path d="M8.664 17.266l-.08 3.408 3.297 1.19-3.346.916-.08 3.408-1.987-2.842-3.346.916L5.24 21.59l-1.988-2.843 3.296 1.191 2.117-2.672zm63.863 35.311l1.85 1.446 2.278-.458-1.413 1.843.486 2.298-1.85-1.446-2.278.458 1.413-1.843-.486-2.298zm9.433-35.495l.617 1.908 1.985-.541-1.393 1.476 1.472 1.398-2.011-.43-.512 1.939-.618-1.909-1.985.542 1.393-1.477-1.472-1.398 2.011.431.512-1.94z"/><path d="M66.712 76.109l6.697-4.578-16.485-1.219A19.96 19.96 0 0144.8 35.792l.517-.48a21.34 21.34 0 0121.61-4.51l2.833.997-1.87-2.547c-8.248-11.234-23.51-14.678-35.783-8.075a27.957 27.957 0 00-8.97 7.65l-2.843 3.72a31.076 31.076 0 00-4.453 8.092 26.882 26.882 0 004.243 26.136l2.186 2.726c10.81 13.48 30.178 16.36 44.442 6.608z"/></symbol><symbol viewBox="0 0 71 52" id="benefits_experience" xmlns="http://www.w3.org/2000/svg"><path d="M24.048 1.6V52H9.792V12.616H.432V1.6h23.616zM70.58 40.696V52H31.34v-8.928l18.864-17.64c1.824-1.728 3.048-3.192 3.672-4.392.624-1.248.936-2.496.936-3.744 0-1.632-.552-2.904-1.656-3.816-1.104-.912-2.712-1.368-4.824-1.368-1.872 0-3.6.432-5.184 1.296-1.536.816-2.808 2.016-3.816 3.6l-10.584-5.904c1.968-3.264 4.728-5.832 8.28-7.704C40.58 1.528 44.78.592 49.628.592c3.84 0 7.224.624 10.152 1.872 2.976 1.248 5.28 3.048 6.912 5.4 1.68 2.304 2.52 4.992 2.52 8.064 0 2.736-.6 5.328-1.8 7.776-1.152 2.4-3.408 5.136-6.768 8.208l-9.504 8.784h19.44z"/></symbol><symbol viewBox="0 0 80.13 80.13" id="benefits_group" xmlns="http://www.w3.org/2000/svg"><path d="M48.355 17.922c3.705 2.323 6.303 6.254 6.776 10.817a11.69 11.69 0 004.966 1.112c6.491 0 11.752-5.261 11.752-11.751 0-6.491-5.261-11.752-11.752-11.752-6.429.002-11.644 5.169-11.742 11.574zm-7.699 24.062c6.491 0 11.752-5.262 11.752-11.752s-5.262-11.751-11.752-11.751c-6.49 0-11.754 5.262-11.754 11.752s5.264 11.751 11.754 11.751zm4.985.801h-9.972c-8.297 0-15.047 6.751-15.047 15.048v12.195l.031.191.84.263c7.918 2.474 14.797 3.299 20.459 3.299 11.059 0 17.469-3.153 17.864-3.354l.785-.397h.084V57.833c.003-8.297-6.747-15.048-15.044-15.048zm19.443-12.132h-9.895a14.483 14.483 0 01-4.47 10.088c7.375 2.193 12.771 9.032 12.771 17.11v3.758c9.77-.358 15.4-3.127 15.771-3.313l.785-.398h.084V45.699c0-8.296-6.75-15.046-15.046-15.046zm-45.049-.8c2.299 0 4.438-.671 6.25-1.814a14.544 14.544 0 015.467-9.276c.012-.22.033-.438.033-.66 0-6.491-5.262-11.752-11.75-11.752-6.492 0-11.752 5.261-11.752 11.752 0 6.488 5.26 11.75 11.752 11.75zm10.554 10.888a14.492 14.492 0 01-4.467-10.032c-.367-.027-.73-.056-1.104-.056h-9.971C6.75 30.653 0 37.403 0 45.699v12.197l.031.188.84.265c6.352 1.983 12.021 2.897 16.945 3.185v-3.683c.002-8.078 5.396-14.915 12.773-17.11z"/></symbol><symbol viewBox="0 0 384 384" id="burger" xmlns="http://www.w3.org/2000/svg"><path d="M0 277.333h384V320H0zm0-106.666h384v42.667H0zM0 64h384v42.667H0z"/></symbol><symbol viewBox="0 0 47.971 47.971" id="close" xmlns="http://www.w3.org/2000/svg"><path d="M28.228 23.986L47.092 5.122a2.998 2.998 0 000-4.242 2.998 2.998 0 00-4.242 0L23.986 19.744 5.121.88a2.998 2.998 0 00-4.242 0 2.998 2.998 0 000 4.242l18.865 18.864L.879 42.85a2.998 2.998 0 104.242 4.241l18.865-18.864L42.85 47.091c.586.586 1.354.879 2.121.879s1.535-.293 2.121-.879a2.998 2.998 0 000-4.242L28.228 23.986z"/></symbol><symbol viewBox="0 0 678 578" fill="none" id="design--design_about" xmlns="http://www.w3.org/2000/svg"><path d="M3 249.718l44.432-103.643a112.862 112.862 0 0136.42-46.124l1.763-1.31c50.617-37.61 122.377-25.435 157.756 26.767" stroke="#BB9893" stroke-opacity=".33" stroke-width="4.5"/><path d="M218 183l81-57.5 277.419 204.626-326.043 176.812L218 183z" fill="#FFFAE1"/><path d="M220.409 111.786a7.42 7.42 0 0111.936-8.818l10.421 14.106-11.936 8.818-10.421-14.106z" fill="#C9B3B0"/><circle cx="256" cy="149" r="17" fill="#FFEE95"/><path d="M209.45 178.469c-10.576-47.777 39.122-86.373 82.794-64.298L307 121.629l-95.238 67.283-2.312-10.443z" fill="#D9BCB8"/><path stroke="#BB8C85" stroke-linecap="round" d="M223.507 108.458l5.345 5.345m-1.036-8.666l4.205 6.281"/><path d="M320.903 529.625s34.158-105.092 24.741-158.329c-8.404-47.511-24.723-113.585-28.136-127.247-.234-.936-1.49-1.108-1.966-.269-7.777 13.723-46.048 88.373-17.337 182.909 31.83 104.805 22.698 102.936 22.698 102.936z" fill="#85AFDF"/><path opacity=".43" d="M311.872 278.073c-.314 15.668.126 31.322.989 46.957a647.317 647.317 0 004.3 46.772 567.876 567.876 0 003.552 23.227 477.24 477.24 0 004.696 23.031c1.814 7.626 3.828 15.205 6.117 22.709 2.344 7.486 4.955 14.892 7.913 22.168a.853.853 0 101.581-.642l-.002-.003-.003-.009c-2.967-7.207-5.595-14.553-7.957-21.988-2.309-7.453-4.347-14.99-6.186-22.578a475.42 475.42 0 01-4.78-22.933 568.24 568.24 0 01-3.642-23.151 646.461 646.461 0 01-4.496-46.665c-.929-15.601-1.437-31.248-1.192-46.868v-.009a.444.444 0 00-.438-.452.438.438 0 00-.452.434z" fill="#fff"/><path d="M328.749 552.395s-6.55-110.309-34.746-156.437c-25.162-41.168-64.468-96.728-72.632-108.204-.558-.785-1.792-.488-1.928.466-2.231 15.615-10.622 99.083 50.609 176.622 67.882 85.961 58.697 87.553 58.697 87.553z" fill="#B7CDED"/><path opacity=".43" d="M228.54 321.488c5.427 14.703 11.548 29.117 18.057 43.358a648.367 648.367 0 0021.073 41.977 570.45 570.45 0 0011.781 20.329 477.354 477.354 0 0012.777 19.729c4.471 6.437 9.113 12.76 13.982 18.91 4.915 6.115 10.048 12.056 15.457 17.75a.853.853 0 101.238-1.175l-.002-.004-.007-.006c-5.392-5.628-10.518-11.509-15.433-17.569-4.869-6.096-9.516-12.371-13.998-18.763a474.893 474.893 0 01-12.82-19.606 571.887 571.887 0 01-11.841-20.225 645.894 645.894 0 01-21.215-41.806c-6.56-14.186-12.74-28.57-18.213-43.201l-.004-.008a.443.443 0 10-.832.31z" fill="#fff"/><path d="M677.024 272.009c-10.179 29.236-74.586 196.703-201.944 157.007 0 0 21.361-122.518 199.921-160.577 1.564-.333 2.688 1.66 2.023 3.57z" fill="#B7CDED"/><path opacity=".43" d="M655.262 288.334c-5.453 7.433-11.197 14.672-17.054 21.801a633.464 633.464 0 01-18.066 20.979c-12.351 13.713-25.305 26.893-39.021 39.23-13.723 12.314-28.207 23.834-43.802 33.645-3.904 2.439-7.863 4.79-11.911 6.974a185.52 185.52 0 01-12.366 6.099c-8.398 3.722-17.132 6.709-26.11 8.543l-.005.002a.852.852 0 00-.665 1.008.853.853 0 001.008.665l.003-.001c9.122-1.905 17.951-4.974 26.416-8.771a186.158 186.158 0 0012.448-6.208c4.071-2.22 8.046-4.604 11.964-7.076 15.645-9.942 30.13-21.57 43.836-33.979 13.699-12.431 26.617-25.696 38.928-39.484a634.748 634.748 0 0017.998-21.089c5.836-7.169 11.549-14.432 16.989-21.916a.361.361 0 10-.586-.425l-.004.003z" fill="#fff"/><path d="M580.745 120.818c-.394-2.601-2.823-2.092-4.887-.462-112.994 89.293-157.465 256.93-128.248 305.078 0 0 176.076-21.243 133.135-304.616z" fill="#85AFDF"/><path opacity=".43" d="M573.042 155.353c-.11.631-.282 1.335-.433 2.013l-.493 2.045-1.03 4.082a625.144 625.144 0 01-2.172 8.136 782.253 782.253 0 01-4.663 16.184 875.361 875.361 0 01-10.234 32.087c-7.269 21.241-15.21 42.26-24.205 62.823-4.537 10.263-9.176 20.483-14.215 30.507a129.375 129.375 0 01-1.897 3.756l-1.931 3.737-1.931 3.737c-.653 1.242-1.336 2.467-2.003 3.7-1.35 2.458-2.662 4.937-4.043 7.378l-4.185 7.297c-.35.607-.69 1.221-1.048 1.822l-1.089 1.8-2.177 3.598-2.177 3.599c-.741 1.191-1.514 2.361-2.268 3.542l-2.277 3.537c-.769 1.172-1.495 2.374-2.307 3.517l-4.769 6.931c-6.473 9.161-13.384 18.01-20.79 26.447l-.001.002a.276.276 0 00.026.392c.113.1.286.09.387-.02 7.628-8.272 14.67-17.069 21.316-26.152l4.854-6.907c.826-1.139 1.566-2.336 2.349-3.506l2.321-3.525c.77-1.177 1.556-2.345 2.312-3.53l2.221-3.588 2.222-3.588 1.112-1.795c.366-.601.712-1.212 1.07-1.818 11.442-19.386 21.491-39.57 30.457-60.202l3.322-7.755 3.203-7.805c1.086-2.594 2.081-5.225 3.122-7.836l1.547-3.924 1.494-3.944c4.003-10.511 7.79-21.102 11.3-31.785 3.521-10.68 6.874-21.414 9.946-32.23a783.366 783.366 0 004.419-16.276 634.772 634.772 0 002.049-8.181l.969-4.105.461-2.059c.142-.696.303-1.356.414-2.113a.276.276 0 00-.231-.314.277.277 0 00-.312.225l-.012.064z" fill="#fff"/><path d="M563.135 485H290.848c-6.261 0-11.335-5.075-11.335-11.335v-48.528c0-6.261 5.075-11.335 11.335-11.335h272.287c6.261 0 11.335 5.075 11.335 11.335v48.527c.001 6.261-5.074 11.336-11.335 11.336z" fill="#7592CC"/><path d="M346.29 476.818h-32.236a1.208 1.208 0 01-1.208-1.208v-52.418c0-.667.541-1.207 1.208-1.207h32.236c.667 0 1.207.54 1.207 1.207v52.418c0 .667-.54 1.208-1.207 1.208zm18.694 0h-11.778a.611.611 0 01-.612-.612v-53.609a.61.61 0 01.612-.612h11.778a.61.61 0 01.612.612v53.609a.613.613 0 01-.612.612zm239.084 86.576H281.335v-64.595h322.733c-6.908 0-6.908 64.595 0 64.595z" fill="#85AFDF"/><path d="M281.335 547.23v-29.562c0-10.42 6.378-18.869 14.245-18.869h307.127c6.187 0 11.202-5.014 11.202-11.202a3.404 3.404 0 00-3.404-3.404H274.839c-7.698 0-19.919 12.104-19.919 27.033v41.286c0 14.077 11.865 25.488 19.123 25.488h334.699a5.17 5.17 0 005.169-5.169 9.437 9.437 0 00-9.437-9.437H293.539c-6.741 0-12.204-7.236-12.204-16.164z" fill="#636EB1"/><path d="M290.286 512.609h302.607a.554.554 0 100-1.11H290.286a.554.554 0 100 1.11zm0 9.588h302.607a.554.554 0 100-1.11H290.286a.554.554 0 100 1.11zm0 9.588h302.607a.554.554 0 100-1.11H290.286a.556.556 0 000 1.11zm0 9.588h302.607a.554.554 0 100-1.11H290.286a.554.554 0 100 1.11zm0 9.587h302.607a.554.554 0 100-1.11H290.286a.554.554 0 100 1.11z" fill="#DAE3FE"/><path d="M589.592 414.173H260.061a3.299 3.299 0 01-3.299-3.3v-54.447a3.3 3.3 0 013.299-3.3h329.531a3.299 3.299 0 013.299 3.3v54.447a3.297 3.297 0 01-3.299 3.3z" fill="#5C68AF"/><path d="M330.214 405.493H298.77a4.021 4.021 0 01-4.021-4.021v-33.067a4.022 4.022 0 014.021-4.022h31.444a4.022 4.022 0 014.021 4.022v33.067a4.02 4.02 0 01-4.021 4.021zm20.901 0h-10.74a2.038 2.038 0 01-2.038-2.037v-37.035c0-1.125.913-2.038 2.038-2.038h10.74c1.125 0 2.038.913 2.038 2.038v37.035a2.038 2.038 0 01-2.038 2.037zm-62.377-1.681h-7.035a2.038 2.038 0 01-2.038-2.037V364.74c0-1.125.913-2.038 2.038-2.038h7.035c1.124 0 2.037.913 2.037 2.038v37.035a2.037 2.037 0 01-2.037 2.037z" fill="#7592CC"/><path d="M585.364 433.459c-.12-.046-64.995-113.657-73.762-124.348a6.794 6.794 0 00-6.067-2.439l-18.107 2.158-21.273 46.02 35.44-20.639c-3.507 24.253 42.02 60.296 57.634 73.447a3.586 3.586 0 01.284 5.223l-6.233 6.526c10.233 10.372 22.043 17.034 35.371 20.115l-3.287-6.063z" fill="#FBA3A4"/><path d="M556.884 415.886s-3.978 1.286-5.325 4.828c-.643 1.694.051 3.616 1.524 4.671 6.55 4.693 28.159 19.846 38.132 22.813.817.243 1.594-.496 1.41-1.328-.512-2.317-2.167-6.943-7.499-13.715l.478.968c.606 1.225-.728 2.499-1.918 1.827-6.669-3.763-20.253-12.005-26.802-20.064z" fill="#09005D"/><path d="M560.096 461.343c-.108-.071-9.842-23.521-9.95-23.59-8.925-54.335-30.698-100.869-37.119-113.114a6.792 6.792 0 00-5.448-3.615l-18.169-1.552-30.147 40.762 38.884-13.039c-8.343 23.041 28.948 67.551 41.576 83.591a3.584 3.584 0 01-.779 5.172l-7.426 5.128c7.923 12.23 18.14 21.143 30.568 26.858l-1.99-6.601z" fill="#FCAEB0"/><path d="M535.763 438.369s-4.156.453-6.192 3.65c-.974 1.531-.684 3.55.546 4.884 5.465 5.921 23.56 25.133 32.725 30.057.752.404 1.661-.162 1.65-1.016-.033-2.373-.718-7.238-4.568-14.948l.272 1.045c.345 1.321-1.218 2.3-2.248 1.402-5.768-5.036-17.405-15.856-22.185-25.074z" fill="#09005D"/><path d="M404.358 310.887s-16.436 24.447-17.784 35.6c-1.349 11.151 4.545 15.008 21.748 16.43 51.196 4.232 76.432-11.112 76.432-11.112 3.503-22.33 5.994-28.009 35.244-40.151 0 0-36.996 2.938-44.441.048-7.445-2.888-71.199-.815-71.199-.815z" fill="#F35046"/><path d="M469.904 173.918s-11.449-13.545-23.619 3.074c-2.204 3.01-10.672.527-13.775 6.826-1.603 3.253-5.064 5.1-8.631 4.443-8.882-1.638-23.397-1.776-30.565 12.142-5.471 10.622-1.246 16.84 4.222 20.384 4.016 2.603 5.45 7.888 3.021 12.013-2.33 3.956-2.767 9.314 3.248 15.76 13.48 14.449 40.164-9.169 40.164-9.169l21.188-50.066 4.747-15.407z" fill="#3E4580"/><path d="M448.81 307.651s19.141-18.225 28.562-30.297c5.093-6.526 6.693-15.115 4.336-23.051-4.302-14.493-11.945-29.503-12.643-31.84-1.069-3.581-22.531-3.431-22.531-3.431s-42.231 27.408-58.826 73.837l18.636 5.802s11.026-18.5 21.923-30.262c0 0-18.853 24.905-19.516 35.101l40.059 4.141z" fill="#F7776D"/><path d="M485.28 314.845l-14.383-15.649-16.609 4.473s-19.365 3-30.449 0l-11.083-3-25.047-7.798-3.932 11.116a6.693 6.693 0 002.445 7.69c2.167 1.54 4.706 3.232 6.325 3.941 3.299 1.443 75.979.456 75.979.456l16.754-1.229z" fill="#FCAEB0"/><path d="M461.286 193.229l-14.423 26.822c.952 5.856 15.699 6.02 17.977 2.524.231-.356.364-.767.453-1.182l8.629-17.923c.371-1.747-4.421-7.635-5.997-8.476l-5.734-3.053c-2.209-1.174 7.003-1.266-.905 1.288z" fill="#FEBBBA"/><path d="M490.478 186.933s1.629 9.063-5.494 20.585c-7.123 11.522-14.215 11.001-17.819 6.893-3.603-4.108-7.92-10.952-5.956-22.445 1.964-11.493 26.81-16.588 29.269-5.033z" fill="#FCAEB0"/><path d="M469.833 193.214s11.534-15.15 20.388-1.943l-.15 4.562s11.514-.539 10.266-11.151c-1.248-10.613-10.648-17.864-23.681-14.237-13.033 3.626-20.647 7.756-22.119 16.803-1.471 9.048 5.917 7.57 5.917 7.57s2.822-6.243 6.23-6.67c3.407-.427 2.175 4.512 2.175 4.512l.974.554z" fill="#3E4580"/><path d="M467.186 192.81s5.974-7.752.537-9.361c-5.438-1.61-5.235 7.596-4.88 11.021l4.343-1.66z" fill="#FEBBBA"/><path d="M437.672 321.037l.153.003 66.153-.072a2.96 2.96 0 002.957-2.964c-.001-1.636-1.333-2.987-2.964-2.957l-66.153.072a2.96 2.96 0 00-.146 5.918z" fill="#30345F"/><path d="M563.444 260.974h-55.092a10.5 10.5 0 00-9.497 6.022l-25.47 54.005h68.467a6.38 6.38 0 005.934-4.036l19.75-49.974c1.142-2.887-.986-6.017-4.092-6.017z" fill="#313562"/><path d="M524.632 288.666c-1.194 3.709-.312 7.312 1.97 8.046 2.282.734 5.1-1.677 6.294-5.386 1.194-3.71.312-7.312-1.97-8.046-2.283-.736-5.101 1.676-6.294 5.386z" fill="#91B3FA"/></symbol><symbol viewBox="0 0 257 142" id="design--design_airplane" xmlns="http://www.w3.org/2000/svg"><path d="M0 0l49.138 67.442 32.536-35.586L0 0z" fill="#A2B6DA"/><path d="M86.077 13.222l-4.403 18.634L0 0l86.077 13.222zm-4.403 25.756L0 0l75.911 67.442 5.763-28.463z" fill="#C6DDF3"/><path d="M131.279 119.792c-.605-.057-14.961-1.535-33.153-12.86-18.267-11.37-25.102-31.22-25.102-34.401 0-1.216.985-2.202 2.201-2.202 1.204 0 2.183.96 2.202 2.158.2 2.12 6.03 20.126 23.025 30.709 17.244 10.739 31.102 12.205 31.239 12.218a2.203 2.203 0 011.977 2.407c-.106 1.197-1.179 2.083-2.389 1.971zM77.433 72.5v.025-.025zm143.11 67.242c-25.457-5.107-49.811-14.506-72.387-27.939-18.592-11.064-33.584-27.934-52.55-37.301a2.197 2.197 0 01-.997-2.95 2.197 2.197 0 012.95-.998c19.632 9.692 34.506 26.549 52.854 37.463 22.146 13.178 46.032 22.402 71.003 27.41 9.174 1.839 20.051 2.513 32.324 2.002a2.193 2.193 0 012.289 2.108 2.208 2.208 0 01-2.108 2.295c-10.901.449-22.632.062-33.378-2.09z" fill="#FAE5BE"/></symbol><symbol viewBox="0 0 1027 588" id="design--design_banner" xmlns="http://www.w3.org/2000/svg"><path d="M945.132 169.659c8.28 6.414 6.458 19.899-.808 26.245-8.031 7.017-20.587 7.228-29.078.937-9.194-6.809-10.785-18.019-3.935-26.048 6.67-7.814 17.75-5.998 22.161 2.596 3.165 6.162.644 12.157-2.783 13.015-2.674.671-5.102-1.962-3.525-4.432.63-.991 1.918-1.372 2.973-1.182 1.07-2.472-.47-7.384-5.095-9.721-5.91-2.987-11.786 2.385-13.203 7.95-1.805 7.085 3.182 13.468 9.344 16.367 6.468 3.049 14.885 2.119 20.331-2.606 6.169-5.351 6.823-14.841 1.547-21.036-1.247-1.465.589-3.233 2.071-2.085z" fill="#C2D7F8"/><path d="M209.648 270.047l12.543-29.794L179 244.052l30.648 25.995z" fill="#CAEBE3"/><path d="M150 396l-28.721 39.421-19.018-20.8L150 396z" fill="#A2B6DA"/><path d="M99.687 403.728l2.574 10.893L150 396l-50.313 7.728zm2.574 15.056L150 396l-44.371 39.421-3.368-16.637z" fill="#C6DDF3"/><path d="M73.265 466.02c.354-.033 8.745-.897 19.379-7.517 10.677-6.645 14.672-18.248 14.672-20.108a1.286 1.286 0 00-2.573-.025c-.117 1.239-3.525 11.764-13.459 17.95-10.08 6.277-18.18 7.134-18.26 7.141-.707.069-1.224.7-1.155 1.407.062.7.689 1.218 1.396 1.152zm31.474-27.643v.015-.015zm-83.65 39.305c14.88-2.986 29.116-8.479 42.312-16.331 10.866-6.467 19.63-16.328 30.716-21.803.637-.314.9-1.087.583-1.725a1.284 1.284 0 00-1.724-.583c-11.476 5.665-20.17 15.518-30.895 21.898-12.945 7.703-26.906 13.094-41.503 16.021-5.362 1.076-11.72 1.469-18.893 1.17a1.283 1.283 0 00-1.338 1.233 1.29 1.29 0 001.232 1.341c6.372.262 13.229.036 19.51-1.221z" fill="#FAE5BE"/><path d="M555.769 578.984c0-25.86-5.08-51.466-14.949-75.357a196.944 196.944 0 00-42.571-63.884c-18.236-18.285-63.747 9.896-87.574 0-23.826-9.896-38.439-31.729-64.229-31.729-25.789 0-59.348 14.198-83.174 24.094-23.827 9.895-21.503 32.217-39.739 50.503-18.236 18.285-32.346 4.633-45.584 21.016A197.384 197.384 0 00163 578.984S256 586 360 586.5s195.769-7.516 195.769-7.516z" fill="#E1FFFB" fill-opacity=".7"/><path d="M981.961 580.108c24.799-.635 38.319-18.38 30.019-41.759-16.023-31.048-58.578-38.881-88.18-62.645-29.603-23.763-45.673-62.992-84.351-75.853-38.677-12.86-53.697 10.609-95.562 10.609-41.864 0-58.774 8.043-97.452 20.903-38.677 12.861-102.57 29.763-132.172 53.526-29.603 23.764-75.314 22.412-91.335 53.46C406.907 569.397 404 545.393 404 579c0 0 100.5 7 168.5 7s148 3 217 0c46.442-2.019 137.734-4.491 192.461-5.892z" fill="#DBF8F4" fill-opacity=".7"/><path d="M465.867 554.647c.641-4.601-.799-12.511-4.398-24.891 7.13.015 13.127-3.141 20.416-3.03 1.989 11.643 5.072 30.758 5.072 30.758l.333 15.112-50.75.38s.424.217 15.386-9.234c1.099-.704 13.32-4.649 13.941-9.095z" fill="#F7A491"/><path d="M487.531 576.474h-52.388c-1.936-.174-2.408-1.754-1.739-2.732 1.383-2.004 11.6-6.821 18.47-10.02 12.047 1.267 33.229-3.694 35.132-6.483 3.299 9.249 1.599 18.999.525 19.235z" fill="#3C8F7C"/><path d="M529.084 554.647c.64-4.6 1.734-10.362.135-25.7 7.129.015 13.917-1.32 21.205-1.209 0 11.976-.251 29.746-.251 29.746l.333 15.112-50.75.381s.424.216 15.387-9.235c1.103-.703 13.324-4.649 13.941-9.095z" fill="#F7A491"/><path d="M550.747 576.474H498.36c-1.937-.174-2.409-1.754-1.739-2.732 1.382-2.004 11.599-6.821 18.469-10.02 12.048 1.267 33.229-3.694 35.132-6.483 3.304 9.249 1.604 18.999.525 19.235z" fill="#3C8F7C"/><path d="M492.204 116.41l-19.091-20.141s-20.435 11.239-44.251 21.976c-6.547-11.397-17.236-48.885-17.809-50.677-.578-1.792 12.52-24.313 9.591-24.881-2.929-.564-6.73 12.029-9.827 10.752-3.098-1.276-11.056-30.488-12.92-28.894-3.488 2.982 4.186 18.17 2.351 19.274-1.836 1.103-6.499-16.831-10.049-16.07-3.55.766 5.993 16.33 4.947 17.828-1.045 1.498-11.022-13.107-13.083-9.726-1.118 1.836 9.201 12.718 7.076 13.932-2.124 1.219-11.422-5.636-12.534-3.416-1.108 2.221 8.676 4.533 11.392 10.15 2.717 5.617 7.66 7.804 9.298 18.426 1.638 10.612 6.122 67.388 17.693 71.945 10.112 3.989 77.216-30.478 77.216-30.478z" fill="#F7A491"/><path d="M479.871 225.033l15.483 8.633 31.466 48.114-56.275 132.454s6.34 19.92 8.401 29.872c2.163 10.41 7.457 99.779 7.457 99.779l-24.009.405s-22.804-95.136-26.663-126.014c-4.687-37.497 23.864-126.799 23.864-126.799 5.324-18.219 16.803-55.701 16.803-55.701s2.813-9.143 3.473-10.743z" fill="#355389"/><path d="M533.752 206.964s-1.6 11.316 4.803 24.226c3.901 7.871 10.646 14.042 15.472 23.681 9.134 18.243 14.096 44.16 10.671 60.818 0 0-18.889 72.128-18.137 98.488.274 9.721 3.613 27.236 5.747 39.072 1.888 10.468 1.223 88.117 1.223 88.117l-25.507.491-20.531-127.362-8.681-113.21-18.936-76.252 53.876-18.069z" fill="#466EB6"/><path d="M474.153 38.703c2.476-11.691 5.029-23.426 16.649-31.846 9.403-6.817 19.504-8.763 30.213-4.88 30.344 11.007 14.023 35.088 51.684 60.755 11.701 7.977 16.143 10.756 24.539 21.383 11.754 14.876 18.18 34.838 12.27 51.27-12.222 33.985-50.08 43.803-69.889 36.596-36.866-13.411-67.581-60.167-69.618-72.923-2.182-13.647 2.558-52.826 4.152-60.355z" fill="#13375B"/><path d="M471.34 129.06c-8.541 3.95-24.014 9.875-24.014 9.875l-8.801-27.839c49.752-28.3 45.85-23.734 83.189-23.18 29.833.424 42.333-5.27 68.019 64.074 0 0-19.553 8.786-26.557 11.604-3.011-8.569-8.455-25.666-11.629-15.92-4.793 14.726-8.305 29.592-10.661 44.891-1.493 9.071-4.749 20.685-3.039 29.93 0 0-20.315 4.181-35.836 4.865-.043 0-.086.005-.135 0-7.5-.193-15.179-.853-22.014-2.327 0 0-3.04-64.329-4.668-67.012-1.802-2.972-9.403-12.578-2.934-26.938 1.151-2.539.843-2.837-.92-2.023z" fill="#50BFA5"/><path d="M517.041 59.287s2.375 19.187 3.777 25.845c1.464 6.97 3.671 28.917-10.781 32.482-14.452 3.565-9.986-23.879-10.227-30.965-.241-7.086-4.336-31.798-4.336-31.798l21.567 4.436z" fill="#F7A491"/><path d="M517.826 65.41c-.149.087-.284.183-.433.27-7.987 4.58-14.939 3.858-20.156.294-.929-6.133-1.758-11.123-1.758-11.123l21.562 4.436s.318 2.558.785 6.123z" fill="#F47458"/><path d="M512.696 9.328s8.468 2.38 13.353 10.79c4.885 8.411 7.318 32.565-10.656 42.869-17.973 10.304-30.733-6.205-30.189-21.654.539-15.448 4.846-35.883 27.492-32.005z" fill="#F7A491"/><path d="M481.23 34.705c-.203 4.017 1.517 7.365 3.834 7.481 2.317.116 4.36-3.044 4.562-7.057.198-4.018-1.517-7.366-3.839-7.481-2.317-.12-4.36 3.04-4.557 7.057z" fill="#F7A491"/><path d="M510.152 8.692s9.692 25.261 19.173 27.954c9.485 2.693 8.724 15.117 8.724 15.117s1.214-28.72-7.448-35.763c-8.661-7.043-20.449-7.308-20.449-7.308z" fill="#13375B"/><path d="M525.259 41.589c-1.464 3.95-.505 7.958 2.144 8.955 2.645.997 5.978-1.397 7.438-5.342 1.464-3.95.501-7.959-2.144-8.956-2.644-1.002-5.978 1.392-7.438 5.343zm-16.571 199.129c-.352.048-1.936-.159-3.232-.13-1.792.034-3.363.304-3.363.304s-.703-.607-2.047-1.234c-.559-.255-1.474-.351-2.096-.64-.64-.304-1.185-.848-1.792-1.123-1.584-.688-3.039-.847-3.521-.014-.4.689 8.421 6.084 8.421 6.084 8.16.048 16.711 4.21 35.628-8.131 10.805-4.721 63.264-30.633 64.324-36.284.593-3.169-7.457-27.704-14.037-46.332-5.073 2.274-15.859 7.072-21.895 9.601 5.535 11.73 12.068 27.29 11.379 29.192-.178.497-.834 1.393-36.298 24.616-.896.578-1.806 1.185-2.736 1.792a2853.765 2853.765 0 01-8.002 5.217l-10.116-1.055s-16.022 1.104-16.499 2.929c-.207.834 1.123 1.248 2.751 1.489h.048c.241.034.482.062.718.096h.034c1.758.207 3.617.241 4.065.4.511.173 1.537.578 2.419 1.185-9.987 4.08-9.221 2.625-12.535 2.418-.833-.062-1.71.179-2.495.111-1.344-.111-2.418-.91-3.459-.978-1.522-.082-2.755.626-3.025.911-.352.351.303.862 1.585 1.44 7.712 3.343 14.1 2.067 16.147 2.563 1.378.337-1.137.848-5.058.433-.978-.096-2.259.256-3.555-.048-.862-.193-1.648-.751-2.496-.958-.785-.193-1.584-.174-2.24-.304-.862-.159-2.066-.814-2.75-.896-2.563-.289-3.811.159-4.1.4-.592.53 11.041 4.995 11.041 4.995s8.021 1.152 9.813 1.152c0 0 1.074.481-1.026.799z" fill="#F7A491"/><path d="M773.726 576H351.275c-.664 0-2.275 1.669-2.275 3.604 0 1.934 1.613 3.396 2.275 3.396h422.45c.662 0 2.275-1.462 2.275-3.396.002-1.93-1.611-3.604-2.274-3.604z" fill="#3C8F7C"/><path d="M716.353 312.831c-.847-.058-7.259 10.294-11.277 26.177-4.012 15.882-12.563 45.2-12.563 45.2s-13.874 28.007-17.626 31.76c-3.753 3.752-7.39-.126-11.167 1.045-1.165.361-4.769 3.492-4.769 3.492s-6.488 14.047-5.53 15.011c.959.958 10.993 3.666 17.973 1.397 6.98-2.269 39.439-40.311 39.439-40.311s26.461-82.365 5.52-83.771z" fill="#F48C7F"/><path d="M589.554 325.466l3.141-3.256s5.756 10.338 12.39 24.997c6.633 14.658 14.572 32.723 17.274 35.425 2.703 2.708 25.479 34.024 32.372 37.079 6.894 3.054 4.759 1.714 10.294 1.05 4.158-.497 3.705 2.509.998 3.906-.728.376-1.561.627-3.218 1.807-3.29 2.336-6.113 5.655-8.18 7.592-.8.746.867 2.115 1.806 1.18.969-.968 4.249-6.036 5.622-6.036 1.373 0 .458 3.468-.13 4.581-.588 1.113.718.785 1.898-1.965 1.18-2.746 2.028-5.497 3.729-5.106 1.373.317.534 4.118.154 5.583.395-1.392 1.484-4.861 2.529-4.861 1.31 0 1.898.13 1.898 2.717s-.915 5.357-3.926 7.635c-3.011 2.279-11.436.757-14.905-.621-2.365-.944-4.721-4.788-7.091-6.065-10.588-5.713-21.465-12.53-34.939-30.493-16.489-21.991-22.925-41.621-22.925-41.621l1.209-33.528zm6.109 249.48s1.744-7.328 0-16.23c-1.744-8.902-11.167-54.275-11.167-63.698 0-9.422-4.537-23.209-4.537-23.209l27.747-6.98 2.794 27.048s1.483 63.087 4.012 65.616c2.53 2.529 13.229 6.267 16.581 6.267 3.748 0 9.688.25 9.688 2.139 0 1.888-.525 3.112-.525 3.112l-44.593 5.935zM562.621 467.83l-3.435 23.349s-8.165 68.428-6.281 70.312c1.883 1.884 10.439 7.394 14.365 7.833 3.926.438 9.451 3.088 9.451 5.183 0 4.235-44.15.795-44.15.795s-1.397-3.15 0-7.775 1.397-11.166 1.397-12.216c0-1.046-.086-.174-.086-1.831v-2.182s-5.323-32.632.351-53.226l2.009-39.963 26.379 9.721z" fill="#F4C0B8"/><path d="M746.22 239.493s10.208-.12 17.274 3.869c7.043 3.974 8.936 13.449 9.066 20.863.169 9.567-2.967 19.201-8.936 26.711-5.973 7.52-16.489 10.897-16.489 10.897l-29.592-18.864s-3.521-8.787-1.031-20.565c2.486-11.788 1.831-24.746 29.708-22.911z" fill="#184655"/><path d="M696.352 544.559s-9.774 14.047-10.473 15.969c-.698 1.917-5.496 14.658-5.496 14.658l-37.521-18.238 28.705-8.724 5.757-12.563 19.028 8.898z" fill="#F48C7F"/><path d="M745.565 445.112l-30.628 63.871-20.155 40.311s-17.887-6.894-22.338-11.345l14.486-50.783 16.489-58.808 34.67-3.151 7.476 19.905z" fill="#355389"/><path d="M774.444 551.038s-1.397 9.422-1.397 10.034c0 .612 2.096 9.687 2.442 12.13.347 2.442 0 4.364 0 4.364l-35.556-8.507s5.28-3.449 9.991-6.065c4.712-2.616 5.41-15.097 5.41-15.097l19.11 3.141z" fill="#F48C7F"/><path d="M779.42 428.358s-6.089 38.311-5.236 51.13c1.228 18.406 6.108 25.478 2.616 73.746h-24.78s-1.744-25.931-5.583-45.999c-3.84-20.069-12.217-53.751-12.217-53.751l-13.787-31.071 58.987 5.945z" fill="#86B1F2"/><path d="M765.084 284.323c-1.194 3.743-4.215 6.122-6.749 5.313-2.529-.809-3.613-4.499-2.418-8.242 1.195-3.743 4.215-6.123 6.749-5.314 2.529.81 3.613 4.5 2.418 8.243zm-42.083-7.992c-.333 3.916-2.751 6.908-5.395 6.686-2.645-.226-4.524-3.584-4.191-7.5.332-3.917 2.75-6.908 5.395-6.682 2.649.222 4.523 3.579 4.191 7.496z" fill="#F48C7F"/><path d="M359.286 288.311c-5.597-6.06-17.39-31.293-21.379-38.461.087-.717.405-4.894-2.731-11.012-2.216-4.321-2.78-13.156-5.183-11.238-2.404 1.917 1.064 9.625-1.137 9.167-2.202-.458-10.473-16.046-12.65-14.312-2.178 1.739 6.551 15.911 4.581 15.502-1.97-.41-8.589-14.254-11.667-11.798-3.079 2.457 9.201 15.517 7.548 16.837-1.652 1.319-9.191-7.13-11.667-5.15-2.476 1.975 10.81 11.012 9.654 10.771-1.157-.241-9.442-2.389-9.847-.689-.457 1.922 20.078 9.784 22 13.734 3.642 10.675 10.035 30.118 18.489 39.94 10.338 12.019 40.079 45.344 40.079 45.344l12.356-23.435s-31.803-28.013-38.446-35.2z" fill="#966259"/><path d="M328.022 240.929c-.77 1.021-1.252 2.206-1.575 3.439 0 .212-1.324 4.138 1.286 7.944-.756-2.784-1.584-5.877.289-11.383z" fill="#6B4744"/><path d="M777.084 319.782s-2.881 74.282 0 88.155c2.881 13.874 4.201 22.877 4.201 22.877s-39.8 7.751-78.02-2.456c0 0 5.761-25.917 8.377-52.879 2.616-26.962 4.711-62.648 4.711-62.648s14.491-1.079 25.652-.058c25.372 2.327 35.079 7.009 35.079 7.009z" fill="#FAE0B2"/><path d="M753.417 293.938l1.122 20.324s-1.907 11.219-13.03 11.874c-11.123.655-7.852-23.296-7.852-23.296l.655-8.902h19.105z" fill="#F48C7F"/><path d="M734.013 309.252c-.27 0-.535-.005-.8-.02.063-3.627.439-6.392.439-6.392l.655-8.902h19.11l.168 3.049c-2.399 4.085-9.451 12.265-19.572 12.265z" fill="#F27A6A"/><path d="M774.82 565.72s-1.311-1.31-5.892-.915-27.549 2.943-28.532 2.943c-.983 0-14.124 9.982-14.712 11.793-.588 1.811 28.393.626 28.393.626h22.063c-.005-.005 2.081-6.594-1.32-14.447zm-91.031-.481s1.344.905 1.344 2.124c0 .81-1.368 6.325-2.948 10.251a4.11 4.11 0 01-5.8 2.062l-39.8-21.942s-2.9-2.515 15.868-3.7l31.336 11.205z" fill="#3C8F7C"/><path d="M777.084 319.782s5.65 2.471 8.97 10.15c3.314 7.679 13.96 42.406 6.806 63.173 0 0-3.222 15.791-19.803 26.61-16.581 10.82-45.489 13.421-47.122 11.783-1.638-1.638-1.701-4.475-1.701-6.291 0-1.821-3.796-2.736-3.796-5.227 0-2.486 6.412-2.924 13.787-2.924 0 0 1.31-.13-.303-1.354-1.614-1.223-3.666-2.75-3.315-5.062.347-2.313 1.855-2.202 3.271-.786 1.416 1.417 6.108 5.237 9.861 4.143 3.753-1.088 25.917-19.283 29.578-25.045-.005.01-1.469-67.932 3.767-69.17z" fill="#F48C7F"/><path d="M592.695 322.21s-11.942-6.628-24.626-8.112c-12.679-1.484-30.868 3.271-30.868 3.271l-10.487 151.453s47.117 22.381 82.451 0c0 0-9.49-63.592-9.49-72.533v-8.94l-6.98-65.139z" fill="#50BFA5"/><path d="M640.752 567.223a2.713 2.713 0 012.866 1.788c.492 1.373.275 2.596-.756 3.627-1.874 1.874-34.617 7.24-46.048 6.985-1.214-.029-2.943-3.632-1.156-4.677 2.799-1.638 36.457-6.749 45.094-7.723z" fill="#13375B"/><path d="M631.088 563.76l-2.707 5.511-6.021 1.657s2.794-9.861 5.236-9.423c2.442.439 3.492 2.255 3.492 2.255zm-54.357 11.104a2.652 2.652 0 012.538 1.816c.289.881.386 1.883-.274 2.543-1.397 1.397-48.283.438-48.283.438s-1.132-3.487.905-4.186c1.349-.472 36.958-.592 45.114-.611z" fill="#13375B"/><path d="M562.602 567.354c.424-.766 3.656.048 4.672 1.975l-4.157 5.973-4.889-.019 4.374-7.929z" fill="#13375B"/><path d="M458.227 537.077s1.889 16.403 4.957 23.561c3.069 7.154 13.19 11.672 22.092 13.426 8.902 1.753 5.935 3.155 4.629 4.461-1.305 1.305-39.882 2.187-46.688.953 0 0 2.615-13.43 2.615-15.525 0-2.096-10.646-35.079-10.646-35.079l23.041 8.203z" fill="#966259"/><path d="M443.221 579.474s.535-2.736 1.118-5.93c7.443.997 24.467-.742 32.998-1.739 2.611.987 5.785 1.281 8.396 1.797 8.903 1.753 8.233 4.089 6.003 5.713-1.494 1.088-41.713 1.392-48.515.159z" fill="#F47458"/><path d="M382.327 533.233s1.045 20.16-1.118 27.401c-2.225 7.462-5.41 8.743-14.153 11.171-8.579 2.384-5.323 6.204-4.017 7.51 1.305 1.305 31.331 1.387 38.138.159 0 0-2.616-13.431-2.616-15.526 0-2.096 3.179-35.994 3.179-35.994l-19.413 5.279z" fill="#966259"/><path d="M401.177 579.474s-.535-2.736-1.118-5.93c-7.442.997-24.466-.742-32.998-1.739-2.948.717-5.337 1.305-7.939 2.254-8.521 3.112-7.76 3.95-6.455 5.256 1.296 1.305 41.703 1.392 48.51.159z" fill="#F47458"/><path d="M537.201 317.369s10.208 12.043 4.971 32.198c-5.236 20.155-17.886 52.267-33.508 70.139-2.529 2.895-8.377 9.003-10.993 10.747-2.616 1.744-13.7 2.967-13.7 2.967s-4.885-15.005-3.493-16.402c1.397-1.397 13.132-1.527 16.316-4.712 3.194-3.189 34.125-94.937 40.407-94.937z" fill="#F4C0B8"/><path d="M438.452 317.104s2.939 1.83 5.034 7.245c2.096 5.41 12.959 49.911 14.529 56.366 1.214 4.986 12.231 19.625 17.699 26.678 1.613 2.081 2.851 3.815 3.637 3.815 4.798 0 12.765 2.664 12.765 4.649 0 1.984-1.878 2.201-5.024 1.503-3.141-.699-.761 2.707.371 3.839 1.132 1.137 5.964 7.602 4.253 9.317-1.71 1.71-5.824 2.9-7.746 2.9-1.04 0-3.16-.116-7.023-3.271-3.252-2.655-8.04-8.084-11.547-11.215-12.621-11.258-23.007-34.901-24.924-40.31-1.918-5.41-2.024-61.516-2.024-61.516z" fill="#966259"/><path d="M478.893 422.466s-1.31.13-1.31 2.683 2.225 6.479 3.728 7.982c1.508 1.503 15.29-2.158 15.29-2.158s-5.015.126-6.725-1.999c-.766-.954-2.216-5.4-3.651-5.4-1.441 0 .13 6.022.13 6.022s-2.751-7.92-4.186-7.92c-1.436 0-1.571 1.44-.916 3.859.651 2.428-1.474-3.767-2.36-3.069z" fill="#F4C0B8"/><path d="M467.818 538.705s-20.415 5.497-43.581 5.497c-23.166 0-68.708-11.778-68.708-11.778s12.563-30.363 16.884-53.659 7.462-63.342 7.462-63.342h69.118l4.321 27.723 14.504 95.559z" fill="#466EB6"/><path d="M438.452 317.104s4.509 5.236 4.509 21.465c0 16.23.785 40.576 2.096 48.953 1.31 8.377 5.236 29.188 5.236 29.188s-11.518 9.552-41.361 6.936c-29.842-2.615-31.413-6.633-31.413-6.633s4.186-67.446 4.186-74.518c0-7.067 6.407-27.516 6.407-27.516s17.241-1.777 25.093-1.175c7.857.607 25.247 3.3 25.247 3.3z" fill="#FAE0B2"/><path d="M452.018 253.405s12.558 3.565 11.518 16.451c-.959 11.889-6.807 11.287-6.807 11.287s4.273 16.851-8.637 21.735c-12.178 4.606-16.754 0-16.754 0s-5.28 13.994-23.345 8.589c-18.064-5.4-16.446-16.359-16.446-16.359s-7.693 3.025-16.595-11.108c-8.897-14.134-3.825-24.318 7.958-30.599 0 0-3.921-17.997 14.09-20.878 18.012-2.881 22.425 7.004 22.425 7.004s3.208-11.031 22.38-3.439c12.569 4.976 10.213 17.317 10.213 17.317z" fill="#13375B"/><path d="M402.26 280.382c1.325 3.7.376 7.423-2.129 8.319-2.5.896-5.602-1.377-6.927-5.077-1.325-3.7-.371-7.423 2.129-8.319 2.496-.896 5.598 1.377 6.927 5.077zm40.947 3.671c-.607 3.883-3.223 6.701-5.848 6.291-2.625-.409-4.263-3.887-3.656-7.77.607-3.883 3.222-6.701 5.848-6.291 2.625.404 4.263 3.887 3.656 7.77zm-21.533 17l-.698 15.27s-.347 5.935-6.542 6.72c-6.195.786-11.865-4.008-11.865-8.81 0-.612 3.054-21.553 3.054-21.553l16.051 8.373z" fill="#966259"/><path d="M405.619 292.676l16.055 8.377-.245 5.429c-2.905.019-7.212-.212-10.661-2.269-2.9-1.73-4.514-3.926-5.814-6.956.385-2.679.665-4.581.665-4.581z" fill="#6B4744"/><path d="M666.028 420.361s-3.907 2.529-6.234 1.975c-2.322-.559-1.175-1.744-.086-2.837 1.088-1.089 4.012-2.486 4.012-2.486l2.308 3.348zm77.297-170.202c6.339.934 10.974 5.424 14.341 10.906 6.676 10.863 1.247 26.856-.583 30.522-1.831 3.666-9.162 13.088-20.025 13.088-10.863 0-18.455-9.947-19.37-19.63-1.229-12.968 2.244-29.13 14.586-33.634 3.363-1.233 7.346-1.801 11.051-1.252z" fill="#F48C7F"/><path d="M568.479 250.486s5.366-.26 11.388 2.616c6.021 2.881 12.303 15.825 12.303 27.343 0 7.009 3.102 9.904 5.53 11.094a2.195 2.195 0 01.694 3.425c-2.375 2.697-4.846 5.66-7.963 7.476-11.807 6.869-23.705 7.081-36.977 4.644-10.68-1.956-20.753-6.764-28.33-14.645-1.426-1.483-1.036-3.93.776-4.908 2.505-1.349 5.462-4.244 6.585-10.478 2.095-11.648 6.416-32.193 35.994-26.567z" fill="#13375B"/><path d="M552.481 282.266c.853 3.834-.559 7.413-3.151 7.991-2.591.578-5.385-2.066-6.238-5.901-.853-3.834.559-7.413 3.151-7.992 2.591-.578 5.385 2.067 6.238 5.902zm33.557 1.999c-2.656 0-4.808-3.186-4.808-7.115 0-3.93 2.152-7.115 4.808-7.115 2.655 0 4.807 3.185 4.807 7.115 0 3.929-2.152 7.115-4.807 7.115zm-11.494 18.185l1.31 17.973s-.612 4.099-5.496 4.976c-4.885.872-15.271-6.368-15.271-10.208l2.442-20.767 17.015 8.026z" fill="#F4C0B8"/><path d="M575.185 311.217c-7.718.385-13.927-3.093-18.518-9.432l.867-7.366 17.015 8.031.636 8.767z" fill="#F7A491"/><path d="M586.543 286.35c-1.175 6.677-3.141 18.422-13.613 19.631-10.473 1.209-18.325-4.451-23.296-14.659-4.972-10.208-3.796-23.691-1.046-30.363 2.183-5.304 11.61-5.049 16.244-4.971 15.516.26 24.317 15.578 21.711 30.362z" fill="#F4C0B8"/><path d="M571.23 253.844s.163 8.584-6.98 15.728c-7.144 7.144-21.509 10.873-21.509 10.873l-1.706 4.032s-2.269-12.833 3.141-21.384c5.415-8.551 27.054-9.249 27.054-9.249z" fill="#13375B"/><path d="M413.422 251.551s-7.601 2.168-12.149 9.841c-4.552 7.67-7.298 29.703 8.469 39.111 15.762 9.409 26.302-5.698 27.41-19.745 1.3-16.615-5.949-32.03-23.73-29.207z" fill="#966259"/></symbol><symbol viewBox="0 0 574.85 495.64" id="design--design_group1" xmlns="http://www.w3.org/2000/svg"><path fill="#e1fffb" d="M450.72 490.92c-.22-26.52-22.83-84.79-33.17-109.21a201.83 201.83 0 00-44.23-65.15c-18.87-18.6-79.21 10.48-103.74.54s-55.07.47-81.52.7-40.1 46.6-64.45 57-38-3.94-64.38 10C30.45 400 19.64 430 6.2 446.88c-9.91 24.59-5 21.39-4.8 47.91l201.44-1.73z"/><path fill="#dffaf7" d="M370.22 494c-36.08-.89-86.91-30.32-75.15-64.44 7.37-21.38 27.38-26.93 41.2-43.36s21.15-43.43 39.31-52.41 38.78 2.71 58.52 2.54 14.35 9.63 32.66 18.3 48.52 20 62.62 36.21 35.63 15.08 43.37 36.33-7.19 37.9-24.48 67.44l-113.78 1z"/><path fill="#323665" d="M69.76 207.93l-.13.16.11.06a.14.14 0 00.11 0A.13.13 0 0070 208a.1.1 0 00-.13-.07s-.09-.02-.11 0z"/><path fill="none" stroke="#323665" d="M69.78 210.09l-.14-1.46v-.54m0 0l.13-.16a.1.1 0 01.13.07.13.13 0 01-.09.16.14.14 0 01-.11 0z"/><path fill="#323665" d="M68.33 208.19l.21.07-.07.12a.13.13 0 01-.09.07.15.15 0 01-.18-.1.11.11 0 01.07-.14z"/><path fill="none" stroke="#323665" d="M69.53 210.17l-.7-1.41-.29-.5m0 0l-.21-.07h-.07a.11.11 0 00-.07.14.15.15 0 00.18.1.13.13 0 00.09-.07z"/><path fill="#fe8d85" d="M61.73 215l-.46-.53a12.65 12.65 0 01-2.64-4.87l1.67-.47a10.34 10.34 0 017.7.87l1.08.58 2.53 7.51v1.11a4.1 4.1 0 01-1.53 3.28 4.16 4.16 0 01-2 .88l-1.74.24v-1.06a7.56 7.56 0 01.81-3.05 4.51 4.51 0 011.11-1.38l1.27-1.11-.8.13a8.15 8.15 0 01-6.17-1.51l-.56-.41a2.16 2.16 0 01-.27-.21z"/><path fill="#f7776d" d="M79 210.21l.11-.69a12.52 12.52 0 00-.3-5.51l-1.68.46a10.55 10.55 0 00-3.2 1.53 10.33 10.33 0 00-2.87 3.16l-.61 1.05 1.77 7.79.57 1a4.15 4.15 0 003 2 4.24 4.24 0 002.2-.3l1.61-.7-.6-1a7.33 7.33 0 00-2.29-2.18 4.63 4.63 0 00-1.67-.62l-1.59-.2.74-.3a8 8 0 004.49-4.47l.26-.64a2.42 2.42 0 00.06-.38z"/><path fill="#f35046" d="M71.9 218.16h-.14a.39.39 0 01-.14-.17l-2.45-7.27a.33.33 0 010-.24.44.44 0 01.12-.18l.09-.06a.9.9 0 01.24-.12h.07a.91.91 0 01.23 0h.18a.41.41 0 01.31.14.44.44 0 01.1.19l1.71 7.49a.17.17 0 010 .1.2.2 0 01-.1.15.34.34 0 01-.22-.03z"/><path fill="#323665" d="M94.14 221h.14v.15a.09.09 0 01-.13 0 .07.07 0 010-.09z"/><path fill="none" stroke="#323665" d="M95.26 221.89l-.7-.67-.28-.23m0 0h-.17a.07.07 0 000 .09.09.09 0 00.13 0v-.06z"/><path fill="#323665" d="M94.87 220.37l-.05.14h.09a.1.1 0 00.07 0 .09.09 0 000-.13.08.08 0 00-.11 0v-.01z"/><path fill="none" stroke="#323665" d="M95.4 221.79l-.44-.93-.14-.35m0 0l.05-.14a.08.08 0 01.11 0 .09.09 0 010 .13.1.1 0 01-.07 0z"/><path fill="#51bfa6" d="M100.49 220.46l-.1-.37a9.65 9.65 0 00-1.61-3.24l-.72.49a5 5 0 00-1.46 1.52 4.91 4.91 0 00-.69 2.13l-.07.86 3 4.26.76.65a2.4 2.4 0 001.88.55 2.36 2.36 0 001.28-.61l.62-.59-.65-.5a5.25 5.25 0 00-1.67-.84 3.31 3.31 0 00-1.21-.1l-.86.1.1-.09a4.45 4.45 0 001.5-3.62v-.34a1 1 0 00-.1-.26z"/><path fill="#96d9c8" d="M92.37 226.07l-.33-.2a10 10 0 01-2.74-2.48l.72-.49a5.26 5.26 0 012-.83 5.64 5.64 0 012.35 0l.88.21 3.33 4 .4.88a2.09 2.09 0 010 1.87 2.29 2.29 0 01-1 1l-.79.37-.29-.74a4.5 4.5 0 01-.31-1.77 2.72 2.72 0 01.28-1.12l.37-.74-.12.06a5.09 5.09 0 01-4.1.21l-.33-.12a1.27 1.27 0 01-.32-.11z"/><path fill="#00b49d" d="M98.73 226.27v-.08a.23.23 0 000-.14l-3-4.28a.32.32 0 00-.13-.1h-.21a.3.3 0 00-.16.08.38.38 0 00-.11.11l-.07.09a.28.28 0 000 .35l3.39 4a.15.15 0 00.13 0 .2.2 0 00.16-.03z"/><path fill="#764a4e" d="M306.9 18.9l-2.45 6.77a57 57 0 00-2.76 10.83l-3.06 20-2.11 25.18 60.73 52.78.68-.31a154.92 154.92 0 0041.17-27.64l6.9-7.76a18.22 18.22 0 002.8-20.06l-.57-1.17a21.24 21.24 0 00-3.84-5.52l-9.65-9.92a72.87 72.87 0 00-8.45-7.45l-.55-.41a68.38 68.38 0 01-14.57-14.94l-.59-.81A59.82 59.82 0 01364 26.62l-2.7-6.56a33 33 0 00-10.46-13.63l-1.41-1.07a26.21 26.21 0 00-22.5-4.51l-.42.11A28.69 28.69 0 00306.9 18.9z"/><path fill="#fca394" d="M290.33 116.39L277 100.81l-15.11 19.72a2 2 0 01-2.65.47l-15.36-9.54-18.29-14.76a7.94 7.94 0 01-2.82-4.7l-3.35-18.3a.54.54 0 00-1.06 0l-.3 1.57a1.87 1.87 0 000 .34l.09 8.62a1.48 1.48 0 01-.64 1.23 1.5 1.5 0 01-1.65 0l-21.18-13.91a.59.59 0 00-.84.2.61.61 0 000 .61l1 1.53a3.35 3.35 0 00.58.66l9.07 8a.68.68 0 01.23.44.71.71 0 01-.62.81.74.74 0 01-.46-.09l-10.56-5.64a3.46 3.46 0 00-.57-.24l-1.89-.57a.7.7 0 00-.82.32.69.69 0 000 .73l.69 1a2.52 2.52 0 00.8.76L202 86.65a.52.52 0 01.17.16.55.55 0 01-.31.84l-.42.12a.82.82 0 01-.38 0L190.1 86a1.59 1.59 0 00-.72 0l-.72.2a.47.47 0 00-.1.86l2.31 1.28L194.1 90l4.84 1.73a1.29 1.29 0 01.3 2.29l-.39.27a2.23 2.23 0 01-1.11.37l-1.19.07a6.43 6.43 0 01-1.58-.1l-4.09-.77h-1.24a.24.24 0 00-.19.38 4.64 4.64 0 001.24 1.22l.16.11a5.57 5.57 0 002.39.9l3.24.44a19.74 19.74 0 012.75.57l2 .57 8.18 3.37a24.75 24.75 0 018.09 5.42L245.71 137l11.6 9.53a9 9 0 004.51 2h.11a8.72 8.72 0 006-1.42 8.56 8.56 0 002.21-2.16zm1.34 350.68l-9.54-84a12.66 12.66 0 01.57-5.43l20.42 5.36 3.08 22.27a195.76 195.76 0 011.43 39.73l-1.31 23.45 1.88 5.68a1.21 1.21 0 01-1.54 1.52 1.13 1.13 0 00-.68 0l-12.08 3-12 2.71a15.3 15.3 0 01-7.12-.08l13.83-6.67a5.52 5.52 0 001.46-1 5.35 5.35 0 001.57-3.79z"/><path fill="#008c79" d="M264.34 487l8.13-4.5a17.55 17.55 0 014.76-1.79l30.77-6.63a1.83 1.83 0 012 1.05 10.9 10.9 0 01.86 3.6l.16 2.69a19.12 19.12 0 01-.54 5.79 3.23 3.23 0 01-3.14 2.44h-42.6a1.17 1.17 0 01-1.17-1.16v-.19a1.48 1.48 0 01.77-1.3z"/><path fill="#fca394" d="M344.57 468.53l-9.54-84a12.82 12.82 0 01.57-5.43l23.53-2.32 2.71 49.69-1.31 19.91-1.31 23.45 2.1 6.06a1.12 1.12 0 01-1.68 1.29 1.11 1.11 0 00-.89-.15l-11.95 3-12 2.71a15.3 15.3 0 01-7.12-.08l13.86-6.66a5.35 5.35 0 003-4.82z"/><path fill="#008c79" d="M317.25 488.44l8.12-4.5a17.22 17.22 0 014.76-1.79l30.74-6.61a1.82 1.82 0 012.05 1 10.9 10.9 0 01.86 3.6l.16 2.69a18.81 18.81 0 01-.54 5.79 3.22 3.22 0 01-3.14 2.44h-42.6a1.17 1.17 0 01-1.17-1.16v-.19a1.46 1.46 0 01.76-1.27z"/><path fill="#f35046" d="M275.15 282.51l27.61-93 24.05 3.1 25.82-.88a187.53 187.53 0 0116.56 31.68l3.29 8.13a277.82 277.82 0 0114.68 48.31l2.72 13.15a427 427 0 0021.94 72.62l3.6 8.93a263.93 263.93 0 01-57.17 9.63l-3.83.22a298.93 298.93 0 01-73.32-4.87l-26-5 6.23-27z"/><path fill="#00b49d" d="M271.39 99.76L286 125.7l11.78-16.78a.79.79 0 01.31-.26h.07a.72.72 0 01.94.35.7.7 0 010 .53l-2.28 6.46a17.62 17.62 0 00-1 5.89v1.82l.34 1.27a18.84 18.84 0 002.24 5.19 18.75 18.75 0 012.86 9.48l1.25 51.15a100 100 0 0040.49 3.47l8.93-1.07a140.33 140.33 0 012.92-24.51l3.73-17.79 7.27-23.61a2.53 2.53 0 01.51-.94l.29-.33a2.12 2.12 0 012.77-.41 2.07 2.07 0 01.86 1.09l5.08 14.52 23-9.48-12-29.73a45.22 45.22 0 00-6.66-11.31l-2.49-3.09a30.78 30.78 0 00-24.06-11.55h-36a44.6 44.6 0 00-27.38 9.41z"/><path fill="#fca394" d="M385.93 163.29l-8.81-22.9 18.95-7.83 10 35.73.48 2.46a3.38 3.38 0 01-1.66 3.6l-20.75 11.87-41.48 19.48a25.06 25.06 0 01-11.47 2.37l-8.28-.25-1.07-.17a9.94 9.94 0 01-4.47-1.89l-3.9-2.95a.5.5 0 01-.19-.41.49.49 0 01.62-.46l1.16.33 4.76 2a5.53 5.53 0 002 .44l5.42.16a.22.22 0 00.23-.21.23.23 0 00-.22-.23h-1.69l-2.53-.5a29.28 29.28 0 01-6.85-2l-4.36-1.84a3.1 3.1 0 01-.47-.26l-1-.68a.3.3 0 01-.12-.24.28.28 0 01.3-.28l2.81.08a3.11 3.11 0 01.9.17l2.42.82a20.4 20.4 0 005.9 1.06l3.65.12h.66a.23.23 0 00.23-.23.21.21 0 00-.2-.23l-5.56-.6-3.1-.54-4.68-1.42a1 1 0 01-.33-.16l-.73-.51a.44.44 0 010-.67.48.48 0 01.17-.1l.54-.16a2.81 2.81 0 011.44 0l1 .23a6.44 6.44 0 001 .15l4.78.37a17 17 0 007.81-1.24l.41-.17a.41.41 0 000-.74l-.38-.21a9 9 0 00-3.15-1l-2.88-.35a1 1 0 01-.56-.28.93.93 0 010-1.31.88.88 0 01.53-.25l8.2-1a26.05 26.05 0 016.24 0l5.93.69a3.27 3.27 0 002.14-.48L385 166a2.26 2.26 0 00.93-2.71zM322.56 75L321 53.21l17.87-1.67 2.74 25.93a28 28 0 01-.1 6.78l-.65 4.81a13.78 13.78 0 01-3.86 7.88l-1 1a8.68 8.68 0 01-4 2.3l-.57.14a7.41 7.41 0 01-9.21-6.84l-.1-2.23z"/><path fill="#f88570" d="M338.88 51.54L321 53.21l1.79 1.64a13.21 13.21 0 0016.4 1.15z"/><path fill="#fca394" d="M346.92 42.41c-4 9.33-12.11 15.19-20.4 13.84-8.7-1.42-14.85-10.34-15.41-21.19a3.4 3.4 0 01-2.16.46c-2.48-.35-4.09-3.64-3.6-7.35s2.89-6.45 5.37-6.1a3.44 3.44 0 012 1.09C316.29 12.45 325.05 5.45 334 6.91c9.46 1.54 15.9 12 15.43 24.06a3.54 3.54 0 012.79-.32c2.38.78 3.45 4.27 2.38 7.79s-3.86 5.74-6.24 5a3.34 3.34 0 01-1.44-1.03z"/><path fill="#764a4e" d="M312.59 22.84l4.9-14.46 16.15-3.5 16.69 7.6-.56 18.34-1-.89a51.12 51.12 0 01-15.63-23.29l-10.08 9z"/><path fill="#ffcdc7" d="M152.8 470.25l2.8-57.76 1.42-14 21.87 7.72-1 6.17a39.17 39.17 0 00-.45 5.93 38.56 38.56 0 01-.57 6.61L174 442l-5.36 26.1a58.76 58.76 0 00-1 16.69c-9.41-2.11-28.37-6.32-28.93-6.32s2.59-.93 4.23-1.4l6.91-2.64a4.65 4.65 0 002.86-3.22 4.75 4.75 0 00.09-.96z"/><path fill="#243e58" d="M168.29 486.8l-.32 1.89a2.21 2.21 0 01-.66 1.25 2.19 2.19 0 01-1 .56l-.56.15a24.28 24.28 0 01-10.84-.89l-21.58-6.89-.19-.54a1.15 1.15 0 01.49-1.34l3.22-1.92a12.23 12.23 0 011.54-.76l2.84-1.15a6.17 6.17 0 013.7-.28l19.62 4.59.76.15a3.68 3.68 0 013 3.82v1.35z"/><path fill="#ffcdc7" d="M201.82 474.1l-10.88-56.8-1.93-14 23.09 2.41.52 6.23a40.19 40.19 0 00.95 5.86 38.51 38.51 0 011 6.57l1.14 17.27.93 26.62a58.77 58.77 0 003 16.46c-9.64.14-29.07.46-29.61.59s2.29-1.51 3.78-2.35l6.09-4.17a4.63 4.63 0 002-3.8 4 4 0 00-.08-.89z"/><path fill="#243e58" d="M220.81 487.12l.06.8a4 4 0 01-.61 2.44 5.23 5.23 0 01-2.37.56l-32.46-.14a.49.49 0 01-.38-.82l1.29-1.47a25.62 25.62 0 014.86-4.32l1.4-1a4.68 4.68 0 012.66-.83l20.64-.11h.77a3.71 3.71 0 013.79 3l.19.79a6.47 6.47 0 01.16 1.1z"/><path fill="#76ade0" d="M223.33 407.82l-7-37.45v-5.23h-60.48l-1.75 4.35c-.88 5.81-4.38 16.73-4.38 17.43a164.36 164.36 0 01-6.14 20.9l-8.76 24.4 36.8 7 10.43 1.42a99.25 99.25 0 0038.17-2.28l10.12-2.62z"/><path fill="#ffcdc7" d="M240.05 321.58l-7.75-12.45-.6-.59 14.92-8.9L258 289l7.41-7.92a2.11 2.11 0 00.48-.88l.21-.86a5.89 5.89 0 01.84-1.88l3-4.47 3.43-5.69a.51.51 0 01.43-.24.5.5 0 01.45.28l.22.43a1.28 1.28 0 01.07 1l-.43 1.27-.49 1.47a2 2 0 00-.1.64v.85a.37.37 0 00.53.33l.66-.33 2.77-1.65a2.88 2.88 0 00.39-.3l2.81-2.8 2.05-2a1.13 1.13 0 01.81-.34 1.17 1.17 0 011 .64 1.19 1.19 0 010 1.07l-.24.46a1.69 1.69 0 01-.23.36l-2.25 2.8-1.82 2.3-.89 1.33a.29.29 0 00.25.45h.09l1.3-.43a2.17 2.17 0 00.78-.48l4.89-4.87a2.42 2.42 0 01.31-.25l1.36-.9a1.1 1.1 0 01.58-.18 1.06 1.06 0 011 1.4l-.08.23a1.11 1.11 0 01-.14.29l-1 1.48a1.42 1.42 0 01-.25.3l-2.84 2.83c-1 .79-3.1 2.49-3.58 3a2.25 2.25 0 00-.54.87.56.56 0 00.18.55.79.79 0 00.84.18l4.29-1.6 2.39-1.18 1.49-.5a1 1 0 01.6 0 1 1 0 01.38 1.6l-.68.68-2.73 2.16a1.83 1.83 0 01-.42.26l-5.26 2.38a.2.2 0 00.11.38l5.09-.46a1.33 1.33 0 01.56.06l.59.2a.84.84 0 010 1.6l-1.46.48-13.4 3.48a1.91 1.91 0 00-.6.27L272 290a2.07 2.07 0 00-.5.48l-14.71 19.88z"/><path fill="#ffaea1" d="M273 282.88l-.31.86.44-.75a9.15 9.15 0 001.23-3.91l.06-.74a1.36 1.36 0 000-.35 1.73 1.73 0 00-.27-.77l-.51-.76.14 1.18a5.18 5.18 0 010 1.18l-.05.69a13 13 0 01-.73 3.37z"/><path fill="#ffcdc7" d="M142.05 322.13l8.75-11.8.64-.54-14.14-10.06-10.42-11.55-6.73-8.5a1.92 1.92 0 01-.4-.91l-.15-.88a5.91 5.91 0 00-.68-1.94l-2.62-4.7-3-5.94a.5.5 0 00-.41-.28.52.52 0 00-.47.24l-.25.41a1.3 1.3 0 00-.15 1l.32 1.3.37 1.51a2 2 0 010 .64l-.07.86a.36.36 0 01-.55.28l-.64-.38-2.53-1.89a1.42 1.42 0 01-.36-.33l-2.57-3-1.88-2.2a1.16 1.16 0 00-1.87.15 1.2 1.2 0 00-.08 1.06l.19.48a2 2 0 00.2.38l2 3 1.59 2.51.77 1.39a.29.29 0 01-.28.43h-.09l-1.26-.53a2.08 2.08 0 01-.74-.54l-4.48-5.25a1.79 1.79 0 00-.28-.27l-1.28-1a1.06 1.06 0 00-1.68 1.09v.23a1.2 1.2 0 00.13.31l.86 1.55a1.94 1.94 0 00.23.33l2.6 3c.92.87 2.89 2.73 3.32 3.24a2.2 2.2 0 01.47.91.58.58 0 01-.22.54.8.8 0 01-.85.11l-4.15-1.94-2.21-1.37-1.44-.61a1 1 0 00-.61-.05 1 1 0 00-.5 1.56l.62.73 2.59 2.43a2.13 2.13 0 00.4.29l5 2.79a.2.2 0 01-.13.37l-5-.86a1.37 1.37 0 00-.57 0l-.6.15a.85.85 0 00-.13 1.6l1.41.59 13.07 4.54a2.16 2.16 0 01.58.31l1.15.91a2 2 0 01.46.51l13 21z"/><path fill="#ffaea1" d="M112.37 280.91l.24.88-.38-.78a9.22 9.22 0 01-.91-4v-.74a2 2 0 010-.35 1.73 1.73 0 01.34-.74l.56-.72-.23 1.16a5.91 5.91 0 00-.12 1.18v.69a12.76 12.76 0 00.5 3.42z"/><path fill="#ffc365" d="M161.84 268.92l-1.13 5.62L194 309.39l12.9-2.57a34.57 34.57 0 0015.95-7.82l5.32-4.63a8.62 8.62 0 002.52-3.78 1 1 0 00-.05-.73l-.38-.76a3.07 3.07 0 00-.88-1.05l-.92-.68a9.83 9.83 0 01-3.07-3.81l-3.33-7.28-1.54-4.58a39.86 39.86 0 00-2.73-6.29L216 262.2a24.29 24.29 0 00-16.27-12.2l-2-.43a34.67 34.67 0 00-11-.55l-7 .77a18.75 18.75 0 00-6.21 1.82 18.55 18.55 0 00-8.52 8.79l-1.2 2.57a27.1 27.1 0 00-1.96 5.95z"/><path fill="#ffc365" d="M173.7 307.87l4.54.65.87-20.91-20.11-3.48-.09.55a9.32 9.32 0 01-5 6.78 1.83 1.83 0 00-1 1.64v.54a.21.21 0 000 .12 28.68 28.68 0 0020.79 14.11z"/><path fill="#f77962" d="M159.84 309.39l9.45-1.11a71.1 71.1 0 0110.92-.42l16.43.66h9.16l11 .87v3a43.23 43.23 0 01-.44 6.12 43.37 43.37 0 00-.44 6.13v17.83l2.63 27.88-67.48-.88z"/><path fill="#ffcdc7" d="M178.24 307.65v-1.75l.87-3.48 9.64.87 6.14 1.74.88.87v2.62a2.69 2.69 0 01-.51 3.11l-1.16 1.15a4.85 4.85 0 01-2.29 1.29l-1.1.28a9.5 9.5 0 01-2.19.26h-1.38a11.76 11.76 0 01-3.68-.59l-2.08-.69a4.64 4.64 0 01-2.27-1.62l-.57-.77a3.11 3.11 0 01-.3-3.29z"/><path fill="#ffaea1" d="M195.73 307.39l.18-2.14-17.06-.47 4.82 2.05a18.07 18.07 0 002.69.9l.37.1a14.76 14.76 0 003.56.43 15.18 15.18 0 003.36-.38z"/><path fill="#f77962" d="M242.21 323.33l-20.77 15.48a16.84 16.84 0 00-6.52 7.16v-36.58l16.65-4.39zm-109.94-4.64l17.39 18.49a20.68 20.68 0 014.92 8.79l6-36.44-15.58-7.18z"/><path fill="#ffcdc7" d="M208.6 293.6c-5.12 9.07-14.71 14.8-24.72 13.76-11.15-1.16-19.28-10.38-20.35-21.88a5.6 5.6 0 01-2.85.54c-3.35-.29-5.66-3.74-5.16-7.71s3.63-6.95 7-6.66a5.17 5.17 0 012.72 1.07c4.23-11.51 15.2-19.29 26.72-18.09 13.1 1.36 22 13.85 20.25 28.07a6 6 0 014.13-.61c3.24.75 4.82 4.43 3.53 8.21s-5 6.23-8.2 5.48a4.9 4.9 0 01-3.07-2.18z"/><path fill="#ffc365" d="M180 263.62l-.74-.51a3.94 3.94 0 01-1-5.6 3.92 3.92 0 011.59-1.29l1.36-.62a9.32 9.32 0 012.59-.77l1.21-.19a18.71 18.71 0 015.59 0l2.56.39a8.5 8.5 0 017.87 6.62l.16.69.89 4.86-2.67-1.62a13.92 13.92 0 00-3.73-1.1l-.34-.06a21.85 21.85 0 00-6.15-.06l-3.17.41h-2.49a6.42 6.42 0 01-3.53-1.15z"/><path fill="#008c79" d="M57.86 488.79H465a3.42 3.42 0 013.43 3.42 3.43 3.43 0 01-3.43 3.43H57.86a3.43 3.43 0 01-3.42-3.43 3.42 3.42 0 013.42-3.42z"/></symbol><symbol viewBox="0 0 487 368" id="design--design_group2" xmlns="http://www.w3.org/2000/svg"><path d="M349.502 36.291s9.62-3.488 15.836 6.258c6.216 9.746 2.858 8.823 5.882 13.698 3.025 4.87 4.481 18.727 5.525 26.213 10.664 76.377-116.896 82.57-67.081-14.788 4.671-9.133 8.624-14.621 12.826-24.367 4.198-9.746 21.969-9.366 27.012-7.014z" fill="#B75742"/><path d="M322.212 107.644l-12.863-4.495s-5.108 6.522-6.638 22.851c-1.531 16.323 0 25.921 0 25.921h14.551l4.95-44.277z" fill="#355389"/><path d="M347.985 98.882c-4.365.45-36.827-2.635-38.636 4.267-9.723 37.11 3.65 88.34 7.064 91.759 3.419 3.419 59.209-7.71 59.209-7.71s8.754-92.07-27.637-88.317z" fill="#466EB6"/><path d="M392.294 60.84s-3.586-1.708-6.842-7.748c-2.092-3.873-8.308-8.841-5.72-9.644 2.589-.802 6.555 5.748 7.297 3.87.742-1.875-6.661-16.055-4.314-16.784 2.347-.728 8.484 13.068 9.148 11.388.663-1.679-6.267-13.73-2.955-14.76 3.317-1.03 6.898 14.834 8.674 14.282 1.777-.552-.812-12.654 1.856-13.48 2.667-.825 2.291 14.965 3.252 14.51.519-.245 2.885-7.895 4.337-7.32 1.637.65-2.783 16.352-.821 19.812 1.962 3.46 17.683 46.49 12.311 51.866-5.854 5.859-43.122 19.288-50.92 16.978-7.797-2.31-12.264-10.015-10.39-14.756 1.874-4.741 38.719-15.387 39.304-16.871.58-1.484-4.217-31.344-4.217-31.344z" fill="#F7A491"/><path d="M395.281 47.248c1.127-.047 2.236.204 3.303.598.158.111 3.688 1.141 5.209 5.047-1.679-2-3.544-4.207-8.512-5.645z" fill="#F48C7F"/><path d="M6 362h475" stroke="#404783" stroke-width="11" stroke-linecap="round"/><path d="M166.443 327.975s1.09 9.412 1.09 11.008v1.595l-.784 1.624-.311.645 5.627 7.899s22.605.334 23.106.334c.506 0-3.025-5.459-3.025-5.459s-7.477-5.632-8.822-9.579c-1.346-3.948 1.141-12.182 1.141-12.182l-18.022 4.115zm-108.95-56.31s-8.048 4.996-9.3 5.989l-1.253.992-.784 1.624-.31.645-9.686.501s-14.316-17.493-14.631-17.887c-.315-.395 4.12.593 4.12.593s9.035 1.22 12.965-.18c3.928-1.401 11.88-9.232 11.88-9.232l7 16.955z" fill="#F7A491"/><path d="M130.646 183.372l-86.712 73.853 13.36 18.903s89.105-55.331 93.767-55.957c4.662-.631 8.442 1.512 9.328 4.912.882 3.405 3.127 105.504 3.127 105.504h23.152l12.07-128.549-68.092-18.666z" fill="#50BFA5"/><path d="M255.572 78.035c6.415-4.207 21.486-20.378 26.589-25.884.056-.65.543-4.389 4.648-9.143 2.899-3.359 5.093-11.017 6.995-8.846 1.902 2.17-2.816 8.257-.659 8.299 2.162.041 12.882-12.015 14.608-10.043 1.721 1.966-9.166 12.682-7.232 12.719 1.934.037 10.771-10.818 13.207-8.034 2.435 2.783-11.583 11.8-10.28 13.294 1.308 1.494 9.997-4.42 11.959-2.18 1.962 2.24-12.256 7.515-11.119 7.534 1.136.023 9.338-.2 9.398 1.377.069 1.786-20.749 4.565-23.301 7.654-5.441 8.66-15.122 24.483-24.928 31.423-12.001 8.493-39.731 26.51-39.731 26.51l-13.772-17.794c.004 0 36.01-21.9 43.618-26.886z" fill="#F7A491"/><path d="M293.15 46.292c.534 1.053.761 2.194.84 3.344-.042.186.464 3.906-2.709 6.736 1.238-2.3 2.597-4.857 1.869-10.08z" fill="#F48C7F"/><path d="M128.456 58.566c-5.093-5.738-15.41-25.285-18.898-31.938.116-.64.626-4.378-2.092-10.038-1.92-3.998-2.036-11.968-4.439-10.367-2.403 1.6.561 8.707-1.536 8.178C99.395 13.877 92.195-.564 90.02.888c-2.18 1.447 5.53 14.635 3.655 14.167-1.874-.469-7.57-13.258-10.646-11.207-3.08 2.05 8.095 14.422 6.443 15.52-1.651 1.1-8.493-6.878-10.97-5.232-2.477 1.647 9.862 10.456 8.762 10.182-1.104-.278-8.962-2.634-9.435-1.127-.533 1.707 18.834 9.834 20.49 13.48 2.987 9.784 8.196 27.587 15.845 36.85 9.361 11.338 31.414 35.979 31.414 35.979l17.947-13.573c-.004-.005-29.034-30.556-35.069-37.36z" fill="#F7A491"/><path d="M100.485 18.098c-.789.877-1.308 1.92-1.684 3.01-.01.19-1.47 3.651.853 7.209-.589-2.542-1.238-5.367.831-10.22z" fill="#F48C7F"/><path d="M166.777 99.095a13.127 13.127 0 0111.792-5.794c13.768.937 41.688 3.145 44.337 5.794 3.53 3.53 14.115 26.552 4.031 58.815-10.085 32.262-15.628 28.904-23.862 28.904-8.234 0-47.051-18.314-47.051-18.314l10.753-69.405z" fill="#355389"/><path d="M142.999 71.703L126.81 92.818l20.095 29.897s-1.893 22.21-4.792 29.145c-2.899 6.931-19.659 35.417-19.659 35.417s40.709 24.957 80.538 21.301c0 0 11.216-57.724 14.366-63.268 3.15-5.548 33.524-33.023 33.524-33.023l-14.747-23.824-25.457 14.12s-46.536-7.52-48.776-9.76c-2.241-2.24-18.903-21.12-18.903-21.12z" fill="#F7CC7F"/><path d="M195.514 28.516s-15.712-8.317-21.088 5.46c0 0-14.116-1.429-11.68 13.193 0 0-14.199 7.143-5.21 25.54 0 0-3.947 17.308 16.301 18.402 0 0 3.024 6.133 12.269 4.704 9.241-1.429 11.597-3.864 11.597-3.864s16.384 4.787 21.343-9.996c0 0 11.258-2.69 3.697-17.14 0 0 9.83-18.736-7.477-24.368-.005 0-2.023-19.153-19.752-11.93z" fill="#F47458"/><path d="M201.86 69.11c-1.276 3.563-.362 7.148 2.05 8.016 2.408.862 5.395-1.327 6.671-4.89 1.276-3.562.357-7.153-2.051-8.015-2.407-.863-5.394 1.326-6.67 4.889zm-42.38-8.749c-.181 3.781 1.749 6.945 4.305 7.065 2.556.12 4.773-2.848 4.95-6.629.176-3.78-1.749-6.944-4.305-7.064-2.556-.116-4.773 2.848-4.95 6.629zm17.971 25.04c0 .246-2.041 9.023-3.127 13.657a3.726 3.726 0 002.088 4.235c4.318 1.972 12.816 4.727 18.684-.594a2.468 2.468 0 00.798-1.906l-.719-20.94-17.724 5.548z" fill="#F7A491"/><path d="M176.356 90.314c4.569 2.305 10.321 2.352 16.774-1.429a25.307 25.307 0 002.31-1.526l-.26-7.5-17.729 5.547c0 .116-.478 2.231-1.095 4.908z" fill="#F48C7F"/><path d="M190.022 37.056s7.737 2.046 12.283 9.575c4.546 7.528 7.056 29.289-9.18 38.807-16.235 9.519-28.05-5.223-27.744-19.167.311-13.944 6.508-31.77 24.641-29.215z" fill="#F7A491"/><path d="M163.53 93.552c-7.473 5.654-15.299 34.618-18.263 42.18l-2.384 13.888 30.416-53.726s-8.16-3.562-9.769-2.342zm36.929 7.329s-.909 35.69 1.777 47.955c2.69 12.269 9.722 16.556 9.722 16.556l3.461-14.274s-3.461-31.52-4.736-48.535c-.195-2.584-10.224-1.702-10.224-1.702z" fill="#466EB6"/><path d="M162.324 356.526c-3.451-.436 2.509-12.404 4.43-14.324l25.402 3.419s12.223 5.673 15.122 8.567c.686.687.779 1.893-2.204 2.338-9.588 1.424-35.092.97-42.75 0zm-124.88-63.699c2.983 1.791 8.406-9.866 8.716-12.561l-20.507-16.153s-15.823-4.536-19.02-1.345c-2.903 2.904 24.039 25.991 30.811 30.059z" fill="#13375B"/><path d="M424.032 307.11s7.209 29.396 12.58 34.011c5.372 4.616 22.893 13.443 18.305 14.394-4.583.951-38.506 1.74-37.579-3.92.928-5.659 1.907-9.268 1.907-9.268l-8.971-20.995 13.758-14.222z" fill="#F79C8D"/><path d="M457.199 356.721c-8.275.821-32.429 1.694-39.471.794 0 0-1.317-.26-.389-5.919.227-1.383.459-2.645.672-3.758 6.383 1.679 20.285-1.892 25.796-2.625 5.984 2.866 12.724 7.143 14.9 7.501 3.154.514 3.149 3.544-1.508 4.007z" fill="#13375B"/><path d="M344.923 331.755s-.756 7.436-.756 10.711c0 3.275 3.052 12.52 1.638 13.935-1.415 1.415-41.823 1.239-41.823-.093 0-1.331 7.139-5.367 16.843-8.136 9.704-2.774 13.002-13.522 10.483-19.696l13.615 3.279z" fill="#F79C8D"/><path d="M303.332 356.401c0-1.238 6.624-5.047 15.211-7.672 9.143 3.089 21.843.542 26.607-.371 1.457 3.808 1.921 7.422 1.174 8.173-1.419 1.42-42.992 1.202-42.992-.13z" fill="#13375B"/><path d="M388.783 207.489l7.245 6.429s8.16 22.089 8.633 23.546c.659 2.027 27.086 87.19 27.086 87.19l-18.412 6.624s-18.253-35.565-21.282-47.914c-3.025-12.353-33.274-64.024-33.274-64.024l30.004-11.851zm-32.012 13.104l-8.823 112.87h-20.415s-7.311-84.472-4.788-114.132l34.026 1.262z" fill="#FAE0B2"/><path d="M320.978 106.911s12.979-3.404 27.731-4.221c7.635-.422 17.896 1.197 17.896 1.197s9.328 20.921 12.098 38.061c2.774 17.14 17.896 72.09 17.896 72.09s-30.755 23.695-75.621 8.067V106.911z" fill="#50BFA5"/><path d="M355.931 88.175s-.404 13.383.853 14.64c1.258 1.257 3.011 3.34 1.165 6.532-1.851 3.191-9.871 1.155-13.61-.673-3.591-1.753-5.905-5.019-5.905-5.019l1.874-21.2 15.623 5.72z" fill="#F79C8D"/><path d="M350.596 93.723c-2.579-.9-7.078-2.644-10.553-8.29l.26-2.968 15.628 5.715s-.097 3.266-.046 6.721c-2.19-.097-4.059-.75-5.289-1.178z" fill="#B75742"/><path d="M337.547 67.329s-.38-7.868-5.209-6.341c-4.833 1.526-1.15 13.4 2.858 13.011 4.003-.39 2.351-6.67 2.351-6.67z" fill="#F79C8D"/><path d="M352.739 41.625s7.562-.167 11.426 5.715 8.066 22.684 1.679 34.28c-6.388 11.597-14.533 8.74-17.896 7.562-3.364-1.178-9.997-3.78-13.36-14.621-3.358-10.837-.923-35.204 18.151-32.936z" fill="#F79C8D"/><path d="M322.421 106.559c3.446 7.784 11.93 24.543 11.541 43.029-.408 19.362-14.969 31.928-14.969 31.928v9.57s16.073-2.533 22.214-27.55c6.147-25.016-8.637-59.004-8.637-59.004s-2.111-1.503-6.29-.339c-2.793.779-3.859 2.366-3.859 2.366zm35.305-3.939s12.075 64.999 27.74 69.21l-2.728-11.081s-16.138-52.59-16.138-56.862c0-4.272-8.874-1.267-8.874-1.267z" fill="#355389"/><path d="M390.401 213.844h-46.86v-53.401l46.86 2.082v51.319z" fill="#F47458"/><path d="M390.402 158.364h-44.778a2.084 2.084 0 000 4.166h44.778l-.037-.014c-3.094-1.164-3.081-3.001.037-4.152z" fill="#B75742"/><path d="M389.121 158.977h-41.953c-.811 0-1.465.654-1.465 1.465 0 .812.654 1.466 1.465 1.466h41.953c-1.424-.904-1.419-2.022 0-2.931z" fill="#FAE0B2"/><path d="M369.861 159.278h-2.95a1.15 1.15 0 00-1.151 1.151v.102h4.101v-1.253z" fill="#13375B"/><path d="M367.031 159.283c.706 0 1.758.598 2.352 1.331l7 8.679 4.11-.005-6.657-8.252c-.783-.969-2.17-1.758-3.098-1.758l-3.707.005z" fill="#355389"/><path d="M320.978 106.911s3.535 3.54 7.315 16.969c3.781 13.429 5.706 44.87 8.986 48.145 3.275 3.275 24.701 20.332 28.565 19.747 3.864-.589 12.52-10.669 15.21-10.669 2.691 0 2.352 2.435 1.007 3.781-1.345 1.345-2.983 2.899-2.185 3.697l.798.798s11.973-3.15 13.99-1.976c2.018 1.178-1.934 3.947-1.934 5.965s.492 1.981.251 4.203c-.242 2.222-.798 3.989-1.847 5.042-1.048 1.048-14.282 4.875-27.224 3.108-12.938-1.763-28.737-7.983-40.413-22.433-11.68-14.454-9.338-59.872-9.074-64.404.673-11.467 6.555-11.973 6.555-11.973z" fill="#F79C8D"/></symbol><symbol viewBox="0 0 392 371" id="design--design_group3" xmlns="http://www.w3.org/2000/svg"><path d="M388.905 363.794H3.097C2.49 363.794 0 365.107 0 367s2.492 3.644 3.097 3.644h385.806c.605 0 2.597-1.751 2.597-3.644.001-1.888-1.99-3.206-2.595-3.206z" fill="#414DAF"/><path d="M77.575 99.498s-5.594 69.025-5.594 75.021c0 5.996 23.818 7.69 23.818 7.69l7.282-70.835-25.507-11.876z" fill="#466EB6"/><path d="M113.103 82.696s-15.455-8.272-28.196-.694C72.167 89.587 68.7 134.137 68.7 134.137l40.81 4.89 3.594-56.33z" fill="#86B1F2"/><path d="M207.474 309.932s-7.81 31.85-13.63 36.85c-5.82 5.001-24.803 14.565-19.832 15.596 4.965 1.03 41.72 1.884 40.714-4.247-1.005-6.132-2.065-10.037-2.065-10.037l9.725-22.747-14.912-15.415z" fill="#F47458"/><path d="M171.539 363.679c8.966.89 35.136 1.835 42.765.86 0 0 1.433-.282.423-6.413a138.79 138.79 0 00-.734-4.071c-6.916 1.819-21.979-2.051-27.944-2.845-6.484 3.106-13.786 7.74-16.144 8.127-3.417.563-3.417 3.84 1.634 4.342z" fill="#13375B"/><path d="M293.181 336.63s.819 8.057.819 11.605c0 3.553-3.307 13.565-1.774 15.098 1.533 1.533 45.313 1.342 45.313-.101 0-1.442-7.734-5.81-18.249-8.815-10.514-3.006-14.087-14.651-11.358-21.34l-14.751 3.553z" fill="#F47458"/><path d="M338.243 363.338c0-1.342-7.177-5.469-16.475-8.308-9.911 3.347-23.667.583-28.828-.402-1.579 4.131-2.081 8.041-1.272 8.855 1.533 1.528 46.575 1.297 46.575-.145z" fill="#13375B"/><path d="M245.661 201.991l-7.85 6.966s-8.841 23.933-9.354 25.512c-.713 2.196-29.346 94.467-29.346 94.467l19.948 7.177s19.777-38.534 23.054-51.913c3.277-13.384 36.051-69.368 36.051-69.368l-32.503-12.841zm34.684 14.203l9.559 122.291h22.119s7.921-91.522 5.187-123.658l-36.865 1.367z" fill="#86B1F2"/><path d="M161.819 130.985s6.719 32.864 12.62 38.765c3.357 3.357 12.509 16.947 19.551 16.947 5.603 0 8.941.407 9.881.407 2.186 0-.272 13.384-2.322 15.43 0 0-.684 2.05-4.78 2.05s-25.808-14.886-32.362-21.44c-6.554-6.554-18.706-42.333-18.706-42.333l16.118-9.826z" fill="#F7A491"/><path d="M269.695 89.748s-8.469 9.83-19.661 26.491c-11.198 16.661-39.816 62.914-42.876 65.975-.739.739-3.061 2.232-3.061 2.232s-4.021-.865-6.182-.071c-2.111.779-4.961 4.87-3.956 5.871 1.001 1 4.866-2.342 6.047-2.307 1.181.035 1.281.03 1.281.668s-4.779 3.277-6.146 3.644-4.966 5.895-4.277 7.74c.683 1.844.638 2.457 2.367 2.457s2.005 1.368 3.458 1.368c1.457 0 1.819-1.82 3.457-1.091 1.639.729 2.096.548 7.192-2.548 5.097-3.096 14.611-14.611 19.39-19.39 4.78-4.78 48.43-52.345 48.43-52.345l-5.463-38.694z" fill="#F47458"/><path d="M288.22 16.51s-10.423-3.78-17.158 6.78c-6.735 10.56-3.096 9.56-6.373 14.836-3.277 5.283-11.836 4.187-11.836 12.38 0 8.191 3.825 9.468 3.825 9.468s-3.458 6.373.362 12.927c3.824 6.553 13.358 12.197 21.335 11.288 0 0 11.981 6.569 23.998 3.468 12.017-3.101 7.831-3.101 12.746-3.101s18.209-6.735 16.023-16.57c0 0 8.096-9.62.241-17.48-7.861-7.861-9.343-15.843-13.897-26.402-4.548-10.554-23.803-10.147-29.266-7.594z" fill="#184655"/><path d="M139.971 86.023c1.548.533 7.876 5.047 11.565 12.143 3.689 7.102 13.424 36.775 13.424 36.775l-16.028 5.87-8.961-54.788z" fill="#50BFA5"/><path d="M59.315 330.715s-2.638 9.378-4.734 11.469c-2.096 2.09-9.037 10.217-7.328 14.248 1.709 4.026 44.002 9.796 45.61 8.192 1.603-1.603-7.308-8.398-12.359-12.564-5.05-4.167-8.67-9.288-6.553-15.5 2.116-6.212 2.116-5.599 2.116-6.212 0-.613-16.752.367-16.752.367z" fill="#F7A491"/><path d="M92.858 364.624c1.915-1.437-4.03-7.85-12.64-12.796-3.603-.005-8.413-.251-12.484-1.266-6.373-1.593-11.263-7.117-12.71-8.911-.131.186-10.384 10.057-8.384 14.781 1.704 4.031 42.399 11.062 46.218 8.192z" fill="#355389"/><path d="M129.497 335.268s.779 9.63-.804 12.133c-1.588 2.502-7.137 12.409-4.046 15.505 2.789 2.789 41.534.995 42.75-.92 1.217-1.915-5.412-7.635-11.253-10.6-5.84-2.96-10.489-7.172-9.775-13.695.709-6.524.844-5.926.709-6.524-.136-.603-17.581 4.101-17.581 4.101z" fill="#F7A491"/><path d="M172.207 363.524c2.021-1.282-6.91-9.359-16.394-12.309-3.518.784-8.263 1.593-12.46 1.488-6.568-.166-12.544-4.488-14.348-5.921-.091.211-8.916 12.992-4.961 16.254 3.091 2.548 45.097 2.438 48.163.488z" fill="#355389"/><path d="M132.322 198.895l-25.014 72.484-28.693 67.101-24.034-6.036s8.674-46.515 16.822-61.126c6.166-11.057 10.468-74.504 10.468-74.504l50.451 2.081z" fill="#F47458"/><path d="M120.31 211.093l8.669 127.387h20.481s8.946-133.463 5.669-146.164c-3.277-12.7-37.403-9.83-37.403-9.83l2.584 28.607z" fill="#B75742"/><path d="M139.971 86.023s-26.396-7.91-30.462-7.398c-4.448.558-15.264 6.288-15.264 6.288s.664 45.826-1.246 58.783c-1.91 12.956-15.294 54.47-15.294 54.47s18.842 10.927 50.526 7.373c31.678-3.548 29.497-11.197 29.497-11.197s-3.006-45.882-6.011-66.091c-3.006-20.209-11.746-42.228-11.746-42.228z" fill="#96D9C9"/><path d="M319.13 93.024s-14.063-3.689-30.045-4.573c-8.273-.457-19.39 1.297-19.39 1.297s-10.102 22.666-13.108 41.237c-3.005 18.571-19.39 78.108-19.39 78.108s33.317 25.672 81.933 8.74V93.024z" fill="#F7A491"/><path d="M281.259 72.72s.438 14.5-.924 15.862-3.262 3.618-1.262 7.081c2.001 3.458 10.695 1.252 14.746-.729 3.89-1.9 6.398-5.438 6.398-5.438l-2.03-22.968-16.928 6.192z" fill="#F47458"/><path d="M287.039 78.73c2.79-.974 7.67-2.864 11.434-8.98l-.281-3.217-16.932 6.192s.105 3.538.05 7.282c2.372-.1 4.397-.809 5.729-1.276z" fill="#B75742"/><path d="M52.55 21.732s-1.392 6.448 5.333 8.715C64.608 32.713 68.784 9.05 72.609 4.372c3.825-4.674 15.424-5.95 21.456 3.388 3.317 5.131 4.352 7.368 4.613 8.338.216.794-.09.744-.09.744l-1.82 3.402s-5.835-3.543-8.036 2.925c-2.201 6.469 4.292 17.053-1.277 25.838-5.568 8.786-15.77 2.574-15.77 2.574-8.465 5.689-18.21-2.996-21.336-11.213-3.136-8.223 2.202-18.636 2.202-18.636z" fill="#F7CC7F"/><path d="M118.933 54.486l-.92 9.509-8.509 14.63s16.772 20.305 21.953 15.455c1.156-1.08 4.076-22.577 4.076-22.577l-16.6-17.017z" fill="#F7A491"/><path d="M118.013 64l-1.779 3.246c5.232 4.695 11.936 8.916 18.279 11.349.593-3.945 1.02-7.087 1.02-7.087l-16.6-17.017-.92 9.509z" fill="#F48C7F"/><path d="M136.207 23.25s4.433 4.02 6.066 6.292c9.695 13.515 1.844 40.157-3.222 42.373-7.664 3.353-17.641-1.155-28.889-8.78-11.243-7.624-14.796-19.973-4.503-30.713 10.298-10.735 30.548-9.172 30.548-9.172z" fill="#F7A491"/><path d="M98.9 20.867l3.065-2.935c12.012 0 21.586-7.242 35.066.04 8.896 4.805 5.242 11.565 5.242 11.565-32.945 0-21.059 25.964-25.099 36.297-4.036 10.338-29.231-12.007-18.275-44.967z" fill="#F7CC7F"/><path d="M121.948 50.108s-.467-8.524-5.689-6.83c-5.227 1.689-1.156 14.53 3.181 14.077 4.338-.452 2.508-7.247 2.508-7.247z" fill="#F7A491"/><path d="M301.172 50.133s.412-8.524 5.649-6.87c5.237 1.653 1.247 14.52-3.096 14.098-4.342-.423-2.553-7.228-2.553-7.228z" fill="#F47458"/><path d="M98.04 14.45s4.96 3.075 6.966 2.819c2-.256-3.066 6.237-5.75 6.905-2.684.674-1.739-1.915-2.307-2.8-.568-.884-2.659-.195-3.141-.848-1.1-1.488 1.885-5.795 4.232-6.077z" fill="#50BFA5"/><path d="M190.612 201.991s4.594-7.102 6.092-7.443c1.502-.342-.342 4.845-.342 5.805 0 .954 2.729-7.308 4.232-7.308 1.502 0 1.708 1.091 1.09 3.206-.613 2.116-2.045 4.85-1.367 4.85.684 0 2.629-9.182 3.755-8.056 1.125 1.126.693 8.634-1.433 10.765-2.121 2.131-8.378.8-12.027-1.819z" fill="#F7A491"/><path d="M272.258 146.983c1.865.97 4.212-.277 5.162-2.076 1.316-2.488.487-5.041-1.377-5.916-1.945-.914-4.182-.035-5.373 2.327-1.101 2.192-.352 4.845 1.588 5.665zm-12.791-15.656c.769-.809 3.006-4.001 6.81-2.734 3.297 1.095 4.594 4.488 5.529 6.021-.267-1.543-.89-4.207-.161-7.227 1.94-8.037 11.781-7.313 11.6.14-.071 2.925-1.121 4.715-2.604 7.851.603-.664 2.413-2.855 4.906-4.137 7.257-3.739 11.162 5.378 6.021 10.213-2.654 2.503-6.031 2.568-8.097 2.81 1.789.502 2.86.653 4.609 1.764 9.071 5.754-3.549 21.274-10.369 6.327-.01-.02-.045-.02-.065-.025.311 2.116.915 4.709.04 7.7-2.362 8.107-13.148 6.684-11.278-2.498.583-2.87 2.493-5.915 2.608-6.147-1.301 1.388-3.216 3.689-5.991 4.775-7.141 2.794-10.549-7.293-3.97-11.55 2.945-1.904 5.87-1.628 6.906-1.904-2.443-.588-4.74-1.272-6.408-3.322-2.257-2.77-1.046-5.499-1.116-5.876.342-.724.688-1.452 1.03-2.181z" fill="#F7CC7F"/><path d="M284.717 22.29s-8.192-.181-12.379 6.192c-4.186 6.373-8.74 24.576-1.819 37.141 6.921 12.565 15.751 9.469 19.39 8.192 3.644-1.276 10.831-4.096 14.475-15.841 3.638-11.746 1-38.142-19.667-35.684z" fill="#F47458"/><path d="M98.477 82.792s5.936-.9 11.032 18.374c5.775 21.843-.442 44.465-9.992 50.194-9.549 5.73-13.484 4.629-13.484 4.629l1.498 13.469s28.215-6.317 32.06-30.431c6.297-39.53-12.283-59.89-12.283-59.89s-3.493.559-4.579 1.001c-1.161.472-4.252 2.654-4.252 2.654z" fill="#466EB6"/><path d="M83.892 128.437v28.22c0 4.916 5.644 38.197 12.565 49.596 6.921 11.399 16.299 24.109 18.239 24.838 1.94.729 6.162 3.398 8.343 1.216 2.186-2.186 3.915-1.181 6.644-2.367 2.729-1.181-.362-5.096-4.186-8.921-3.825-3.824-4.644-4.734-4.006-5.372.638-.639 3.734 2.915 5.373 2.367 1.638-.548-1.001-6.283-5.283-8.283-4.277-2-11.107-5.915-11.745-8.011-.638-2.096-.638-1.548-.638-2.096s-4.825-33.593-4.825-40.057c0-6.463-1.91-27.491-1.91-27.491l-18.57-3.639z" fill="#F7A491"/><path d="M96.799 83.792c-2.483.311-9.218 2.77-11.585 10.78-2.367 8.012-8.604 30.769-7.509 41.876 0 0 26.582 3.458 26.582 2.368 0-1.091 5.815-29.588 2.915-42.057-2.533-10.881-6.086-13.505-10.403-12.967z" fill="#50BFA5"/><path d="M135.84 84.812l18.48 66.412c-.814-8.674-1.709-16.957-2.603-22.973-3.006-20.209-11.746-42.228-11.746-42.228s-1.628-.487-4.131-1.211z" fill="#466EB6"/><path d="M243.56 218.682h51.134V148.48l-51.134 2.734v67.468z" fill="#3C8F7C"/><path d="M243.56 145.741h48.862c1.256 0 2.272 1.227 2.272 2.739 0 1.513-1.016 2.739-2.272 2.739H243.56l.04-.02c3.378-1.528 3.363-3.94-.04-5.458z" fill="#3C8F7C"/><path d="M244.957 146.55h45.781c.885 0 1.598.865 1.598 1.925 0 1.066-.713 1.925-1.598 1.925h-45.781c1.553-1.186 1.548-2.659 0-3.85z" fill="#FAE0B2"/><path d="M319.13 93.024s-3.83 3.835-7.926 18.385-6.187 48.616-9.735 52.164c-3.554 3.553-26.763 22.034-30.955 21.395-4.187-.638-13.565-11.559-16.475-11.559-2.915 0-2.548 2.638-1.091 4.096 1.458 1.457 3.232 3.141 2.368 4.006l-.865.864s-12.972-3.413-15.158-2.141c-2.186 1.277 2.096 4.277 2.096 6.463 0 2.187-.533 2.146-.271 4.554.261 2.407.864 4.322 2.005 5.463 1.136 1.136 15.475 5.282 29.497 3.367 14.017-1.91 31.135-8.649 43.786-24.305 12.655-15.656 10.117-64.869 9.83-69.78-.734-12.429-7.106-12.972-7.106-12.972z" fill="#F47458"/></symbol><symbol viewBox="0 0 117 98" id="design--design_heart" xmlns="http://www.w3.org/2000/svg"><path d="M64.222 37.693s4.815-5.388 13.215-4.577c7.49.723 12.08 7.178 11.413 14.113-.773 8.026-8.731 16.845-27.802 23.337-17.475-10.022-23.6-20.2-22.826-28.226.667-6.935 6.41-12.392 13.901-11.669 8.407.81 12.099 7.022 12.099 7.022zM1.969 34.88c7.165 1.884 13.022 3.038 18.828 3.898 1.914.281 5.151 1.341 6.723-.106.817-.754 1.079-1.77.436-2.756-1.172-1.803-4.153-1.603-6.08-1.89a197.587 197.587 0 01-19.11-3.81c-1.24-.312-2.525.742-2.73 1.933-.231 1.353.698 2.407 1.933 2.731zm95.937 29.711c2.806.468 5.619.88 8.431 1.298 2.695.405 5.8 1.353 8.488.817 1.984-.4 2.532-2.87.655-3.873-2.426-1.304-5.631-1.304-8.332-1.703-2.812-.411-5.631-.836-8.45-1.203-3.006-.393-3.805 4.166-.792 4.664zM22.38 75.618c4.422-5.389 9-6.567 12.63-8.345 1.94-.948 1.36-3.692-.842-3.68-6.037.038-11.837 4.56-15.442 9.05-1.902 2.364 1.722 5.326 3.655 2.975zm30.173 19.757c.33-2.925 1.204-5.694 2.682-8.245.904-1.559 4.958-5.675 1.79-7.047-2.987-1.29-5.438 3.574-6.511 5.62-1.434 2.743-2.326 5.793-2.644 8.868-.312 3.037 4.34 3.854 4.683.804zM79.096 81.3l4.172 4.115c1.385 1.373 2.632 3.244 4.753 3.137 1.19-.062 1.82-1.153 1.852-2.22.05-1.933-2.276-3.436-3.549-4.683a2334.842 2334.842 0 00-4.197-4.091c-.93-.905-2.62-.593-3.386.349-.88 1.097-.574 2.476.355 3.392zM47.508 17.512C43.722 2.232 43.853 2.182 42.824.817c-1.047-1.404-3.436-.923-3.717.866-.274 1.772-.2 1.485 3.842 17.544.324 1.278 2.002 1.846 3.137 1.422 1.347-.512 1.74-1.852 1.422-3.137zm25.676 3.748a36.195 36.195 0 003.137-7.072c.736-2.295 2.176-5.713.237-7.684-.418-.424-1.298-.549-1.821-.3-2.202 1.055-2.277 4.317-2.963 6.43-.748 2.308-1.752 4.535-2.881 6.674-.592 1.129.062 2.613 1.172 3.118 1.254.574 2.483-.062 3.119-1.166zm35.854 7.87c.586-1.028-.137-2.2-1.023-2.719-1.821-1.06-4.653.43-6.424 1.142-2.064.83-4.035 1.858-5.937 3.006-1.098.66-1.235 2.345-.524 3.318.83 1.14 2.196 1.153 3.318.523 7.353-4.078 9.143-2.725 10.59-5.27z"/></symbol><symbol viewBox="0 0 39 43" id="design--design_moon" xmlns="http://www.w3.org/2000/svg"><path d="M34.57 38.463l4.391-3.002-10.811-.8a13.09 13.09 0 01-7.951-22.638l.339-.315A13.995 13.995 0 0134.71 8.75l1.858.653-1.226-1.67C29.932.365 19.924-1.893 11.875 2.437a18.335 18.335 0 00-5.883 5.017l-1.864 2.44a20.38 20.38 0 00-2.92 5.306A17.63 17.63 0 003.99 32.342l1.434 1.787c7.09 8.84 19.79 10.729 29.145 4.334z" fill="#FDCB7E"/></symbol><symbol viewBox="0 0 361 264" id="design--design_planet" xmlns="http://www.w3.org/2000/svg"><circle cx="179.2" cy="132" r="109.4" fill="#485090"/><path d="M283.8 100.2c1.5 4.9 2.6 9.9 3.4 15 24.7 16.2 38.4 33.9 34.8 49-3.4 14.3-19.5 17.9-44.6 16.1-26.3-1.9-62.6-9.7-104.8-17.4-38.9-9.4-77.1-19.8-102.7-32.1C48.4 120.6 35.8 109 39 95.7 42.6 81 62 71.6 90.4 68.3c3.1-4.3 6.5-8.3 10.1-12.1-46.7.5-80.4 12.4-85.5 33.7-5.1 20.9 18.2 46 57.9 67.5 25.2 13.6 57.2 25.8 92.7 34.4 34.8 8.4 68 12.2 96.3 11.8 46.1-.7 79-12.4 84.2-33.6 5.2-21.6-20-47.9-62.3-69.8z" fill="#5a6096"/></symbol><symbol viewBox="0 0 45 43" id="design--design_polyline" xmlns="http://www.w3.org/2000/svg"><path d="M9.016.27l1.666 8.378 8.462 2.042 1.203 9.527 9.693-.61 1.836 10.714 8.989.538 3.45 10.014-3.787 1.318-2.58-7.485-9.487-.57-1.765-10.298-9.855.621-1.326-10.515-8.264-1.991-1.548-7.77L0 4.013.135 0l8.88.27z" fill="#8DE3D8"/></symbol><symbol viewBox="0 0 64 50" id="design--design_polyline2" xmlns="http://www.w3.org/2000/svg"><path d="M31.735 23.075L30.346 42.43l-18.741 6.273L9.963 43.8l15.468-5.184 1.436-19.993 22.14-3.598-.686-13.406 5.19.165.897 17.608-22.673 3.683z"/></symbol><symbol viewBox="0 0 62 62" id="design--design_smile" xmlns="http://www.w3.org/2000/svg"><path d="M1.993 41.473c5.987 15.81 23.661 23.773 39.471 17.78 15.81-5.993 23.767-23.668 17.78-39.477-5.987-15.81-23.661-23.774-39.47-17.78C3.963 7.988-3.995 25.662 1.992 41.472z"/><path d="M47.645 29.361c3.199 8.457-1.055 17.906-9.505 21.105-8.45 3.206-17.899-1.054-21.105-9.51l30.61-11.595z" fill="#fff"/></symbol><symbol viewBox="0 0 159 159" id="design--design_spiral" xmlns="http://www.w3.org/2000/svg"><path d="M27.681 54.82c-18.896 22.473-5.925 58.347 17.737 71.438 26.16 14.476 60.689 7.628 80.236-14.634 21.164-24.096 18.892-55.755-4.627-73.702-22.898-17.467-52.186-5.937-59.19 20.22-5.026 18.757 5.427 33.694 15.325 34.019 7.723.257 12.82-8.395 7.039-14.229-2.313-2.343-6.067-2.627-8.848-1.48-4.393-6.143-3.08-20.513 8.213-29.652 14.427-11.682 33.705-.438 40.88 13.975 9.138 18.346-.751 38.787-15.921 50.375-15.921 12.18-39.535 14.611-57.254 4.887-20.069-11.014-27.474-36.631-16.681-56.73 2.55-4.751-3.527-8.51-6.909-4.488z" fill="#C2D7F8"/></symbol><symbol viewBox="0 0 48 48" id="design--design_star" xmlns="http://www.w3.org/2000/svg"><path d="M13.867 40.149l-.433-10.525-8.913-5.611c-1.016-.641-.857-2.165.268-2.585l9.876-3.665 2.58-10.211c.296-1.163 1.794-1.484 2.54-.545l6.535 8.258 10.508-.702c1.198-.08 1.964 1.248 1.303 2.247l-5.837 8.77 3.914 9.777c.446 1.114-.577 2.256-1.733 1.933l-10.144-2.841-8.091 6.744c-.922.773-2.325.155-2.373-1.044z" fill="#F9B9AB"/></symbol><symbol viewBox="0 0 96 98" id="design--design_sun" xmlns="http://www.w3.org/2000/svg"><path d="M27.685 45.368c-.63-9.105 6.236-17 15.342-17.63 9.105-.63 17 6.236 17.63 15.341.63 9.106-6.236 17.001-15.341 17.631-9.106.63-17.001-6.236-17.631-15.342zm28.027 46.668c-.986-4.796-1.584-9.928-3.218-14.543-1.41-3.973-7.609-2.763-7.29 1.509.386 5.226 2.014 10.527 3.111 15.641.443 2.07 3.187 3.037 5.002 2.401 2.214-.786 2.819-2.925 2.395-5.008zm28.32-20.475c-5.476-3.23-10.253-7.228-15.304-11.05-3.948-2.982-8.208 2.15-4.959 5.693 4.665 5.096 10.79 9.068 16.696 12.554 1.87 1.104 4.471.025 5.382-1.82 1.029-2.059.056-4.273-1.815-5.377zM73.654 41.975c-1.24.998-1.484 2.426-.723 3.81 1.852 3.362 6.555 3.194 9.891 3.082 3.486-.119 6.966-.83 10.266-1.952 4.87-1.666 2.232-9.218-2.657-7.553-9.555 3.268-13.172-.274-16.776 2.613zm-5.257-32.13c-4.808 7.034-8.737 9.41-8.126 13.283.355 2.264 2.145 3.343 4.334 2.85 2.582-.586 3.992-3.324 5.538-5.244 1.485-1.846 2.944-3.692 4.266-5.657 1.204-1.784 1.372-4.091-.393-5.625-1.478-1.285-4.403-1.397-5.619.393zM49.656 8.628C48.116 4.363 47.78 2.81 45.79.833 44.056-.89 40.395.209 40.152 2.747c-.281 2.963.336 4.06 1.952 8.538.73 2.033 3.056 3.168 5.101 2.445 2.04-.711 3.187-3.062 2.451-5.102zM29.419 18.944c-6.936-5.27-8.345-6.754-11.07-6.467-1.597.168-3.393 1.702-3.044 3.492.649 3.33 2.582 4.235 8.962 8.887 1.709 1.247 4.06 1.31 5.532-.387 1.322-1.509 1.31-4.234-.38-5.525zM1.566 43.092c-2.732 1.447-1.634 6.174 1.322 6.56 2.838.375 3.93-.087 17.7-2.6 2.126-.387 3.879-1.94 3.717-4.272-.138-1.977-2.127-4.104-4.266-3.717-14.3 2.588-15.735 2.575-18.473 4.029zm21.566 22.52c-7.546 7.303-8.65 6.012-11.631 10.477-1.36 2.04.886 5.295 3.256 4.858 3.043-.56 3.86-1.072 7.833-4.216a91.636 91.636 0 006.629-5.825c1.572-1.509 1.148-4.346-.393-5.693-1.765-1.535-4.122-1.123-5.694.399z"/></symbol><symbol viewBox="0 0 43 34" id="design--design_triangle" xmlns="http://www.w3.org/2000/svg"><path d="M19.826 0L0 25.532l42.702 7.51L19.826 0z"/></symbol><symbol viewBox="0 0 20 20" id="info_more" xmlns="http://www.w3.org/2000/svg"><path d="M10 .375C4.685.375.375 4.685.375 10s4.31 9.625 9.625 9.625 9.625-4.31 9.625-9.625S15.315.375 10 .375zm0 15.21a.86.86 0 110-1.717.86.86 0 010 1.718zm1.351-4.715a1.038 1.038 0 00-.664.963v.487a.172.172 0 01-.171.172H9.484a.172.172 0 01-.171-.172v-.462a2.402 2.402 0 011.547-2.273c.73-.281 1.203-.893 1.203-1.562 0-.947-.927-1.718-2.063-1.718-1.137 0-2.063.771-2.063 1.718v.164a.172.172 0 01-.171.172H6.734a.172.172 0 01-.171-.172v-.164c0-.844.369-1.632 1.04-2.219C8.246 5.24 9.097 4.93 10 4.93c.902 0 1.753.311 2.398.874.67.587 1.04 1.375 1.04 2.22 0 1.241-.82 2.358-2.087 2.846z"/></symbol><symbol viewBox="0 0 124 43" id="logo" xmlns="http://www.w3.org/2000/svg"><path d="M11.3 19.329c2.131 0 3.983.352 5.555 1.056 1.57.682 2.783 1.672 3.636 2.97.853 1.276 1.28 2.783 1.28 4.52 0 1.739-.427 3.246-1.28 4.522-.853 1.276-2.065 2.266-3.636 2.97-1.572.682-3.424 1.023-5.556 1.023H7.192v6.039H.525v-23.1H11.3zm-.405 11.913c1.37 0 2.402-.286 3.098-.858.695-.594 1.043-1.43 1.043-2.508s-.348-1.914-1.043-2.508c-.696-.594-1.729-.891-3.098-.891H7.192v6.765h3.703zm22.482 11.484c-1.953 0-3.715-.396-5.286-1.188-1.572-.792-2.806-1.892-3.704-3.3-.875-1.408-1.313-3.003-1.313-4.785 0-1.76.438-3.344 1.313-4.752.898-1.408 2.121-2.497 3.67-3.267 1.571-.792 3.344-1.188 5.32-1.188 1.975 0 3.748.396 5.32 1.188 1.57.77 2.794 1.859 3.67 3.267.875 1.386 1.312 2.97 1.312 4.752 0 1.782-.438 3.377-1.313 4.785-.875 1.408-2.099 2.508-3.67 3.3-1.57.792-3.344 1.188-5.32 1.188zm0-4.983c1.122 0 2.042-.374 2.76-1.122.719-.77 1.078-1.826 1.078-3.168 0-1.32-.36-2.354-1.078-3.102-.718-.748-1.638-1.122-2.76-1.122-1.123 0-2.043.374-2.761 1.122-.718.748-1.078 1.782-1.078 3.102 0 1.342.36 2.398 1.078 3.168.718.748 1.638 1.122 2.76 1.122zm22.46 4.983c-2.02 0-3.827-.396-5.42-1.188-1.594-.792-2.84-1.892-3.738-3.3-.875-1.408-1.313-3.003-1.313-4.785s.438-3.366 1.313-4.752c.898-1.408 2.144-2.497 3.738-3.267 1.593-.792 3.4-1.188 5.42-1.188 2.065 0 3.85.44 5.354 1.32 1.503.858 2.57 2.057 3.198 3.597l-4.95 2.475c-.83-1.606-2.042-2.41-3.635-2.41-1.145 0-2.099.375-2.862 1.123-.74.748-1.111 1.782-1.111 3.102 0 1.342.37 2.398 1.11 3.168.764.748 1.718 1.122 2.863 1.122 1.593 0 2.805-.803 3.636-2.41l4.95 2.476c-.63 1.54-1.696 2.75-3.2 3.63-1.503.858-3.288 1.287-5.353 1.287zm34.258 0c-1.953 0-3.715-.396-5.286-1.188-1.571-.792-2.805-1.892-3.703-3.3-.876-1.408-1.313-3.003-1.313-4.785 0-1.76.437-3.344 1.313-4.752.898-1.408 2.12-2.497 3.67-3.267 1.57-.792 3.344-1.188 5.32-1.188 1.974 0 3.748.396 5.319 1.188 1.571.77 2.794 1.859 3.67 3.267.875 1.386 1.313 2.97 1.313 4.752 0 1.782-.438 3.377-1.313 4.785-.876 1.408-2.099 2.508-3.67 3.3-1.571.792-3.345 1.188-5.32 1.188zm0-4.983c1.123 0 2.043-.374 2.761-1.122.718-.77 1.078-1.826 1.078-3.168 0-1.32-.36-2.354-1.078-3.102-.718-.748-1.638-1.122-2.76-1.122-1.123 0-2.043.374-2.762 1.122-.718.748-1.077 1.782-1.077 3.102 0 1.342.36 2.398 1.077 3.168.719.748 1.639 1.122 2.761 1.122zm21.855-1.683h-2.155v6.369h-6.397V24.543h6.397v6.6h2.29l4.478-6.6h6.766l-6.127 8.58 6.531 9.306h-7.541l-4.242-6.37zM63.685 22.63c-4.812 0-9.158-3.203-9.364-3.357l-.596-.446.328-.624c.127-.244 3.191-5.979 8.697-7.044l.443-.086c3.545-.686 7.065 1.289 7.846 4.402.781 3.114-1.467 6.206-5.012 6.892l-.443.086a9.97 9.97 0 01-1.9.177zm14.665-7.3c-2.335 0-4.65-.895-6.221-2.615-1.333-1.457-1.94-3.284-1.708-5.142.23-1.859 1.272-3.527 2.932-4.697l.442-.312c2.255-1.59 5.47-2.416 9.3-2.391 2.832.02 5.004.49 5.095.511l.76.167.021.687c.01.33.197 8.136-5.198 11.94l-.442.312c-1.468 1.036-3.23 1.54-4.981 1.54z" fill="#00B49D"/><path d="M82.438 5.293a.926.926 0 00-1.1-.64c-1.473.34-3.36.849-5.07 1.753-2.582 1.366-4.037 3.266-4.326 5.649l-.006.048v3.794c-1.124-.974-2.366-1.58-3.714-1.808-2.98-.505-5.722.934-7.533 2.077a.916.916 0 00-.2 1.38.986.986 0 001.276.177c1.531-.977 3.832-2.23 6.066-1.852 1.508.255 2.888 1.244 4.105 2.938l-1.24 23.62h5.223L74 12.2c.489-3.748 4.803-5.078 7.747-5.767a.918.918 0 00.69-1.14z" fill="#75CABF"/></symbol><symbol viewBox="0 0 13 18" id="map_marker" xmlns="http://www.w3.org/2000/svg"><path d="M12.36 6.45a6.03 6.03 0 00-.446-2.277 5.956 5.956 0 00-1.27-1.93A5.854 5.854 0 008.743.953a5.783 5.783 0 00-4.485 0 5.855 5.855 0 00-1.901 1.29 5.957 5.957 0 00-1.27 1.93A6.03 6.03 0 00.64 6.45a5.99 5.99 0 00.925 3.2h-.007L6.5 17.5l4.942-7.85h-.006a6 6 0 00.924-3.2zM6.5 9a2.492 2.492 0 01-1.775-.747 2.57 2.57 0 01-.736-1.803c0-.676.265-1.325.736-1.803A2.492 2.492 0 016.5 3.9c.667 0 1.305.269 1.776.747a2.57 2.57 0 01.736 1.803 2.57 2.57 0 01-.736 1.803A2.492 2.492 0 016.5 9z"/></symbol><symbol viewBox="0 0 18 18" id="phone_call" xmlns="http://www.w3.org/2000/svg"><path d="M5.829 1.83l.807-.259c.758-.241 1.565.15 1.89.913l.644 1.521c.28.662.126 1.441-.385 1.926l-1.42 1.348c.086.807.358 1.602.812 2.383a6.509 6.509 0 001.704 1.946l1.706-.57c.647-.215 1.351.034 1.747.616l.925 1.358a1.742 1.742 0 01-.194 2.187l-.613.616a2.265 2.265 0 01-2.289.583c-1.904-.594-3.655-2.357-5.252-5.29-1.6-2.937-2.165-5.43-1.694-7.476.198-.86.811-1.547 1.612-1.803z"/></symbol><symbol viewBox="0 0 511.999 511.999" id="views" xmlns="http://www.w3.org/2000/svg"><path d="M508.745 246.041c-4.574-6.257-113.557-153.206-252.748-153.206S7.818 239.784 3.249 246.035a16.896 16.896 0 000 19.923c4.569 6.257 113.557 153.206 252.748 153.206s248.174-146.95 252.748-153.201a16.875 16.875 0 000-19.922zM255.997 385.406c-102.529 0-191.33-97.533-217.617-129.418 26.253-31.913 114.868-129.395 217.617-129.395 102.524 0 191.319 97.516 217.617 129.418-26.253 31.912-114.868 129.395-217.617 129.395z"/><path d="M255.997 154.725c-55.842 0-101.275 45.433-101.275 101.275s45.433 101.275 101.275 101.275S357.272 311.842 357.272 256s-45.433-101.275-101.275-101.275zm0 168.791c-37.23 0-67.516-30.287-67.516-67.516s30.287-67.516 67.516-67.516 67.516 30.287 67.516 67.516-30.286 67.516-67.516 67.516z"/></symbol><symbol viewBox="0 0 24 24" id="warning" xmlns="http://www.w3.org/2000/svg"><path d="M12 24c6.627 0 12-5.373 12-12S18.627 0 12 0 0 5.373 0 12s5.373 12 12 12z"/><path d="M13.161 5.032a1.161 1.161 0 10-2.322 0v8.516a1.161 1.161 0 102.322 0V5.032zm0 13.162a1.161 1.161 0 10-2.322 0 1.161 1.161 0 002.322 0z" fill="#fff"/></symbol></svg>