<svg xmlns="http://www.w3.org/2000/svg" viewBox="0 0 557.46 127.55"><path fill="#4dbc15" d="M70.28 125.84h42.22V54.36L27.99 30.13V0H0v125.84h42.22V86.22h28.06v39.62z"/><path d="M312.93 64.24A37.67 37.67 0 0 0 251.68 76a36.28 36.28 0 0 0-2.91 14.46 36.7 36.7 0 0 0 10.87 26.29 37.86 37.86 0 0 0 11.9 7.89 38.85 38.85 0 0 0 29.47 0 37.86 37.86 0 0 0 11.9-7.89 36.7 36.7 0 0 0 10.89-26.29A36.28 36.28 0 0 0 320.89 76a37.85 37.85 0 0 0-7.96-11.76Zm-7.16 35.28a20.22 20.22 0 0 1-4.15 7 19.26 19.26 0 0 1-6.56 4.55 23.86 23.86 0 0 1-17.55 0 19.26 19.26 0 0 1-6.56-4.55 20.25 20.25 0 0 1-4.16-7 28.17 28.17 0 0 1 0-18.14 20.25 20.25 0 0 1 4.16-7 19.26 19.26 0 0 1 6.56-4.55 23.76 23.76 0 0 1 17.55 0 19.26 19.26 0 0 1 6.56 4.55 20.38 20.38 0 0 1 4.15 7 28.17 28.17 0 0 1 0 18.14ZM481.42 68.48V55.12H425.6v13.95h35.67l-36.96 43.28v13.5h59.12V111.9h-39.24l37.23-43.42zM518.22 111.9l37.23-43.42V55.12h-55.82v13.95h35.67l-36.96 43.28v13.5h59.12V111.9h-39.24zM215.81 55.76c-10.44-4.32-23.25-2.54-31.54 4.14V30.13h-15.66v95.71h15.67V88.21c0-7.16 2.06-19.17 15.83-19.17 12.64 0 17.13 10.33 17.13 19.17v37.62h15.65V83.06c-.01-12.86-6.23-22.81-17.08-27.3ZM390.76 93.74a25.43 25.43 0 0 1-.91 6.55 18 18 0 0 1-2.94 6 15.28 15.28 0 0 1-5.27 4.41 20.32 20.32 0 0 1-16.25 0 15.28 15.28 0 0 1-5.27-4.41 17.76 17.76 0 0 1-2.94-6 25.44 25.44 0 0 1-.92-6.55V55h-15.54v40.3c0 15 6.62 25 19.95 30a37.8 37.8 0 0 0 25.86-.06c16.36-6.18 19.79-19.72 19.79-30V55.17h-15.56Z"/></svg>